<?xml version="1.0" encoding="UTF-8" ?>
<!DOCTYPE svg PUBLIC "-//W3C//DTD SVG 1.1//EN" "http://www.w3.org/Graphics/SVG/1.1/DTD/svg11.dtd">
<svg width="512pt" height="512pt" viewBox="0 0 512 512" version="1.1" xmlns="http://www.w3.org/2000/svg">
<g id="#000000ff">
<path fill="#000000" opacity="1.00" d=" M 263.17 22.94 C 263.53 10.43 275.52 -0.19 288.00 1.08 C 327.40 5.89 365.58 20.24 398.52 42.39 C 427.91 62.11 453.19 87.97 472.13 117.88 C 497.33 157.29 511.04 203.76 512.00 250.49 L 512.00 261.51 C 510.87 300.05 501.36 338.40 483.52 372.62 C 453.75 430.24 401.43 475.91 340.02 496.97 C 299.16 511.13 254.70 514.59 212.09 507.27 C 172.15 500.44 133.95 483.84 101.69 459.33 C 74.64 438.80 51.60 412.96 34.51 383.60 C 13.02 346.97 1.38 304.86 0.00 262.47 L 0.00 252.88 C 1.00 242.79 8.95 233.80 19.03 232.13 C 28.80 230.17 39.41 235.34 43.88 244.24 C 47.07 249.96 46.50 256.69 46.72 262.99 C 48.12 303.29 61.67 343.05 85.07 375.88 C 104.54 403.38 130.72 426.08 160.71 441.44 C 206.26 464.99 260.61 470.72 310.10 457.34 C 343.65 448.41 374.81 430.84 399.97 406.93 C 427.22 381.17 447.41 348.00 457.56 311.89 C 471.30 263.80 466.92 210.82 445.34 165.69 C 430.41 134.11 407.46 106.37 379.26 85.75 C 351.12 65.10 317.72 51.81 283.12 47.29 C 271.49 45.90 262.24 34.62 263.17 22.94 Z" />
<path fill="#000000" opacity="1.00" d=" M 27.97 17.88 C 52.24 -0.91 90.15 1.58 112.05 22.96 C 123.24 33.76 128.81 49.55 128.24 64.96 C 127.76 76.11 125.61 87.67 119.10 96.99 C 113.65 105.08 106.33 111.66 98.92 117.93 C 83.81 130.52 67.45 141.71 53.76 155.93 C 75.17 155.95 96.59 155.90 118.00 155.96 C 126.45 155.76 133.99 163.55 133.49 172.00 C 133.37 180.06 126.06 187.13 117.99 186.97 C 86.65 187.02 55.30 187.01 23.96 186.98 C 17.82 187.13 11.79 183.35 9.41 177.66 C 7.57 173.55 7.67 168.65 9.69 164.62 C 16.59 150.41 26.89 138.09 38.47 127.45 C 52.06 114.57 67.54 103.93 81.76 91.78 C 86.79 87.18 92.39 82.62 95.16 76.22 C 97.49 68.41 98.47 59.61 95.08 51.95 C 91.87 44.64 84.73 39.80 77.22 37.70 C 68.11 35.16 57.78 35.68 49.55 40.64 C 44.69 43.49 41.08 48.40 39.98 53.94 C 38.32 60.31 41.25 67.52 37.17 73.28 C 32.47 81.48 20.08 83.11 13.42 76.38 C 7.89 71.56 8.15 63.67 8.36 56.98 C 8.87 41.94 15.92 27.07 27.97 17.88 Z" />
<path fill="#000000" opacity="1.00" d=" M 211.72 10.55 C 216.87 4.24 227.10 3.41 233.26 8.70 C 236.89 11.64 238.98 16.28 238.92 20.94 C 238.97 51.89 238.91 82.85 238.95 113.80 C 244.90 113.69 251.70 113.18 256.33 117.71 C 263.56 123.68 263.14 136.02 255.57 141.52 C 250.95 145.49 244.59 144.83 238.95 144.80 C 238.89 153.87 239.01 162.94 238.89 172.01 C 238.82 180.23 231.18 187.38 222.98 186.97 C 215.08 186.88 207.96 179.90 207.92 171.97 C 207.81 162.92 207.92 153.86 207.87 144.81 C 182.92 144.79 157.96 144.81 133.01 144.80 C 126.84 145.07 120.77 141.29 118.32 135.62 C 115.77 130.19 116.89 123.41 120.88 118.96 C 151.17 82.83 181.39 46.65 211.72 10.55 M 165.71 113.79 C 179.76 113.81 193.82 113.80 207.87 113.80 C 207.88 97.02 207.88 80.24 207.87 63.47 C 193.73 80.17 179.77 97.02 165.71 113.79 Z" />
<path fill="#000000" opacity="1.00" d=" M 353.47 103.66 C 360.29 102.13 367.88 105.80 370.70 112.23 C 373.52 118.17 372.07 125.74 367.24 130.20 C 291.25 206.20 215.26 282.20 139.25 358.19 C 134.61 363.16 126.67 364.42 120.69 361.22 C 111.80 356.91 109.72 343.68 116.78 336.80 C 192.77 260.78 268.78 184.78 344.77 108.77 C 347.10 106.26 350.06 104.29 353.47 103.66 Z" />
<path fill="#000000" opacity="1.00" d=" M 292.37 250.99 C 291.89 242.53 299.50 234.73 307.97 235.02 C 337.31 234.99 366.66 234.98 396.00 235.03 C 403.03 234.88 409.72 240.13 411.16 247.03 C 412.24 251.35 411.15 255.99 408.67 259.64 C 376.64 309.60 344.66 359.59 312.61 409.54 C 308.89 415.65 300.71 418.48 294.04 415.81 C 287.64 413.57 283.41 406.70 284.06 399.98 C 284.22 395.57 287.05 392.00 289.31 388.43 C 315.43 347.65 341.57 306.87 367.67 266.07 C 347.78 266.04 327.89 266.11 308.00 266.04 C 299.86 266.26 292.43 259.14 292.37 250.99 Z" />
</g>
</svg>
