<?xml version="1.0" encoding="UTF-8" ?>
<!DOCTYPE svg PUBLIC "-//W3C//DTD SVG 1.1//EN" "http://www.w3.org/Graphics/SVG/1.1/DTD/svg11.dtd">
<svg width="512pt" height="512pt" viewBox="0 0 512 512" version="1.1" xmlns="http://www.w3.org/2000/svg">
<g id="#000000ff">
<path fill="#000000" opacity="1.00" d=" M 252.37 0.00 L 259.67 0.00 C 274.65 0.58 289.57 3.67 303.32 9.70 C 328.94 20.75 349.87 40.55 365.91 63.06 C 377.85 79.69 387.20 98.03 395.05 116.89 C 418.74 126.72 441.60 139.10 461.27 155.70 C 478.71 170.29 493.63 188.35 502.56 209.39 C 508.51 223.24 511.57 238.24 512.00 253.28 L 512.00 259.67 C 511.31 279.62 505.73 299.40 495.55 316.60 C 480.82 341.79 458.04 361.33 433.21 376.18 C 421.04 383.50 408.17 389.54 395.10 395.06 C 389.26 409.04 382.68 422.75 374.69 435.63 C 371.51 441.05 363.12 441.78 359.01 437.06 C 355.95 433.88 355.49 428.68 357.85 424.97 C 361.87 418.29 365.54 411.41 369.01 404.43 C 312.10 422.25 250.94 426.90 192.17 416.32 C 175.55 413.48 159.17 409.40 143.05 404.50 C 154.78 428.46 170.09 451.25 190.91 468.24 C 206.80 481.20 226.38 489.92 246.93 491.58 C 262.48 492.96 278.38 490.76 292.86 484.89 C 297.23 482.98 302.35 480.22 306.98 483.07 C 313.54 486.32 313.81 496.79 307.34 500.28 C 292.57 507.65 276.10 511.28 259.66 512.00 L 252.37 512.00 C 226.82 511.28 201.83 501.97 181.66 486.35 C 151.54 463.23 131.29 429.75 116.95 395.10 C 90.90 384.26 65.81 370.30 44.89 351.18 C 25.66 333.73 10.24 311.37 3.78 286.00 C 1.68 278.29 0.81 270.34 0.00 262.42 L 0.00 253.29 C 0.43 224.98 11.77 197.43 30.14 176.05 C 53.10 148.95 84.42 130.38 116.92 116.93 C 130.61 83.74 149.78 51.82 177.78 28.76 C 198.64 11.40 225.14 0.70 252.37 0.00 M 202.03 35.78 C 175.39 52.78 156.73 79.62 142.99 107.57 C 164.20 101.05 185.93 96.16 207.94 93.28 C 261.79 85.94 317.12 91.35 368.94 107.50 C 360.14 89.48 349.36 72.26 335.70 57.51 C 320.49 40.81 300.81 27.55 278.58 22.54 C 252.64 16.52 224.41 21.29 202.03 35.78 M 132.35 132.43 C 117.32 172.78 109.76 215.92 110.03 258.98 C 110.60 300.06 118.20 341.05 132.38 379.61 C 160.23 390.07 189.47 396.76 219.03 399.96 C 273.19 405.93 328.57 398.28 379.65 379.59 C 395.88 335.75 403.56 288.66 401.67 241.92 C 399.92 204.58 392.54 167.46 379.61 132.37 C 343.32 118.78 304.74 111.44 266.03 110.16 C 220.60 108.97 174.97 116.73 132.35 132.43 M 49.34 184.42 C 34.81 200.02 24.16 219.66 21.13 240.91 C 17.31 265.52 23.12 291.38 37.08 311.99 C 54.19 337.58 80.33 355.58 107.58 369.01 C 97.32 335.98 91.33 301.60 90.22 267.02 C 88.94 225.13 95.08 183.10 107.50 143.10 C 86.02 153.50 65.68 166.88 49.34 184.42 M 404.42 143.01 C 412.08 167.76 417.44 193.25 420.01 219.04 C 425.35 269.38 419.44 320.65 404.49 368.93 C 429.05 356.96 452.41 341.16 469.47 319.54 C 483.51 301.88 491.96 279.65 491.97 257.00 C 492.40 234.14 484.30 211.53 470.32 193.55 C 453.20 171.34 429.41 155.20 404.42 143.01 Z" />
<path fill="#000000" opacity="1.00" d=" M 252.43 142.68 C 255.59 141.36 259.21 142.10 262.01 143.90 C 290.55 160.33 319.06 176.82 347.60 193.24 C 351.84 195.22 356.22 198.73 355.98 203.91 C 356.02 238.62 356.02 273.33 355.98 308.03 C 356.09 311.93 353.61 315.48 350.22 317.24 C 320.69 334.36 291.18 351.52 261.63 368.62 C 258.52 370.57 254.39 370.72 251.22 368.82 C 221.44 351.63 191.66 334.43 161.87 317.24 C 158.50 315.45 155.80 312.03 156.02 308.06 C 155.99 273.35 155.98 238.65 156.02 203.94 C 155.92 200.08 158.33 196.50 161.74 194.82 C 192.01 177.51 222.08 159.83 252.43 142.68 M 175.93 209.85 C 176.11 236.79 175.94 263.75 176.01 290.70 C 199.43 277.31 222.83 263.88 246.07 250.19 C 245.91 223.23 246.05 196.27 245.99 169.31 C 222.68 182.90 199.17 196.15 175.93 209.85 M 266.01 169.32 C 265.99 196.25 266.01 223.17 266.00 250.10 C 289.34 263.62 312.67 277.16 336.00 290.72 C 336.03 263.74 335.94 236.75 336.04 209.77 C 312.76 196.19 289.38 182.76 266.01 169.32 M 186.02 308.10 C 209.41 321.60 232.83 335.05 256.17 348.63 C 279.51 335.20 302.77 321.63 326.05 308.10 C 302.77 294.55 279.51 280.98 256.16 267.56 C 232.83 281.16 209.39 294.58 186.02 308.10 Z" />
<path fill="#000000" opacity="1.00" d=" M 335.49 456.65 C 342.39 453.69 350.57 460.60 348.79 467.89 C 347.72 475.21 337.77 478.63 332.43 473.50 C 326.75 468.98 328.60 458.91 335.49 456.65 Z" />
</g>
</svg>
