<?xml version="1.0" encoding="UTF-8" ?>
<!DOCTYPE svg PUBLIC "-//W3C//DTD SVG 1.1//EN" "http://www.w3.org/Graphics/SVG/1.1/DTD/svg11.dtd">
<svg width="512pt" height="512pt" viewBox="0 0 512 512" version="1.1" xmlns="http://www.w3.org/2000/svg">
<g id="#000000ff">
<path fill="#000000" opacity="1.00" d=" M 220.20 26.76 C 259.75 20.65 300.84 24.81 338.35 38.77 C 363.18 47.95 386.44 61.38 406.80 78.30 C 416.48 86.62 419.10 101.49 413.36 112.80 C 435.21 136.08 451.96 164.15 461.66 194.59 C 468.80 216.63 472.16 239.83 472.00 262.98 C 471.99 303.65 472.01 344.31 471.99 384.97 C 472.16 398.84 466.25 412.63 456.01 422.00 C 446.89 430.51 434.48 435.27 422.01 435.19 C 397.12 435.21 372.22 435.20 347.32 435.19 C 347.71 446.21 338.15 456.37 327.00 455.99 C 317.31 455.99 307.61 456.05 297.92 455.96 C 288.84 455.95 280.44 448.90 278.79 439.98 C 277.90 433.36 278.60 426.64 278.37 419.98 C 277.37 408.94 286.78 398.33 297.94 398.43 C 307.29 398.35 316.65 398.43 326.00 398.39 C 330.31 398.27 334.70 399.31 338.29 401.78 C 344.12 405.52 347.28 412.38 347.33 419.20 C 372.88 419.14 398.44 419.31 424.00 419.12 C 439.42 418.70 453.06 406.31 455.62 391.20 C 448.14 394.44 439.92 393.48 432.01 393.60 C 428.67 393.56 425.32 393.72 421.99 393.53 C 418.32 393.47 414.95 390.45 414.55 386.80 C 414.27 384.21 414.40 381.60 414.40 379.01 C 414.43 339.66 414.36 300.32 414.43 260.97 C 414.24 256.84 417.73 252.94 421.90 252.88 C 428.94 252.67 435.98 252.86 443.02 252.79 C 447.46 252.69 451.84 253.69 455.93 255.41 C 454.83 207.20 435.46 159.72 402.41 124.58 C 392.33 130.46 378.81 129.76 369.73 122.29 C 345.73 102.65 316.64 89.24 286.03 84.15 C 239.61 76.07 190.18 87.35 151.95 114.93 C 145.90 118.92 140.86 124.62 133.82 126.94 C 125.89 129.82 116.89 128.68 109.59 124.58 C 76.55 159.71 57.14 207.18 56.07 255.40 C 64.54 251.50 74.04 253.14 83.04 252.79 C 86.86 253.00 91.28 251.96 94.53 254.53 C 96.84 256.23 97.73 259.18 97.61 261.95 C 97.58 303.01 97.63 344.08 97.58 385.14 C 97.82 389.08 94.82 392.99 90.84 393.45 C 86.24 393.82 81.61 393.50 77.01 393.60 C 71.73 393.49 66.36 394.04 61.19 392.73 C 51.88 390.46 44.03 383.05 41.26 373.86 C 39.89 369.70 39.97 365.28 39.99 360.96 C 40.04 326.95 39.94 292.95 40.04 258.94 C 40.13 205.13 61.63 151.85 98.65 112.83 C 92.86 101.50 95.52 86.56 105.24 78.25 C 137.95 51.09 178.16 33.09 220.20 26.76 M 237.58 40.79 C 193.35 44.45 150.31 61.76 116.10 90.05 C 111.73 93.63 110.36 100.26 112.86 105.31 C 115.15 110.13 120.65 113.18 125.97 112.41 C 129.69 112.05 132.65 109.57 135.47 107.33 C 173.29 77.27 222.66 62.37 270.80 66.18 C 309.33 69.02 346.90 83.68 377.10 107.79 C 379.48 109.64 381.94 111.68 385.00 112.24 C 390.14 113.41 395.81 110.95 398.51 106.43 C 401.62 101.53 400.75 94.53 396.48 90.58 C 352.80 53.94 294.34 35.84 237.58 40.79 M 56.03 280.96 C 55.97 309.01 56.00 337.07 56.02 365.13 C 55.84 370.02 58.85 374.85 63.43 376.66 C 69.27 378.52 75.57 377.21 81.60 377.60 C 81.60 341.33 81.61 305.07 81.59 268.80 C 76.72 268.88 71.84 268.62 66.98 268.91 C 60.90 269.22 55.82 274.89 56.03 280.96 M 430.40 377.60 C 435.55 377.49 440.72 377.86 445.85 377.40 C 451.75 376.65 456.27 370.95 455.98 365.06 C 456.00 337.01 456.04 308.96 455.96 280.90 C 456.10 275.21 451.67 269.80 446.00 269.03 C 440.82 268.51 435.60 268.93 430.41 268.80 C 430.39 305.06 430.40 341.33 430.40 377.60 M 297.42 414.57 C 295.46 414.99 294.23 417.01 294.39 418.95 C 294.38 424.60 294.31 430.26 294.42 435.91 C 294.29 438.29 296.60 440.22 298.91 439.97 C 308.30 440.01 317.69 440.04 327.07 439.96 C 329.19 440.05 331.19 438.18 331.14 436.03 C 331.22 430.01 331.32 423.97 331.09 417.95 C 330.96 415.49 328.34 414.10 326.09 414.39 C 316.54 414.52 306.96 414.16 297.42 414.57 Z" />
<path fill="#000000" opacity="1.00" d=" M 146.55 171.33 C 151.80 169.48 157.45 169.54 162.95 169.60 C 224.29 169.61 285.63 169.60 346.97 169.60 C 353.14 169.60 359.50 169.23 365.42 171.33 C 379.58 175.72 389.49 190.22 388.80 204.98 C 388.76 242.99 388.87 281.00 388.75 319.01 C 388.63 336.32 373.39 351.73 356.06 351.93 C 311.50 352.10 266.95 351.94 222.40 352.01 C 222.35 363.34 222.50 374.68 222.33 386.01 C 222.29 390.29 218.23 393.91 213.98 393.58 C 211.48 393.56 209.41 392.00 207.75 390.28 C 195.07 377.49 182.26 364.84 169.59 352.04 C 161.44 351.76 152.92 352.92 145.16 349.75 C 132.23 345.03 123.06 331.82 123.22 318.05 C 123.20 279.67 123.16 241.29 123.24 202.91 C 123.30 188.83 133.16 175.58 146.55 171.33 M 140.66 196.51 C 138.60 201.13 139.30 206.30 139.21 211.20 C 191.86 211.22 244.51 211.17 297.16 211.22 C 301.50 210.91 305.57 214.60 305.58 218.97 C 305.84 223.56 301.57 227.55 297.03 227.18 C 244.42 227.22 191.81 227.19 139.20 227.20 C 139.21 257.48 139.18 287.76 139.21 318.04 C 139.04 326.78 146.16 334.89 154.86 335.81 C 161.23 336.37 167.65 335.65 174.02 336.15 C 176.26 336.34 178.01 337.91 179.55 339.40 C 188.47 348.38 197.43 357.31 206.39 366.25 C 206.46 358.82 206.31 351.38 206.44 343.95 C 206.31 339.46 210.50 335.65 214.94 336.02 C 261.64 335.95 308.34 336.06 355.04 335.97 C 362.18 335.98 368.98 331.25 371.53 324.60 C 373.18 320.61 372.76 316.23 372.81 312.03 C 372.79 283.76 372.81 255.48 372.80 227.20 C 361.85 227.18 350.91 227.23 339.96 227.19 C 336.33 227.45 332.64 225.18 331.59 221.63 C 329.85 216.81 333.86 211.12 339.01 211.25 C 350.26 211.12 361.53 211.25 372.79 211.20 C 372.72 206.08 373.42 200.63 371.05 195.89 C 368.07 189.44 361.06 185.26 353.98 185.59 C 288.33 185.62 222.68 185.57 157.04 185.62 C 150.04 185.57 143.34 190.07 140.66 196.51 Z" />
<path fill="#000000" opacity="1.00" d=" M 205.30 251.38 C 210.72 249.01 217.61 252.33 219.12 258.04 C 221.02 263.72 216.90 270.35 210.99 271.21 C 205.64 272.31 199.97 268.43 199.01 263.07 C 197.93 258.32 200.76 253.11 205.30 251.38 Z" />
<path fill="#000000" opacity="1.00" d=" M 252.22 251.28 C 259.17 247.83 267.97 254.42 266.70 262.03 C 266.14 269.78 255.92 274.04 250.02 268.98 C 243.86 264.60 245.16 253.99 252.22 251.28 Z" />
<path fill="#000000" opacity="1.00" d=" M 298.30 251.42 C 303.85 248.56 311.30 252.06 312.73 258.10 C 314.37 263.59 310.56 269.85 304.95 270.93 C 299.53 272.29 293.60 268.42 292.57 262.96 C 291.50 258.39 294.03 253.34 298.30 251.42 Z" />
</g>
</svg>
