<?xml version="1.0" encoding="utf-8"?>
<!-- Generator: Adobe Illustrator 24.3.0, SVG Export Plug-In . SVG Version: 6.00 Build 0)  -->
<svg version="1.1" id="Layer_1" xmlns="http://www.w3.org/2000/svg" xmlns:xlink="http://www.w3.org/1999/xlink" x="0px" y="0px"
	 viewBox="0 0 371 394" style="enable-background:new 0 0 371 394;" xml:space="preserve">
<style type="text/css">
	.st0{fill:#D9D9D9;filter:url(#Adobe_OpacityMaskFilter);}
	.st1{mask:url(#mask0_188_1306_1_);}
	.st2{fill-rule:evenodd;clip-rule:evenodd;fill:#1B1B1B;fill-opacity:5.000000e-02;}
</style>
<defs>
	<filter id="Adobe_OpacityMaskFilter" filterUnits="userSpaceOnUse" x="-10.5" y="15" width="361.5" height="387.7">
		<feColorMatrix  type="matrix" values="1 0 0 0 0  0 1 0 0 0  0 0 1 0 0  0 0 0 1 0"/>
	</filter>
</defs>
<mask maskUnits="userSpaceOnUse" x="-10.5" y="15" width="361.5" height="387.7" id="mask0_188_1306_1_">
	<rect class="st0" width="371" height="394"/>
</mask>
<g class="st1">
	<path class="st2" d="M344.8,384.6c-3-0.2-5.3-2.8-5.1-5.8c0.2-3,2.7-5.4,5.7-5.2c3,0.1,5.5,2.7,5.3,5.9
		C350.5,382.5,347.8,384.8,344.8,384.6z"/>
	<path class="st2" d="M1,20.4c0,3-2.4,5.6-5.4,5.7c-3,0.1-5.6-2.3-5.7-5.4c-0.2-3,2.3-5.6,5.4-5.7C-1.6,14.9,0.9,17.3,1,20.4z"/>
	<path class="st2" d="M30.6,21.2c-0.2,3-2.8,5.3-5.8,5.1c-3-0.2-5.4-2.7-5.2-5.7c0.1-3,2.7-5.5,5.9-5.3
		C28.5,15.5,30.8,18.2,30.6,21.2z"/>
	<path class="st2" d="M60,24.6c-0.5,3-3.3,5-6.3,4.7c-3-0.4-5.1-3.1-4.7-6.2c0.4-3,3.2-5.2,6.3-4.8C58.4,18.6,60.5,21.6,60,24.6z"/>
	<path class="st2" d="M89.1,30.5c-0.8,3-3.7,4.8-6.7,4.1C79.5,34,77.6,31,78.2,28c0.6-3,3.6-4.8,6.7-4.1
		C88,24.6,89.8,27.6,89.1,30.5z"/>
	<path class="st2" d="M117.5,39.1c-1,2.9-4.1,4.4-7,3.5c-2.9-1-4.4-4.1-3.5-7c0.9-2.9,4-4.5,7-3.5C116.9,33,118.5,36.2,117.5,39.1z"
		/>
	<path class="st2" d="M145,50c-1.3,2.8-4.5,4-7.2,2.8c-2.7-1.3-4.1-4.3-3-7.2c1.1-2.8,4.5-4.3,7.3-2.9C145,43.9,146.3,47.2,145,50z"
		/>
	<path class="st2" d="M171.5,63.3c-1.5,2.7-4.8,3.5-7.5,2.2c-2.7-1.4-3.7-4.7-2.3-7.4c1.4-2.7,4.8-3.8,7.6-2.3
		C172,57.2,173,60.7,171.5,63.3z"/>
	<path class="st2" d="M196.7,78.8c-1.7,2.5-5.1,3.2-7.7,1.6c-2.5-1.6-3.3-5-1.6-7.6c1.6-2.6,5.1-3.3,7.7-1.6
		C197.7,72.8,198.5,76.3,196.7,78.8z"/>
	<path class="st2" d="M220.5,96.6c-1.9,2.4-5.4,2.8-7.8,0.9c-2.4-1.9-2.8-5.3-0.9-7.8c1.8-2.4,5.3-2.8,7.8-0.9
		C222,90.7,222.4,94.2,220.5,96.6z"/>
	<path class="st2" d="M242.6,116.3c-2.1,2.2-5.6,2.3-7.8,0.2c-2.2-2.1-2.3-5.6-0.2-7.9c2-2.3,5.5-2.3,7.8-0.2
		C244.6,110.6,244.7,114.1,242.6,116.3z"/>
	<path class="st2" d="M262.9,137.8c-2.3,2-5.8,1.8-7.8-0.5c-1.9-2.3-1.9-5.7,0.4-7.8c2.2-2.1,5.8-2,7.9,0.4
		C265.5,132.3,265.2,135.9,262.9,137.8z"/>
	<path class="st2" d="M281.3,161.1c-2.5,1.8-5.9,1.2-7.6-1.2c-1.9-2.4-1.4-5.8,1-7.7c2.4-1.9,5.9-1.4,7.8,1.1
		C284.4,155.8,283.8,159.3,281.3,161.1z"/>
	<path class="st2" d="M297.7,185.8c-2.6,1.6-5.9,0.7-7.6-1.8c-1.6-2.5-0.9-5.9,1.7-7.6c2.6-1.7,6-0.9,7.7,1.8
		C301.2,180.8,300.3,184.2,297.7,185.8z"/>
	<path class="st2" d="M311.8,211.9c-2.7,1.3-6.1,0.2-7.5-2.5c-1.4-2.7-0.3-6,2.4-7.4c2.7-1.4,6-0.3,7.5,2.5
		C315.6,207.2,314.5,210.5,311.8,211.9z"/>
	<path class="st2" d="M323.5,239.1c-2.8,1.1-6.1-0.3-7.2-3.1s0.3-6,3.1-7.2c2.8-1.2,6,0.2,7.2,3.1
		C327.7,234.8,326.4,238,323.5,239.1z"/>
	<path class="st2" d="M332.8,267.2c-2.9,0.8-6-0.9-6.8-3.8c-0.8-2.9,0.7-6,3.7-6.9c2.9-0.9,6.1,0.7,6.9,3.7
		C337.4,263.3,335.8,266.4,332.8,267.2z"/>
	<path class="st2" d="M339.7,296.1c-3,0.6-5.8-1.4-6.4-4.3c-0.7-2.9,1.2-5.9,4.2-6.5c3-0.7,5.9,1.2,6.7,4.3
		C344.7,292.5,342.6,295.5,339.7,296.1z"/>
	<path class="st2" d="M344,325.4c-3,0.3-5.8-1.9-6.2-4.9c-0.4-3,1.8-5.7,4.8-6.2c3-0.4,5.8,1.8,6.2,4.9
		C349.2,322.3,347,325.1,344,325.4z"/>
	<path class="st2" d="M345.6,355c-3,0-5.6-2.4-5.7-5.4c-0.1-3,2.3-5.6,5.4-5.7c3-0.2,5.6,2.3,5.7,5.4
		C351.1,352.4,348.7,354.9,345.6,355z"/>
	<path class="st2" d="M314.6,384.4c-3-0.2-5.3-2.9-5.1-5.8c0.3-3,2.8-5.3,5.8-5.2c3,0.1,5.5,2.7,5.2,5.8
		C320.3,382.4,317.6,384.7,314.6,384.4z"/>
	<path class="st2" d="M15.7,50.6c-0.1,3-2.6,5.5-5.6,5.4c-3-0.1-5.4-2.6-5.4-5.6c0-3.1,2.5-5.6,5.6-5.4C13.4,45,15.8,47.6,15.7,50.6
		z"/>
	<path class="st2" d="M45.1,52.9c-0.4,3-3.1,5.2-6.1,4.8c-3-0.4-5.2-2.9-4.9-6c0.3-3,3-5.4,6.1-5C43.3,47.1,45.5,49.9,45.1,52.9z"/>
	<path class="st2" d="M74.1,58c-0.7,3-3.6,4.8-6.5,4.2c-2.9-0.6-4.9-3.4-4.3-6.4c0.5-3,3.5-5,6.5-4.4C72.9,52,74.8,55,74.1,58z"/>
	<path class="st2" d="M102.5,65.8c-1,2.9-4,4.4-6.9,3.5c-2.9-0.8-4.5-3.9-3.7-6.8c0.8-2.9,3.9-4.6,6.9-3.8
		C101.9,59.7,103.5,62.9,102.5,65.8z"/>
	<path class="st2" d="M130.1,76.3c-1.2,2.8-4.4,4-7.2,2.9c-2.8-1.1-4.1-4.3-3-7.1c1.1-2.8,4.4-4.2,7.3-3.1
		C130,70.1,131.3,73.5,130.1,76.3z"/>
	<path class="st2" d="M156.5,89.4c-1.5,2.7-4.8,3.5-7.4,2.2c-2.7-1.4-3.7-4.7-2.3-7.4c1.4-2.7,4.7-3.8,7.5-2.3
		C157,83.2,157.9,86.8,156.5,89.4z"/>
	<path class="st2" d="M181.5,104.9c-1.8,2.5-5.1,3.1-7.6,1.5c-2.5-1.6-3.2-5-1.6-7.6c1.6-2.6,5.1-3.3,7.7-1.6
		C182.6,98.9,183.2,102.4,181.5,104.9z"/>
	<path class="st2" d="M204.9,122.8c-2,2.3-5.4,2.6-7.7,0.8c-2.3-1.8-2.7-5.3-0.9-7.7c1.9-2.4,5.4-2.8,7.8-0.9
		C206.6,116.9,206.9,120.5,204.9,122.8z"/>
	<path class="st2" d="M226.6,142.8c-2.2,2.1-5.6,2.1-7.8,0.1c-2.2-2.1-2.2-5.5-0.1-7.8c2.1-2.2,5.6-2.3,7.9-0.1
		C228.8,137,228.8,140.6,226.6,142.8z"/>
	<path class="st2" d="M246.2,164.7c-2.4,1.9-5.8,1.5-7.8-0.7c-2-2.3-1.7-5.7,0.6-7.7c2.3-2,5.8-1.7,7.8,0.6
		C249,159.2,248.6,162.8,246.2,164.7z"/>
	<path class="st2" d="M263.7,188.4c-2.5,1.7-5.9,1-7.7-1.4c-1.7-2.4-1.1-5.9,1.3-7.6c2.5-1.8,5.9-1.2,7.7,1.4
		C267,183.2,266.3,186.7,263.7,188.4z"/>
	<path class="st2" d="M278.9,213.7c-2.7,1.4-6,0.4-7.5-2.1c-1.5-2.6-0.6-5.9,2.1-7.5c2.6-1.5,6-0.6,7.6,2.1
		C282.6,208.8,281.6,212.2,278.9,213.7z"/>
	<path class="st2" d="M291.6,240.3c-2.8,1.2-6.1-0.1-7.3-2.8c-1.2-2.7,0-6,2.8-7.3c2.8-1.3,6,0,7.3,2.8
		C295.7,235.8,294.5,239.1,291.6,240.3z"/>
	<path class="st2" d="M301.7,268c-2.9,0.9-6.1-0.7-7-3.5c-1-2.8,0.6-5.9,3.5-7c2.9-1,6,0.5,7,3.5C306.2,263.9,304.6,267.1,301.7,268
		z"/>
	<path class="st2" d="M309.1,296.5c-3,0.6-6-1.2-6.6-4.2c-0.7-2.9,1.2-5.9,4.1-6.6c3-0.7,5.9,1.1,6.6,4.2
		C313.9,292.9,312.1,295.9,309.1,296.5z"/>
	<path class="st2" d="M313.7,325.6c-3,0.3-5.8-1.8-6.2-4.8c-0.4-3,1.8-5.7,4.8-6.2c3-0.5,5.8,1.7,6.2,4.8
		C318.9,322.5,316.7,325.3,313.7,325.6z"/>
	<path class="st2" d="M315.5,355c-3,0-5.6-2.4-5.7-5.3c-0.1-3,2.3-5.5,5.4-5.7c3.1-0.2,5.6,2.2,5.7,5.3
		C321,352.4,318.6,355,315.5,355z"/>
	<path class="st2" d="M284.4,384.3c-3-0.3-5.3-2.9-5.1-5.8c0.2-2.9,2.9-5.2,5.9-5.1c3.1,0.1,5.4,2.7,5.1,5.8
		C290.1,382.3,287.4,384.5,284.4,384.3z"/>
	<path class="st2" d="M1,80.6c0,3-2.3,5.6-5.3,5.7c-3,0-5.5-2.3-5.7-5.3c-0.2-3.1,2.2-5.7,5.3-5.7C-1.6,75.1,1,77.6,1,80.6z"/>
	<path class="st2" d="M30.3,81.6c-0.3,3-2.9,5.3-5.8,5.1c-2.9-0.2-5.2-2.9-5.1-5.9c0.1-3.1,2.8-5.4,5.8-5.1
		C28.3,75.9,30.5,78.6,30.3,81.6z"/>
	<path class="st2" d="M59.2,85.6c-0.6,3-3.4,5-6.3,4.5c-2.9-0.5-4.9-3.4-4.5-6.4c0.4-3,3.3-5,6.3-4.5C57.8,79.7,59.8,82.6,59.2,85.6
		z"/>
	<path class="st2" d="M87.6,92.6c-0.9,2.9-3.9,4.6-6.8,3.8c-2.8-0.8-4.5-3.9-3.8-6.8c0.8-2.9,3.8-4.7,6.8-3.8
		C86.9,86.7,88.6,89.7,87.6,92.6z"/>
	<path class="st2" d="M115.2,102.6c-1.2,2.8-4.4,4.2-7.2,3.1c-2.8-1.1-4.1-4.3-3-7.1c1.1-2.8,4.3-4.2,7.2-3.1
		C115,96.6,116.4,99.8,115.2,102.6z"/>
	<path class="st2" d="M141.4,115.5c-1.5,2.7-4.8,3.6-7.4,2.3c-2.6-1.3-3.7-4.7-2.3-7.4c1.4-2.7,4.7-3.8,7.5-2.4
		C142,109.4,142.9,112.8,141.4,115.5z"/>
	<path class="st2" d="M166.2,131c-1.8,2.5-5.1,3.1-7.6,1.4c-2.5-1.6-3.2-5-1.5-7.5c1.6-2.6,5.1-3.3,7.7-1.6
		C167.4,125,168,128.5,166.2,131z"/>
	<path class="st2" d="M189.3,149c-2,2.3-5.5,2.6-7.7,0.6c-2.2-2-2.6-5.3-0.7-7.7c1.9-2.4,5.5-2.8,7.8-0.8
		C191,143.2,191.3,146.7,189.3,149z"/>
	<path class="st2" d="M210.3,169.3c-2.2,2.1-5.7,2-7.7-0.1c-2-2.2-2-5.6,0.1-7.8c2.2-2.2,5.7-2.2,7.8,0.1
		C212.6,163.8,212.6,167.3,210.3,169.3z"/>
	<path class="st2" d="M229.2,191.7c-2.4,1.8-5.9,1.4-7.7-0.9c-1.8-2.3-1.4-5.8,1-7.7c2.4-1.9,5.8-1.5,7.7,0.9
		C232,186.4,231.6,189.9,229.2,191.7z"/>
	<path class="st2" d="M245.6,216c-2.6,1.5-6,0.8-7.6-1.7c-1.6-2.5-0.8-5.9,1.7-7.6c2.5-1.7,6-0.9,7.6,1.7
		C249,211,248.2,214.4,245.6,216z"/>
	<path class="st2" d="M259.3,241.8c-2.8,1.3-5.9,0.1-7.3-2.5c-1.3-2.6-0.2-5.9,2.5-7.3c2.7-1.4,6-0.3,7.4,2.4
		C263.4,237.1,262,240.5,259.3,241.8z"/>
	<path class="st2" d="M270.3,268.9c-2.9,1-6-0.5-6.9-3.3c-1.1-2.8,0.3-5.9,3.2-7c2.8-1.1,6.1,0.3,7.2,3.2
		C274.7,264.7,273.1,267.9,270.3,268.9z"/>
	<path class="st2" d="M278.3,297c-3,0.7-5.9-1.1-6.6-4c-0.7-2.9,1-5.8,3.9-6.6c2.9-0.8,6.1,0.9,6.8,4
		C283.1,293.4,281.3,296.4,278.3,297z"/>
	<path class="st2" d="M283.4,325.8c-3,0.4-5.8-1.7-6.2-4.7c-0.3-2.9,1.6-5.7,4.7-6.2c3-0.5,5.9,1.6,6.3,4.6
		C288.5,322.7,286.4,325.5,283.4,325.8z"/>
	<path class="st2" d="M285.4,355c-3,0-5.6-2.3-5.7-5.3c0-3,2.3-5.5,5.3-5.7c3.1-0.2,5.7,2.2,5.7,5.3
		C290.9,352.4,288.4,355,285.4,355z"/>
	<path class="st2" d="M254.2,384.5c-3-0.3-5.3-3-5.1-5.9c0.2-3,2.9-5.3,5.9-5.1c3,0.2,5.3,2.8,5.1,5.9
		C259.9,382.5,257.2,384.8,254.2,384.5z"/>
	<path class="st2" d="M8.4,110.6c0,3-2.5,5.4-5.5,5.5c-3,0.1-5.5-2.3-5.6-5.4c-0.1-3,2.3-5.6,5.5-5.7C5.9,105,8.4,107.6,8.4,110.6z"
		/>
	<path class="st2" d="M37.9,112.7c-0.4,3-3.1,5.2-6.1,4.8c-3-0.3-5.2-2.9-4.9-6c0.2-3,3-5.3,6.1-5C36,106.9,38.2,109.7,37.9,112.7z"
		/>
	<path class="st2" d="M66.9,118.1c-0.8,3-3.7,4.8-6.6,4.1c-2.9-0.7-4.8-3.7-4.2-6.6c0.6-3,3.6-4.8,6.6-4.1
		C65.8,112.2,67.7,115.2,66.9,118.1z"/>
	<path class="st2" d="M95.1,127c-1.1,2.9-4.2,4.2-7,3.3c-2.8-1-4.3-4.1-3.4-7c0.9-2.9,4.1-4.4,7.1-3.4
		C94.7,120.8,96.2,124.2,95.1,127z"/>
	<path class="st2" d="M122,139.2c-1.4,2.7-4.7,3.8-7.4,2.4c-2.6-1.4-3.8-4.6-2.5-7.4c1.3-2.8,4.7-4,7.4-2.5
		C122.3,133.2,123.4,136.5,122,139.2z"/>
	<path class="st2" d="M147.3,154.5c-1.7,2.5-5.1,3.1-7.6,1.5c-2.5-1.6-3.2-5-1.6-7.6c1.6-2.6,5-3.3,7.7-1.6
		C148.4,148.4,149,152,147.3,154.5z"/>
	<path class="st2" d="M170.6,172.7c-2,2.3-5.5,2.5-7.7,0.6c-2.2-2-2.7-5.3-0.7-7.7c1.9-2.4,5.5-2.8,7.8-0.7
		C172.3,166.9,172.6,170.4,170.6,172.7z"/>
	<path class="st2" d="M191.6,193.4c-2.3,2-5.7,1.9-7.8-0.3c-2.1-2.2-2-5.6,0.2-7.8c2.2-2.1,5.7-2,7.8,0.2
		C194,187.8,193.9,191.4,191.6,193.4z"/>
	<path class="st2" d="M210,216.6c-2.5,1.7-5.9,1.2-7.7-1.2c-1.7-2.4-1.3-5.8,1.1-7.7c2.4-1.9,6-1.4,7.8,1.1
		C213,211.3,212.5,214.8,210,216.6z"/>
	<path class="st2" d="M225.6,241.7c-2.6,1.4-6.1,0.5-7.5-2.1c-1.5-2.6-0.6-6,2-7.5c2.6-1.6,6-0.6,7.6,2.1
		C229.2,236.8,228.3,240.2,225.6,241.7z"/>
	<path class="st2" d="M238,268.5c-2.8,1.1-6-0.2-7.1-3c-1.2-2.7,0-5.9,2.8-7.2c2.8-1.2,6.1,0,7.3,2.9
		C242.2,264.1,240.8,267.4,238,268.5z"/>
	<path class="st2" d="M247.2,296.5c-2.9,0.8-6-0.9-6.8-3.8c-0.8-2.9,0.9-5.9,3.8-6.9c2.9-0.9,6,0.8,6.8,3.8
		C251.9,292.7,250.2,295.8,247.2,296.5z"/>
	<path class="st2" d="M253,325.5c-3.1,0.4-5.7-1.7-6.3-4.6c-0.5-2.9,1.5-5.8,4.5-6.3c3-0.6,5.9,1.5,6.4,4.6
		C258.2,322.2,256,325.1,253,325.5z"/>
	<path class="st2" d="M255.3,355c-3,0-5.6-2.3-5.7-5.3c0-3,2.1-5.5,5.2-5.8c3-0.2,5.8,2.2,5.8,5.3
		C260.7,352.4,258.3,354.9,255.3,355z"/>
	<path class="st2" d="M223.9,384.3c-3-0.3-5.2-3-5-5.9c0.2-2.9,2.9-5.2,5.9-5c3,0.2,5.3,2.8,5.1,5.9
		C229.8,382.4,227,384.6,223.9,384.3z"/>
	<path class="st2" d="M23,141.4c-0.2,3-2.8,5.3-5.8,5.1c-2.9-0.1-5.3-2.6-5.2-5.7c0.1-3,2.7-5.5,5.8-5.4
		C20.9,135.7,23.2,138.4,23,141.4z"/>
	<path class="st2" d="M52,145.6c-0.6,3-3.5,4.8-6.4,4.4c-2.9-0.5-4.9-3.4-4.4-6.4c0.5-3,3.3-5,6.4-4.5
		C50.7,139.6,52.6,142.6,52,145.6z"/>
	<path class="st2" d="M80.2,153.6c-1,2.9-4.2,4.4-6.9,3.5c-2.8-1-4.3-4-3.5-6.9c0.9-2.9,4-4.6,7-3.5
		C79.7,147.6,81.2,150.7,80.2,153.6z"/>
	<path class="st2" d="M107,165.3c-1.4,2.7-4.7,3.8-7.3,2.5c-2.6-1.3-3.8-4.5-2.6-7.3c1.2-2.8,4.6-4,7.4-2.6
		C107.3,159.3,108.4,162.7,107,165.3z"/>
	<path class="st2" d="M132,180.6c-1.8,2.5-5.1,3.1-7.6,1.5c-2.5-1.6-3.2-5-1.6-7.6c1.6-2.6,5.1-3.3,7.7-1.6
		C133.2,174.6,133.8,178.1,132,180.6z"/>
	<path class="st2" d="M154.8,199c-2.1,2.2-5.5,2.4-7.7,0.5c-2.2-1.9-2.4-5.4-0.5-7.7c1.9-2.3,5.4-2.6,7.8-0.5
		C156.8,193.2,156.9,196.7,154.8,199z"/>
	<path class="st2" d="M175,220.2c-2.4,1.9-5.8,1.7-7.8-0.5c-1.9-2.2-1.7-5.7,0.5-7.8c2.3-2.1,5.7-1.9,7.8,0.5
		C177.6,214.8,177.3,218.3,175,220.2z"/>
	<path class="st2" d="M192.1,244c-2.6,1.6-6,0.9-7.6-1.6c-1.5-2.5-1-5.8,1.5-7.6c2.5-1.7,6.1-1.2,7.7,1.5
		C195.4,239,194.7,242.4,192.1,244z"/>
	<path class="st2" d="M205.9,269.8c-2.8,1.2-6,0.1-7.2-2.6c-1.3-2.6-0.2-5.9,2.5-7.3c2.7-1.4,6.1-0.3,7.5,2.5
		C209.9,265.3,208.7,268.6,205.9,269.8z"/>
	<path class="st2" d="M216.2,297.3c-2.9,0.9-5.9-0.8-6.9-3.5c-0.9-2.8,0.6-5.9,3.5-6.9c2.9-1,6,0.5,7,3.5
		C220.8,293.3,219.1,296.4,216.2,297.3z"/>
	<path class="st2" d="M222.6,325.8c-3,0.5-5.9-1.5-6.4-4.4c-0.5-2.9,1.5-5.8,4.4-6.4c3-0.6,5.9,1.3,6.4,4.4
		C227.7,322.5,225.7,325.4,222.6,325.8z"/>
	<path class="st2" d="M225.2,355c-3,0.1-5.6-2.3-5.7-5.2c-0.1-2.9,2.1-5.5,5.1-5.7c3-0.2,5.7,2.1,5.9,5.2
		C230.6,352.4,228.2,355,225.2,355z"/>
	<path class="st2" d="M193.4,384.6c-3-0.4-5.1-3.1-4.7-6.1c0.1-3,2.7-5.2,5.8-5c3,0.2,5.4,2.9,5.2,6.1
		C199.3,382.8,196.4,385,193.4,384.6z"/>
	<path class="st2" d="M1,171.1c0.1,3-2.3,5.6-5.3,5.8c-3,0.1-5.6-2.2-5.9-5.2c-0.3-3,2.1-5.6,5.3-5.8C-1.7,165.7,0.9,168,1,171.1z"
		/>
	<path class="st2" d="M30.6,172.6c-0.4,3-3.1,5.1-6.1,4.7c-3-0.1-5.2-2.7-5-5.8c0.2-3,2.9-5.4,6.1-5.2
		C28.8,166.7,31,169.6,30.6,172.6z"/>
	<path class="st2" d="M59.6,178.6c-0.9,2.9-3.9,4.7-6.8,4c-2.9-0.7-4.7-3.8-4-6.7c0.7-3,3.7-4.7,6.8-3.9
		C58.7,172.7,60.5,175.7,59.6,178.6z"/>
	<path class="st2" d="M87.3,189.4c-1.3,2.7-4.6,3.9-7.2,2.6c-2.6-1.4-4-4.4-2.9-7.2c1.1-2.8,4.5-4.4,7.3-2.9
		C87.4,183.3,88.6,186.6,87.3,189.4z"/>
	<path class="st2" d="M113.1,204.1c-0.9,1.3-2.1,2-3.5,2.3c-1.4,0.3-2.9,0.1-4.2-0.6c-2.5-1.5-3.3-4.9-1.8-7.5
		c1.6-2.6,5-3.4,7.8-1.7c1.4,0.8,2.2,2.1,2.6,3.4C114.2,201.3,113.9,202.8,113.1,204.1z"/>
	<path class="st2" d="M136,222.8c-2.1,2.2-5.6,2.4-7.8,0.4c-2.2-2-2.4-5.5-0.4-7.9c1.9-2.3,5.4-2.5,7.8-0.4
		C138,217.1,138.2,220.6,136,222.8z"/>
	<path class="st2" d="M155.9,244.9c-2.4,1.8-5.8,1.4-7.6-1c-1.9-2.3-1.7-5.6,0.6-7.7c2.3-2,6-1.8,7.9,0.7
		C158.7,239.5,158.3,243,155.9,244.9z"/>
	<path class="st2" d="M172.3,269.6c-2.7,1.4-6.1,0.6-7.7-2c-1.5-2.5-0.7-5.9,1.9-7.5c2.6-1.6,6-0.7,7.7,2
		C175.8,264.8,174.9,268.2,172.3,269.6z"/>
	<path class="st2" d="M184.2,296.8c-2.9,1-6-0.4-7.1-3.2c-1-2.8,0.4-6,3.2-7.2c2.8-1.2,6,0.2,7.1,3.2
		C188.5,292.6,187,295.8,184.2,296.8z"/>
	<path class="st2" d="M191.9,325.4c-3.1,0.6-5.6-1.4-6.4-4.3c-0.7-2.9,1.1-5.8,4-6.6c2.9-0.7,6,1.1,6.8,4.2
		C197.1,321.9,194.8,324.9,191.9,325.4z"/>
	<path class="st2" d="M194.9,355c-3,0.1-5.6-2.3-5.8-5.3c-0.1-3,2.2-5.6,5.2-5.9c3-0.3,5.6,2.1,5.8,5.3
		C200.3,352.3,198,354.9,194.9,355z"/>
	<path class="st2" d="M163,384.3c-3-0.5-5.1-3.2-4.7-6.1c0.6-2.9,2.9-5.1,6-4.8c3,0.2,5.5,3,4.9,6.1
		C168.9,382.6,166,384.8,163,384.3z"/>
	<path class="st2" d="M15.7,201.4c-0.2,3-2.7,5.4-5.6,5.2c-2.9-0.2-5.3-2.7-5.4-5.7c0-3.1,2.5-5.6,5.6-5.4
		C13.5,195.8,15.9,198.4,15.7,201.4z"/>
	<path class="st2" d="M44.7,205.8c-0.8,2.9-3.7,4.8-6.5,4c-2.8-0.7-4.8-3.3-4.3-6.4c0.5-2.9,3.5-5.2,6.6-4.4
		C43.6,199.9,45.4,202.9,44.7,205.8z"/>
	<path class="st2" d="M72.4,215.6c-1.3,2.8-4.4,3.9-7.1,2.8c-2.7-1-4.1-4.1-3-7c1.1-2.9,4.3-4.3,7.3-3.2
		C72.4,209.4,73.6,212.8,72.4,215.6z"/>
	<path class="st2" d="M97.8,230.2c-1.8,2.5-5,2.9-7.6,1.5c-2.5-1.5-3.2-4.9-1.7-7.5c1.6-2.6,5-3.4,7.7-1.8
		C99,224,99.5,227.8,97.8,230.2z"/>
	<path class="st2" d="M120.1,249.3c-2.2,2.1-5.5,2-7.7,0.1c-2.2-2-2.3-5.4-0.2-7.7c2-2.3,5.6-2.4,7.9-0.3
		C122.4,243.5,122.3,247.2,120.1,249.3z"/>
	<path class="st2" d="M138.5,272.1c-2.5,1.6-5.9,1-7.7-1.3c-1.8-2.3-1.2-5.8,1.2-7.6c2.4-1.9,5.9-1.3,7.8,1.2
		C141.7,266.9,141.1,270.4,138.5,272.1z"/>
	<path class="st2" d="M152.5,297.9c-2.8,1.2-6.1,0-7.4-2.6c-1.3-2.6-0.1-5.9,2.6-7.3c2.7-1.4,6-0.2,7.4,2.6
		C156.5,293.5,155.3,296.7,152.5,297.9z"/>
	<path class="st2" d="M161.3,325.9c-3,0.6-6-1.1-6.7-4c-0.7-2.8,1.1-5.8,4-6.7c2.9-0.9,5.9,0.9,6.7,4
		C166.1,322.3,164.3,325.3,161.3,325.9z"/>
	<path class="st2" d="M164.8,355c-3,0.1-5.6-2.2-5.8-5.1c-0.1-2.9,2.2-5.5,5.2-5.9c3-0.3,5.6,2,5.8,5.1
		C170.2,352.3,167.9,354.9,164.8,355z"/>
	<path class="st2" d="M132.7,383.9c-3-0.6-5.1-3.3-4.6-6.1c0.4-2.8,3.3-4.9,6.3-4.6c3,0.3,5.1,3,4.6,6.1
		C138.5,382.4,135.7,384.5,132.7,383.9z"/>
	<path class="st2" d="M1.1,231.3c0.1,3-2.1,5.6-5,5.8c-2.9,0-5.4-1.9-5.8-5c-0.4-3,1.8-6,5-6C-1.6,225.9,1,228.2,1.1,231.3z"/>
	<path class="st2" d="M29.9,233.3c-0.6,3-3.3,5.1-6.2,4.6c-2.8-0.4-4.9-3.3-4.6-6.3c0.3-3,3-5.1,6.1-4.6
		C28.4,227.5,30.5,230.3,29.9,233.3z"/>
	<path class="st2" d="M57.5,241.8c-0.6,1.4-1.7,2.4-3,2.9c-1.3,0.6-2.7,0.7-4.1,0.2c-2.7-1-4.1-4.1-3.1-7c1-2.9,4.1-4.4,7.1-3.3
		c1.5,0.5,2.6,1.6,3.1,2.9C58.1,238.8,58.1,240.4,57.5,241.8z"/>
	<path class="st2" d="M82.4,256.3c-1.8,2.4-5.2,3-7.4,1.3c-2.4-1.5-3.1-4.8-1.5-7.4c1.6-2.6,5-3.4,7.7-1.8
		C83.7,250.3,84.3,253.8,82.4,256.3z"/>
	<path class="st2" d="M103.6,275.9c-2.3,2-5.8,1.9-7.7-0.2c-1.9-2.1-1.8-5.6,0.3-7.7c2.2-2.2,5.7-2.2,7.8,0.1
		C106.1,270.4,105.9,273.9,103.6,275.9z"/>
	<path class="st2" d="M120,299.7c-2.6,1.4-5.9,0.5-7.5-1.9c-1.5-2.4-0.6-5.8,1.9-7.4c2.5-1.7,5.9-0.8,7.6,1.8
		C123.7,294.9,122.7,298.2,120,299.7z"/>
	<path class="st2" d="M130.4,326.6c-3,0.8-5.9-0.9-6.7-3.6c-1-2.7,0.5-5.7,3.4-6.7c2.9-1.1,6.1,0.5,7.1,3.4
		C135.2,322.7,133.4,325.8,130.4,326.6z"/>
	<path class="st2" d="M134.7,355.1c-3,0.1-5.6-2.1-5.8-5c0-2.9,1.9-5.4,5-5.8c3-0.4,6,1.8,6,4.9C140.1,352.4,137.8,355,134.7,355.1z
		"/>
	<path class="st2" d="M101.7,384.3c-3-0.8-4.7-3.6-4.1-6.4c0.4-2.8,3.2-4.8,6.3-4.4c3,0.4,5.1,3.3,4.6,6.5
		C107.8,383.1,104.6,385.1,101.7,384.3z"/>
	<path class="st2" d="M8.4,261.3c-0.1,3-2.5,5.3-5.4,5.6c-2.9,0.1-5.4-2.2-5.7-5.2c-0.3-3,2.1-5.6,5.4-5.8
		C5.9,255.5,8.5,258.2,8.4,261.3z"/>
	<path class="st2" d="M37.4,266.3c-1,2.9-4,4.4-6.8,3.7c-2.8-0.7-4.5-3.7-3.9-6.7c0.6-3,3.7-4.8,6.8-3.9
		C36.7,260.1,38.4,263.4,37.4,266.3z"/>
	<path class="st2" d="M63.6,279.7c-1.8,2.5-5,2.9-7.5,1.6c-2.4-1.5-3.2-4.9-1.8-7.5c1.5-2.7,4.9-3.5,7.7-1.8
		C64.8,273.6,65.4,277.3,63.6,279.7z"/>
	<path class="st2" d="M84.7,300.3c-2.5,1.9-5.7,1.3-7.6-0.8c-1.9-2.1-1.7-5.6,0.5-7.7c2.2-2.1,5.7-1.9,7.9,0.5
		C87.6,294.8,87.1,298.5,84.7,300.3z"/>
	<path class="st2" d="M98.8,326.1c-2.9,1-5.9-0.4-7-3c-1.2-2.6,0-5.8,2.7-7.2c2.7-1.4,6.1-0.1,7.5,2.8
		C103.1,321.8,101.6,325.1,98.8,326.1z"/>
	<path class="st2" d="M104.6,355c-3.1,0.1-5.6-2.1-5.8-5c-0.4-2.8,1.7-5.5,4.7-6.1c3-0.5,5.8,1.7,6.3,4.9
		C110,352.1,107.6,354.9,104.6,355z"/>
	<path class="st2" d="M70.6,383.4c-2.9-1.1-4.2-4-3.7-6.6c0.7-2.6,3.7-4.3,6.6-3.8c3.1,0.5,4.9,3.5,4.1,6.7
		C76.8,382.9,73.3,384.5,70.6,383.4z"/>
	<path class="st2" d="M22.5,293.3c-0.8,3-3.5,4.7-6.2,4.4c-2.7-0.4-4.7-3.2-4.4-6.1c0.2-3.1,3-5.3,6.2-4.7
		C21.4,287.2,23.3,290.4,22.5,293.3z"/>
	<path class="st2" d="M48.2,305.8c-1.9,2.4-5.2,2.9-7.4,1.4c-2.3-1.4-3-4.7-1.6-7.4c1.4-2.7,4.9-3.5,7.7-1.8
		C49.6,299.9,50.1,303.5,48.2,305.8z"/>
	<path class="st2" d="M66.7,327.6c-2.6,1.4-6,0.7-7.4-1.7c-1.4-2.3-0.9-5.5,1.6-7.4c2.3-1.8,6.1-1.4,7.7,1.4
		C70.2,322.8,69.4,326.2,66.7,327.6z"/>
	<path class="st2" d="M74.5,355.1c-3,0.2-5.6-1.9-6.1-4.5c-0.2-1.3,0.2-2.7,1.1-3.8c0.7-1.1,1.9-2,3.4-2.3c1.5-0.3,3-0.1,4.2,0.7
		c1.2,0.8,2,2.2,2.2,3.7C80,352.2,77.6,354.9,74.5,355.1z"/>
	<path class="st2" d="M36.7,383.4c-2.4-1.9-3-5.1-1.7-7.4c0.6-1.2,1.7-2,3-2.5c1.2-0.5,2.7-0.6,4.2,0c1.4,0.5,2.5,1.6,3,3.1
		c0.4,1.4,0.3,3.2-0.5,4.8C42.8,384.6,39.1,385.3,36.7,383.4z"/>
	<path class="st2" d="M11.1,398.3c-0.3-3.1,1.5-5.7,4-6.5c2.5-0.7,5.5,0.6,6.9,3.3c1.4,2.8-0.3,6.2-3.8,7.3
		C14.7,403.4,11.4,401.3,11.1,398.3z"/>
	<path class="st2" d="M0.9,321.7c0.3,3.1-1.5,5.7-4,6.5c-2.5,0.7-5.5-0.6-6.8-3.3c-1.4-2.8,0.3-6.2,3.8-7.3
		C-2.7,316.6,0.6,318.7,0.9,321.7z"/>
	<path class="st2" d="M29.4,329.3c-1.9,2.4-5.1,3-7.4,1.7c-1.2-0.6-2-1.7-2.5-3c-0.5-1.2-0.6-2.7,0-4.2c0.5-1.4,1.6-2.5,3.1-3
		c1.4-0.4,3.2-0.3,4.8,0.5C30.6,323.2,31.3,326.9,29.4,329.3z"/>
	<path class="st2" d="M44.3,354.9c-3.1,0.3-5.7-1.5-6.5-4c-0.7-2.5,0.6-5.5,3.3-6.9c2.8-1.4,6.2,0.3,7.3,3.8
		C49.4,351.3,47.3,354.6,44.3,354.9z"/>
</g>
</svg>
