<?xml version="1.0" encoding="UTF-8" ?>
<!DOCTYPE svg PUBLIC "-//W3C//DTD SVG 1.1//EN" "http://www.w3.org/Graphics/SVG/1.1/DTD/svg11.dtd">
<svg width="512pt" height="512pt" viewBox="0 0 512 512" version="1.1" xmlns="http://www.w3.org/2000/svg">
<g id="#000000ff">
<path fill="#000000" opacity="1.00" d=" M 99.92 0.00 L 104.44 0.00 C 112.01 0.27 119.50 2.26 126.20 5.81 C 131.76 8.62 136.41 12.84 141.05 16.93 C 158.30 33.71 175.06 50.99 192.12 67.95 C 199.25 75.13 206.70 82.07 212.75 90.22 C 221.06 101.94 224.49 117.40 220.18 131.30 C 217.49 141.30 211.06 149.64 204.06 157.05 C 191.73 169.66 179.39 182.26 166.42 194.21 C 180.07 224.90 201.81 251.07 224.72 275.27 C 245.71 297.22 269.07 317.00 294.74 333.28 C 302.06 337.50 309.55 341.42 317.04 345.33 C 325.26 337.12 333.46 328.90 341.68 320.69 C 349.24 313.23 356.43 305.29 365.11 299.08 C 373.30 293.58 383.07 290.20 392.99 290.32 C 403.36 290.29 413.55 294.08 421.84 300.22 C 426.22 303.41 429.98 307.33 433.81 311.15 C 453.81 331.17 473.87 351.15 493.85 371.19 C 502.41 379.74 508.93 390.74 510.55 402.87 C 512.44 416.03 508.17 429.64 500.16 440.10 C 488.78 454.60 474.05 466.02 462.00 479.94 C 452.44 491.02 440.79 500.62 427.02 505.91 C 416.71 510.05 405.59 511.71 394.54 512.00 L 390.63 512.00 C 366.50 510.91 342.78 505.23 320.18 496.85 C 291.69 486.21 264.64 472.07 238.61 456.42 C 210.96 439.42 184.78 420.01 160.59 398.36 C 130.25 371.29 103.09 340.73 79.06 307.95 C 60.33 282.46 43.68 255.37 30.25 226.70 C 17.45 198.69 6.01 169.53 2.17 138.77 C 0.09 120.04 0.13 100.33 7.67 82.71 C 11.91 72.41 18.59 63.26 26.45 55.41 C 38.92 42.90 51.43 30.43 63.90 17.93 C 73.68 8.45 86.09 1.06 99.92 0.00 M 98.44 26.59 C 91.66 28.08 86.04 32.51 81.28 37.36 C 69.15 49.55 56.94 61.67 44.82 73.87 C 41.20 77.94 37.40 81.94 34.85 86.81 C 25.82 101.84 26.09 120.27 28.14 137.13 C 31.57 160.66 39.71 183.20 48.98 204.99 C 63.66 238.78 83.06 270.36 105.31 299.67 C 153.09 363.69 215.01 417.46 286.42 453.55 C 316.66 469.11 348.91 482.37 383.05 485.63 C 395.93 487.17 409.51 486.15 421.28 480.33 C 429.31 476.52 435.99 470.46 441.84 463.86 C 452.57 451.64 464.80 440.86 475.94 429.02 C 480.94 423.58 485.11 416.67 484.90 409.04 C 484.81 401.52 480.44 394.89 475.33 389.72 C 455.69 370.01 435.94 350.40 416.26 330.72 C 410.75 325.19 405.16 318.78 397.12 317.20 C 388.39 315.08 379.78 319.75 373.74 325.74 C 360.15 339.13 346.75 352.72 333.19 366.16 C 328.47 370.88 321.60 373.60 314.91 372.58 C 307.49 371.29 301.38 366.48 294.73 363.26 C 283.58 357.92 273.36 350.92 263.32 343.76 C 232.32 321.57 204.94 294.61 180.77 265.19 C 166.40 247.34 153.11 228.37 143.77 207.35 C 141.17 202.30 139.09 196.76 139.53 190.99 C 139.77 184.41 144.33 179.11 148.96 174.90 C 161.82 163.11 174.02 150.66 186.21 138.19 C 191.71 132.54 196.53 125.10 195.68 116.87 C 194.91 108.62 189.20 102.07 183.55 96.50 C 162.80 75.93 142.45 54.96 121.51 34.57 C 115.55 28.66 106.95 24.53 98.44 26.59 Z" />
</g>
</svg>
