<?xml version="1.0" encoding="UTF-8" ?>
<!DOCTYPE svg PUBLIC "-//W3C//DTD SVG 1.1//EN" "http://www.w3.org/Graphics/SVG/1.1/DTD/svg11.dtd">
<svg width="512pt" height="512pt" viewBox="0 0 512 512" version="1.1" xmlns="http://www.w3.org/2000/svg">
<g id="#000000ff">
<path fill="#000000" opacity="1.00" d=" M 251.41 0.00 L 257.72 0.00 C 297.86 0.24 337.96 9.90 373.55 28.52 C 384.60 34.21 395.14 40.83 405.28 48.01 C 413.85 41.91 424.65 38.94 435.13 40.34 C 450.99 42.11 465.14 53.81 469.91 69.03 C 474.16 81.62 471.71 95.99 463.98 106.73 C 487.98 140.06 503.88 179.21 509.46 219.91 C 511.01 230.65 511.71 241.49 512.00 252.33 L 512.00 262.58 C 510.87 300.09 501.85 337.41 484.87 370.93 C 455.95 428.59 404.52 474.63 343.82 496.60 C 317.81 506.18 290.20 511.08 262.53 512.00 L 251.43 512.00 C 211.81 511.22 172.33 501.41 137.28 482.86 C 126.66 477.31 116.50 470.91 106.72 463.99 C 98.41 469.86 88.05 472.88 77.88 471.76 C 63.97 470.52 51.10 461.72 44.74 449.31 C 37.39 435.54 38.82 417.85 48.01 405.27 C 26.01 374.66 10.74 339.18 4.12 302.04 C 1.56 288.06 0.31 273.86 0.00 259.66 L 0.00 252.33 C 0.66 205.30 14.46 158.50 39.82 118.86 C 42.22 115.36 44.13 110.84 48.53 109.49 C 53.63 107.66 59.75 110.83 61.20 116.05 C 62.42 119.52 61.03 123.17 59.04 126.05 C 51.05 138.01 44.32 150.79 38.61 163.99 C 71.46 164.00 104.31 164.01 137.16 163.99 C 141.31 146.70 157.20 133.24 174.95 132.06 C 179.27 110.20 184.67 88.47 192.58 67.61 C 198.54 51.99 205.82 36.70 216.02 23.37 C 181.81 29.16 148.98 42.73 120.61 62.68 C 116.33 66.11 109.41 65.35 106.27 60.77 C 103.13 56.71 103.91 50.27 108.03 47.17 C 149.54 17.31 200.34 0.94 251.41 0.00 M 231.30 36.33 C 220.95 49.96 214.17 65.91 208.54 81.96 C 202.52 99.39 198.24 117.35 194.68 135.42 C 206.52 140.66 215.66 151.41 218.80 163.99 C 253.20 164.01 287.60 164.00 322.00 163.99 C 317.02 129.08 309.71 94.07 295.33 61.70 C 289.64 49.44 283.00 37.20 273.01 27.89 C 267.45 22.75 259.80 18.64 252.03 20.47 C 243.28 22.65 236.69 29.46 231.30 36.33 M 296.12 23.42 C 310.06 41.89 318.71 63.69 325.60 85.61 C 333.51 111.16 338.60 137.51 342.17 163.99 C 385.93 164.01 429.68 164.01 473.43 163.99 C 466.85 148.37 458.41 133.58 448.74 119.67 C 439.50 123.96 428.79 125.29 418.93 122.48 C 405.53 118.91 394.31 108.22 390.10 95.00 C 386.62 84.66 387.68 73.11 392.34 63.31 C 363.75 43.11 330.70 29.11 296.12 23.42 M 425.37 60.49 C 416.57 62.29 409.37 69.99 408.23 78.91 C 407.01 86.84 410.62 95.23 417.18 99.83 C 423.34 104.38 431.94 105.27 438.90 102.09 C 446.04 98.99 451.22 91.84 451.88 84.08 C 452.63 76.92 449.54 69.53 443.95 65.02 C 438.87 60.77 431.83 59.08 425.37 60.49 M 173.39 152.49 C 164.25 154.34 156.85 162.57 156.11 171.89 C 155.25 179.78 159.15 187.90 165.76 192.25 C 172.10 196.60 180.78 197.20 187.65 193.74 C 194.39 190.49 199.22 183.60 199.87 176.13 C 200.61 169.21 197.76 162.07 192.52 157.51 C 187.41 152.93 180.09 151.03 173.39 152.49 M 31.18 184.01 C 16.34 230.48 16.29 281.52 31.13 327.99 C 76.58 328.01 122.04 328.00 167.49 328.00 C 163.82 290.14 163.12 252.01 165.17 214.03 C 151.52 209.63 140.58 197.96 137.18 184.01 C 101.85 183.99 66.51 183.99 31.18 184.01 M 185.15 215.40 C 183.09 252.89 183.91 290.53 187.54 327.90 C 222.55 328.08 257.57 328.03 292.59 327.93 C 296.35 311.81 310.51 298.92 326.84 296.48 C 328.86 259.00 328.14 221.36 324.40 184.00 C 289.20 184.02 253.99 183.96 218.79 184.03 C 214.96 199.90 201.26 212.70 185.15 215.40 M 344.51 184.00 C 348.15 221.94 348.90 260.13 346.80 298.19 C 360.17 302.73 370.78 314.27 374.15 327.99 C 409.69 328.00 445.23 328.01 480.76 327.98 C 495.66 281.53 495.69 230.49 480.88 184.01 C 435.43 183.98 389.97 184.01 344.51 184.00 M 327.55 316.77 C 318.56 319.12 311.63 327.67 311.36 336.98 C 310.87 345.18 315.50 353.32 322.69 357.23 C 329.19 360.92 337.60 360.88 344.08 357.16 C 350.63 353.55 355.05 346.39 355.29 338.91 C 355.68 331.33 351.76 323.73 345.39 319.62 C 340.22 316.16 333.54 315.13 327.55 316.77 M 38.56 348.01 C 45.15 363.64 53.59 378.44 63.29 392.34 C 73.09 387.69 84.64 386.61 94.97 390.09 C 107.92 394.18 118.44 405.01 122.22 418.05 C 125.31 428.11 124.17 439.22 119.64 448.67 C 148.23 468.88 181.29 482.86 215.87 488.57 C 206.25 475.89 199.19 461.48 193.44 446.70 C 181.26 415.02 174.37 381.56 169.83 348.01 C 126.08 347.99 82.32 348.00 38.56 348.01 M 189.99 348.01 C 194.37 379.26 200.86 410.42 212.27 439.92 C 217.99 454.17 224.72 468.36 234.92 480.00 C 240.36 486.03 247.43 491.79 255.95 491.97 C 263.98 491.89 270.81 486.64 276.10 481.05 C 284.91 471.57 291.08 460.01 296.35 448.27 C 306.30 425.45 312.44 401.19 317.26 376.82 C 305.18 371.70 295.68 360.85 292.56 348.06 C 258.37 347.93 224.18 348.03 189.99 348.01 M 374.14 348.01 C 370.07 365.06 354.55 378.43 337.07 379.86 C 332.87 401.00 327.69 421.99 320.23 442.24 C 314.09 458.56 306.70 474.65 296.01 488.54 C 338.40 481.40 378.59 462.12 410.92 433.84 C 437.84 410.42 459.33 380.84 473.31 348.01 C 440.25 347.99 407.20 347.99 374.14 348.01 M 77.42 408.48 C 68.28 410.32 60.88 418.54 60.12 427.85 C 59.24 435.74 63.12 443.86 69.73 448.23 C 76.08 452.60 84.79 453.21 91.68 449.73 C 98.43 446.47 103.24 439.55 103.88 432.07 C 104.60 425.16 101.74 418.05 96.52 413.50 C 91.42 408.93 84.11 407.03 77.42 408.48 Z" />
<path fill="#000000" opacity="1.00" d=" M 78.19 74.26 C 85.47 72.52 92.39 80.67 89.39 87.57 C 87.14 94.50 76.99 96.27 72.51 90.56 C 67.43 85.19 70.90 75.33 78.19 74.26 Z" />
</g>
</svg>
