<?xml version="1.0" encoding="UTF-8" ?>
<!DOCTYPE svg PUBLIC "-//W3C//DTD SVG 1.1//EN" "http://www.w3.org/Graphics/SVG/1.1/DTD/svg11.dtd">
<svg width="512pt" height="512pt" viewBox="0 0 512 512" version="1.1" xmlns="http://www.w3.org/2000/svg">
<g id="#000000ff">
<path fill="#000000" opacity="1.00" d=" M 253.31 34.47 C 258.54 33.86 263.85 35.13 268.40 37.72 C 332.87 73.53 397.34 109.35 461.81 145.16 C 464.56 146.71 467.40 148.14 469.99 149.96 C 475.78 154.05 479.54 160.87 479.90 167.95 C 480.14 172.30 479.94 176.65 480.00 181.01 C 479.99 272.70 480.03 364.40 479.98 456.10 C 480.25 468.89 468.77 480.34 455.96 479.98 C 326.31 480.02 196.66 479.99 67.00 480.00 C 62.66 479.93 58.31 480.17 53.97 479.86 C 44.92 479.27 36.64 472.91 33.54 464.43 C 31.69 459.83 31.99 454.79 32.00 449.94 C 32.01 356.64 31.99 263.34 32.00 170.04 C 31.90 163.70 34.29 157.34 38.73 152.79 C 41.77 149.57 45.82 147.65 49.62 145.53 C 114.30 109.61 178.97 73.67 243.64 37.74 C 246.63 36.07 249.89 34.83 253.31 34.47 M 249.59 52.69 C 183.87 89.31 118.05 125.76 52.31 162.35 C 49.14 163.94 47.71 167.55 47.99 170.96 C 48.01 263.31 47.99 355.66 48.00 448.01 C 48.04 451.33 47.76 454.69 48.28 457.99 C 49.07 461.41 52.40 464.00 55.91 463.94 C 69.27 464.09 82.64 463.95 96.00 464.00 C 96.00 386.32 96.00 308.65 96.00 230.97 C 96.01 227.97 95.80 224.94 96.29 221.97 C 97.16 218.12 101.14 215.65 104.98 216.00 C 204.00 215.99 303.02 216.01 402.04 215.99 C 405.94 216.12 410.65 215.19 413.65 218.36 C 416.81 221.39 415.87 226.10 416.01 230.03 C 415.99 308.02 416.01 386.01 416.00 464.00 C 429.37 463.95 442.74 464.09 456.10 463.94 C 460.79 464.07 464.50 459.52 464.00 454.97 C 463.98 359.99 464.03 265.00 463.97 170.02 C 464.21 166.55 462.06 163.37 458.99 161.91 C 392.80 125.13 326.63 88.31 260.40 51.61 C 256.96 49.32 252.75 50.56 249.59 52.69 M 112.00 232.00 C 112.00 240.00 112.00 248.00 112.00 256.00 C 208.00 256.00 304.00 256.00 400.00 256.00 C 400.00 248.00 400.00 240.00 400.00 232.00 C 304.00 232.00 208.00 232.00 112.00 232.00 M 112.00 272.00 C 112.00 280.00 112.00 288.00 112.00 296.00 C 208.00 296.00 304.00 296.00 400.00 296.00 C 400.00 288.00 400.00 280.00 400.00 272.00 C 304.00 272.00 208.00 272.00 112.00 272.00 M 112.00 312.00 C 112.00 320.00 112.00 328.00 112.00 336.00 C 208.00 336.00 304.00 336.00 400.00 336.00 C 400.00 328.00 400.00 320.00 400.00 312.00 C 304.00 312.00 208.00 312.00 112.00 312.00 M 112.00 352.00 C 112.00 360.00 112.00 368.00 112.00 376.00 C 208.00 376.00 304.00 376.00 400.00 376.00 C 400.00 368.00 400.00 360.00 400.00 352.00 C 304.00 352.00 208.00 352.00 112.00 352.00 M 112.00 392.00 C 112.00 400.00 112.00 408.00 112.00 416.00 C 208.00 416.00 304.00 416.00 400.00 416.00 C 400.00 408.00 400.00 400.00 400.00 392.00 C 304.00 392.00 208.00 392.00 112.00 392.00 M 112.00 432.00 C 112.00 442.67 112.00 453.33 112.00 464.00 C 208.00 464.00 304.00 464.00 400.00 464.00 C 400.00 453.33 400.00 442.67 400.00 432.00 C 304.00 432.00 208.00 432.00 112.00 432.00 Z" />
</g>
</svg>
