<?xml version="1.0" encoding="UTF-8" ?>
<!DOCTYPE svg PUBLIC "-//W3C//DTD SVG 1.1//EN" "http://www.w3.org/Graphics/SVG/1.1/DTD/svg11.dtd">
<svg width="512pt" height="512pt" viewBox="0 0 512 512" version="1.1" xmlns="http://www.w3.org/2000/svg">
<g id="#000000ff">
<path fill="#000000" opacity="1.00" d=" M 495.65 0.00 L 497.46 0.00 C 505.44 0.31 512.12 7.37 512.00 15.36 L 512.00 16.27 C 511.54 18.31 510.97 20.31 510.25 22.27 C 447.30 179.65 384.34 337.02 321.39 494.40 C 319.53 498.73 318.31 503.52 315.14 507.13 C 312.66 509.98 309.00 511.38 305.37 512.00 L 303.53 512.00 C 297.82 511.58 292.63 507.97 290.34 502.71 C 259.71 439.65 229.14 376.54 198.52 313.47 C 135.45 282.85 72.34 252.29 9.27 221.65 C 4.02 219.35 0.44 214.16 0.00 208.46 L 0.00 206.74 C 0.59 200.74 4.73 195.50 10.41 193.50 C 169.94 129.64 329.51 65.86 489.04 2.01 C 491.19 1.18 493.40 0.51 495.65 0.00 M 434.15 56.31 C 307.73 106.83 181.36 157.45 54.94 207.97 C 54.10 208.38 53.27 208.83 52.47 209.31 C 103.88 234.22 155.27 259.18 206.69 284.08 C 271.45 219.35 336.18 154.59 400.93 89.85 C 411.95 78.62 423.42 67.80 434.15 56.31 M 227.92 305.30 C 252.91 356.78 277.74 408.33 302.89 459.73 C 353.95 332.35 404.90 204.93 455.80 77.50 C 379.76 153.35 303.89 229.38 227.92 305.30 Z" />
</g>
</svg>
