<?xml version="1.0" encoding="UTF-8" ?>
<!DOCTYPE svg PUBLIC "-//W3C//DTD SVG 1.1//EN" "http://www.w3.org/Graphics/SVG/1.1/DTD/svg11.dtd">
<svg width="512pt" height="512pt" viewBox="0 0 512 512" version="1.1" xmlns="http://www.w3.org/2000/svg">
<g id="#000000ff">
<path fill="#000000" opacity="1.00" d=" M 248.73 28.70 C 250.94 23.72 258.51 23.01 262.06 26.87 C 263.72 29.04 264.70 31.62 265.93 34.04 C 272.64 47.63 279.33 61.23 286.06 74.80 C 302.20 77.03 318.30 79.48 334.42 81.77 C 337.15 82.15 340.22 82.57 342.04 84.89 C 344.95 88.08 344.47 93.41 341.24 96.20 C 329.05 108.12 316.80 120.00 304.60 131.91 C 307.46 148.63 310.34 165.35 313.20 182.07 C 314.14 185.81 312.23 190.05 308.60 191.51 C 305.92 192.78 302.88 191.97 300.43 190.59 C 285.63 182.77 270.83 174.94 255.99 167.20 C 240.78 175.26 225.54 183.27 210.27 191.23 C 206.49 193.39 201.23 191.66 199.40 187.74 C 198.24 185.66 198.58 183.23 198.96 181.01 C 201.81 164.65 204.59 148.27 207.40 131.91 C 195.05 119.80 182.60 107.79 170.27 95.66 C 165.99 91.65 168.21 83.55 174.00 82.43 C 191.29 79.74 208.63 77.39 225.94 74.81 C 233.57 59.45 241.09 44.05 248.73 28.70 M 255.62 51.01 C 249.75 62.45 244.27 74.10 238.45 85.56 C 237.23 88.07 234.73 89.77 231.97 90.05 C 219.07 92.06 206.13 93.78 193.22 95.72 C 202.51 104.81 211.87 113.83 221.13 122.94 C 223.41 124.98 224.45 128.14 223.75 131.14 C 221.61 143.94 219.34 156.73 217.19 169.53 C 228.91 163.46 240.55 157.22 252.27 151.14 C 254.83 149.72 257.95 150.06 260.44 151.47 C 271.93 157.43 283.35 163.52 294.82 169.52 C 292.63 156.83 290.46 144.14 288.28 131.46 C 287.79 128.89 288.05 126.01 289.91 124.03 C 299.29 114.39 309.33 105.38 318.64 95.66 C 305.74 93.86 292.85 91.93 279.97 90.04 C 276.93 89.77 274.41 87.67 273.20 84.94 C 268.03 74.43 262.80 63.95 257.69 53.42 C 257.06 52.59 256.95 50.90 255.62 51.01 Z" />
<path fill="#000000" opacity="1.00" d=" M 104.74 92.67 C 106.98 87.70 114.55 87.02 118.09 90.90 C 119.73 93.07 120.70 95.64 121.93 98.04 C 127.00 108.29 132.02 118.56 137.12 128.78 C 150.61 130.70 164.12 132.56 177.57 134.70 C 183.55 135.54 186.17 143.82 181.79 147.96 C 172.16 157.64 162.15 166.95 152.55 176.66 C 154.95 189.80 157.13 202.99 159.38 216.16 C 160.20 219.92 157.92 224.01 154.27 225.24 C 151.76 226.26 148.99 225.50 146.72 224.25 C 135.15 218.17 123.63 212.00 112.03 205.98 C 99.97 212.29 87.95 218.69 75.86 224.92 C 70.68 227.78 63.64 222.94 64.52 217.07 C 66.66 203.54 69.11 190.05 71.42 176.54 C 61.72 166.91 51.79 157.50 42.12 147.85 C 37.87 143.66 40.50 135.53 46.42 134.69 C 59.90 132.65 73.41 130.81 86.89 128.78 C 92.89 116.77 98.74 104.68 104.74 92.67 M 111.63 114.99 C 108.43 121.05 105.56 127.28 102.47 133.40 C 100.98 136.22 99.94 139.36 97.79 141.78 C 95.93 143.77 93.08 144.01 90.56 144.43 C 82.10 145.61 73.66 146.87 65.21 148.09 C 71.75 154.46 78.30 160.83 84.84 167.21 C 86.99 169.16 88.42 172.03 87.84 174.99 C 86.38 184.39 84.60 193.74 83.08 203.13 C 91.40 198.75 99.73 194.36 108.06 190.01 C 110.74 188.46 114.04 188.81 116.65 190.32 C 124.74 194.57 132.84 198.82 140.92 203.08 C 139.38 193.98 137.78 184.90 136.25 175.79 C 135.59 172.85 136.47 169.70 138.73 167.67 C 145.39 161.12 152.13 154.65 158.79 148.10 C 149.53 146.70 140.24 145.47 130.98 144.01 C 127.90 143.75 125.40 141.54 124.19 138.79 C 120.68 131.67 117.14 124.56 113.69 117.41 C 113.08 116.56 112.94 114.97 111.63 114.99 Z" />
<path fill="#000000" opacity="1.00" d=" M 393.92 90.89 C 397.00 87.57 403.02 87.57 406.09 90.91 C 407.73 93.08 408.71 95.65 409.94 98.06 C 415.00 108.30 420.02 118.56 425.12 128.78 C 438.60 130.70 452.09 132.56 465.53 134.69 C 471.53 135.49 474.18 143.80 469.80 147.95 C 460.16 157.60 450.24 166.95 440.57 176.57 C 442.89 189.75 445.15 202.95 447.38 216.15 C 448.20 219.90 445.94 223.99 442.30 225.23 C 439.77 226.27 436.98 225.50 434.70 224.23 C 423.14 218.16 411.62 211.99 400.02 205.98 C 388.21 212.20 376.39 218.39 364.58 224.59 C 360.84 226.91 355.48 225.51 353.44 221.60 C 352.04 219.30 352.49 216.54 352.94 214.04 C 355.15 201.56 357.19 189.04 359.42 176.56 C 350.87 168.09 342.21 159.72 333.58 151.32 C 331.44 149.18 328.72 147.16 328.16 144.00 C 327.14 139.57 330.65 134.94 335.13 134.55 C 348.38 132.64 361.64 130.74 374.88 128.78 C 379.98 118.56 385.00 108.30 390.06 98.06 C 391.30 95.65 392.27 93.06 393.92 90.89 M 387.47 139.42 C 386.27 141.92 383.83 143.71 381.06 144.01 C 371.79 145.47 362.48 146.70 353.21 148.09 C 359.76 154.48 366.32 160.85 372.87 167.24 C 375.01 169.18 376.41 172.04 375.84 174.97 C 374.39 184.38 372.60 193.74 371.08 203.13 C 379.40 198.75 387.71 194.37 396.04 190.02 C 398.99 188.26 402.58 189.00 405.38 190.68 C 413.21 194.85 421.08 198.93 428.92 203.09 C 427.37 193.71 425.62 184.36 424.16 174.98 C 423.32 171.17 426.03 168.05 428.67 165.73 C 434.75 159.89 440.76 153.99 446.79 148.10 C 437.53 146.69 428.23 145.47 418.97 144.01 C 416.15 143.74 413.70 141.89 412.50 139.36 C 408.26 130.98 404.21 122.50 400.00 114.11 C 395.78 122.53 391.71 131.02 387.47 139.42 Z" />
<path fill="#000000" opacity="1.00" d=" M 232.54 220.48 C 247.19 214.59 264.06 214.54 278.79 220.20 C 290.95 224.83 301.55 233.32 308.89 244.05 C 318.71 258.23 322.24 276.52 318.56 293.37 C 315.19 309.55 305.12 324.04 291.44 333.25 C 317.81 341.29 341.19 358.75 356.22 381.88 C 365.56 396.11 371.72 412.37 374.39 429.18 C 400.82 406.92 420.92 377.18 431.28 344.19 C 440.12 316.44 442.24 286.60 437.48 257.87 C 436.42 253.54 439.46 248.77 443.91 248.13 C 448.16 247.23 452.61 250.48 453.14 254.77 C 460.28 296.38 453.79 340.21 434.83 377.94 C 420.55 406.55 399.24 431.61 373.26 450.28 C 349.63 467.34 322.16 479.01 293.52 484.37 C 290.33 484.92 286.77 486.06 283.80 484.17 C 279.74 481.96 278.57 476.02 281.49 472.44 C 283.19 469.99 286.28 469.38 289.01 468.89 C 314.21 464.50 338.33 454.52 359.53 440.26 C 357.83 416.41 347.77 393.20 331.15 375.96 C 313.97 357.81 289.97 346.40 265.07 344.40 C 241.06 342.26 216.35 348.65 196.58 362.49 C 171.07 379.96 154.48 409.44 152.47 440.26 C 173.96 454.69 198.44 464.72 223.98 469.05 C 227.43 469.50 230.94 471.49 231.83 475.08 C 233.58 480.34 228.52 486.24 223.05 485.14 C 198.69 481.20 175.07 472.66 153.81 460.11 C 125.71 443.55 101.81 419.94 84.93 392.03 C 60.14 351.37 50.77 301.67 58.85 254.76 C 59.33 251.24 62.37 248.31 65.91 248.04 C 70.11 247.53 74.30 250.87 74.64 255.11 C 74.72 258.38 73.88 261.58 73.52 264.82 C 69.23 298.29 74.30 332.94 88.16 363.71 C 99.40 388.91 116.51 411.39 137.61 429.14 C 141.71 402.20 155.38 376.85 175.68 358.68 C 188.52 347.02 204.02 338.43 220.54 333.25 C 208.75 325.25 199.54 313.41 195.16 299.81 C 189.37 282.28 191.62 262.20 201.50 246.55 C 208.68 234.82 219.75 225.53 232.54 220.48 M 247.53 232.79 C 229.81 235.80 214.52 249.65 209.83 267.00 C 205.50 281.96 209.11 298.92 219.24 310.77 C 228.81 322.34 244.03 328.93 259.02 327.86 C 273.16 327.10 286.68 319.53 294.90 308.03 C 302.18 298.04 305.30 285.16 303.44 272.94 C 301.43 258.84 292.69 245.92 280.42 238.72 C 270.65 232.84 258.74 230.76 247.53 232.79 Z" />
<path fill="#000000" opacity="1.00" d=" M 253.41 472.44 C 257.39 470.96 262.23 473.31 263.53 477.36 C 265.04 481.33 262.71 486.19 258.68 487.51 C 254.68 489.07 249.80 486.71 248.47 482.66 C 246.93 478.64 249.30 473.73 253.41 472.44 Z" />
</g>
</svg>
