<?xml version="1.0" encoding="UTF-8" ?>
<!DOCTYPE svg PUBLIC "-//W3C//DTD SVG 1.1//EN" "http://www.w3.org/Graphics/SVG/1.1/DTD/svg11.dtd">
<svg width="788pt" height="586pt" viewBox="0 0 788 586" version="1.1" xmlns="http://www.w3.org/2000/svg">
<g id="#efcc5eff">
<path fill="#efcc5e" opacity="1.00" d=" M 5.40 1.47 C 9.40 -0.39 14.63 2.56 14.75 7.05 C 15.48 12.25 8.97 16.25 4.64 13.27 C 0.13 10.78 0.63 3.38 5.40 1.47 Z" />
<path fill="#efcc5e" opacity="1.00" d=" M 48.41 1.41 C 53.08 -0.69 58.78 3.73 57.65 8.78 C 56.92 13.70 50.23 16.07 46.65 12.56 C 43.05 9.60 43.99 3.04 48.41 1.41 Z" />
<path fill="#efcc5e" opacity="1.00" d=" M 91.43 1.39 C 95.75 -0.53 101.20 3.17 100.59 7.98 C 100.66 13.06 94.10 16.07 90.16 13.04 C 85.91 10.33 86.67 3.11 91.43 1.39 Z" />
<path fill="#efcc5e" opacity="1.00" d=" M 134.36 1.42 C 138.33 -0.35 143.58 2.58 143.53 7.11 C 144.22 12.14 138.03 16.11 133.74 13.40 C 128.86 11.15 129.30 3.21 134.36 1.42 Z" />
<path fill="#efcc5e" opacity="1.00" d=" M 178.29 1.11 C 183.22 -0.35 188.16 5.18 186.10 9.91 C 184.73 14.24 178.65 15.67 175.39 12.55 C 171.45 9.32 173.16 1.97 178.29 1.11 Z" />
<path fill="#efcc5e" opacity="1.00" d=" M 221.26 1.06 C 225.76 -0.10 230.40 4.22 229.36 8.80 C 228.70 13.72 221.99 16.01 218.43 12.59 C 214.39 9.38 216.09 1.97 221.26 1.06 Z" />
<path fill="#efcc5e" opacity="1.00" d=" M 264.25 1.06 C 268.43 -0.01 272.89 3.69 272.28 8.03 C 272.41 13.00 265.81 16.06 261.94 13.08 C 257.21 10.18 258.67 1.95 264.25 1.06 Z" />
<path fill="#efcc5e" opacity="1.00" d=" M 307.31 1.05 C 311.84 -0.06 316.29 4.36 315.20 8.90 C 314.42 14.03 307.18 16.11 303.79 12.19 C 300.21 8.69 302.30 1.81 307.31 1.05 Z" />
<path fill="#efcc5e" opacity="1.00" d=" M 348.43 1.66 C 352.79 -0.82 358.86 2.98 358.24 8.04 C 358.18 12.98 351.96 16.00 347.96 13.19 C 343.75 10.72 344.05 3.79 348.43 1.66 Z" />
<path fill="#efcc5e" opacity="1.00" d=" M 392.23 1.28 C 396.80 -0.53 402.26 3.83 401.06 8.70 C 400.56 13.64 393.89 15.99 390.29 12.69 C 386.33 9.79 387.55 2.75 392.23 1.28 Z" />
<path fill="#efcc5e" opacity="1.00" d=" M 435.25 1.27 C 439.51 -0.39 444.67 3.33 444.03 7.96 C 444.13 12.87 437.80 16.03 433.86 13.18 C 429.22 10.57 430.10 2.74 435.25 1.27 Z" />
<path fill="#efcc5e" opacity="1.00" d=" M 478.23 1.25 C 482.54 -0.34 487.55 3.38 487.03 7.99 C 487.04 13.25 480.05 16.22 476.17 12.78 C 472.11 9.76 473.42 2.70 478.23 1.25 Z" />
<path fill="#efcc5e" opacity="1.00" d=" M 521.27 1.23 C 526.12 -0.54 531.45 4.57 529.70 9.47 C 528.66 13.92 522.56 15.77 519.17 12.77 C 515.09 9.82 516.27 2.43 521.27 1.23 Z" />
<path fill="#efcc5e" opacity="1.00" d=" M 564.24 1.19 C 568.85 -0.42 573.93 4.04 572.80 8.79 C 572.21 13.33 566.39 15.79 562.67 13.20 C 558.00 10.58 559.02 2.52 564.24 1.19 Z" />
<path fill="#efcc5e" opacity="1.00" d=" M 607.27 1.19 C 611.49 -0.25 616.39 3.45 615.78 7.96 C 615.81 12.83 609.62 16.05 605.65 13.20 C 600.84 10.57 601.91 2.47 607.27 1.19 Z" />
<path fill="#efcc5e" opacity="1.00" d=" M 649.35 1.50 C 653.35 -0.42 658.55 2.55 658.75 7.02 C 659.50 12.20 653.02 16.23 648.68 13.29 C 644.12 10.86 644.57 3.40 649.35 1.50 Z" />
<path fill="#efcc5e" opacity="1.00" d=" M 692.43 1.39 C 697.06 -0.71 702.81 3.77 701.61 8.79 C 700.94 13.74 694.16 16.07 690.62 12.53 C 687.01 9.59 688.02 3.02 692.43 1.39 Z" />
<path fill="#efcc5e" opacity="1.00" d=" M 735.40 1.41 C 739.68 -0.54 745.23 3.13 744.54 7.96 C 744.73 13.06 737.98 16.11 734.08 12.99 C 729.92 10.24 730.69 3.14 735.40 1.41 Z" />
<path fill="#efcc5e" opacity="1.00" d=" M 778.34 1.44 C 782.28 -0.36 787.52 2.58 787.53 7.06 C 788.25 12.08 782.07 16.09 777.78 13.43 C 772.83 11.25 773.29 3.23 778.34 1.44 Z" />
<path fill="#efcc5e" opacity="1.00" d=" M 5.37 45.42 C 9.99 43.07 15.88 47.60 14.70 52.67 C 14.08 57.50 7.82 59.68 4.08 56.84 C 0.12 54.09 0.80 47.15 5.37 45.42 Z" />
<path fill="#efcc5e" opacity="1.00" d=" M 48.40 45.38 C 53.01 43.08 58.81 47.66 57.63 52.68 C 57.00 57.47 50.81 59.69 47.07 56.85 C 43.05 54.11 43.77 47.08 48.40 45.38 Z" />
<path fill="#efcc5e" opacity="1.00" d=" M 92.19 45.07 C 96.74 43.56 101.68 48.13 100.50 52.79 C 99.86 58.02 92.38 59.93 89.08 55.98 C 85.65 52.64 87.58 46.13 92.19 45.07 Z" />
<path fill="#efcc5e" opacity="1.00" d=" M 135.18 45.06 C 139.40 43.72 144.23 47.59 143.53 52.06 C 143.52 57.68 135.51 60.19 132.03 56.03 C 128.64 52.64 130.41 46.04 135.18 45.06 Z" />
<path fill="#efcc5e" opacity="1.00" d=" M 178.17 45.07 C 183.17 43.44 188.20 49.02 186.09 53.84 C 184.64 58.74 177.28 59.54 174.46 55.48 C 171.76 51.92 173.64 45.94 178.17 45.07 Z" />
<path fill="#efcc5e" opacity="1.00" d=" M 220.32 45.26 C 225.05 43.15 230.71 47.98 229.29 52.97 C 228.48 57.51 222.72 59.53 219.03 57.01 C 214.70 54.36 215.50 46.93 220.32 45.26 Z" />
<path fill="#efcc5e" opacity="1.00" d=" M 263.22 45.28 C 267.54 43.34 272.95 47.19 272.28 51.94 C 272.40 57.29 265.15 60.07 261.39 56.55 C 257.56 53.62 258.71 46.91 263.22 45.28 Z" />
<path fill="#efcc5e" opacity="1.00" d=" M 306.30 45.26 C 310.52 43.43 315.78 47.16 315.29 51.79 C 315.47 57.17 308.26 60.05 304.39 56.64 C 300.50 53.69 301.60 46.73 306.30 45.26 Z" />
<path fill="#efcc5e" opacity="1.00" d=" M 349.37 45.20 C 354.37 43.13 359.94 48.70 357.88 53.70 C 356.57 58.30 350.02 59.54 346.83 56.19 C 343.45 53.00 344.84 46.52 349.37 45.20 Z" />
<path fill="#efcc5e" opacity="1.00" d=" M 392.16 45.23 C 396.78 43.25 402.26 47.86 401.06 52.73 C 400.45 57.30 394.72 59.55 390.96 57.12 C 386.42 54.57 387.15 46.81 392.16 45.23 Z" />
<path fill="#efcc5e" opacity="1.00" d=" M 435.27 45.19 C 439.60 43.47 444.72 47.39 444.03 52.04 C 444.09 57.53 436.33 60.16 432.78 56.22 C 429.20 53.08 430.74 46.53 435.27 45.19 Z" />
<path fill="#efcc5e" opacity="1.00" d=" M 478.26 45.20 C 482.80 43.39 488.08 47.90 486.94 52.69 C 486.35 58.13 478.50 59.97 475.26 55.80 C 472.30 52.45 473.87 46.39 478.26 45.20 Z" />
<path fill="#efcc5e" opacity="1.00" d=" M 521.33 45.13 C 526.49 43.16 531.97 49.29 529.42 54.19 C 527.66 58.90 520.45 59.41 517.82 55.28 C 515.30 51.82 517.13 46.24 521.33 45.13 Z" />
<path fill="#efcc5e" opacity="1.00" d=" M 563.43 45.41 C 568.05 43.05 574.05 47.58 572.79 52.68 C 572.25 57.76 565.13 59.92 561.67 56.32 C 558.32 53.34 559.28 47.19 563.43 45.41 Z" />
<path fill="#efcc5e" opacity="1.00" d=" M 606.40 45.41 C 610.77 43.20 616.51 47.11 615.78 52.02 C 615.81 57.41 608.27 60.14 604.67 56.34 C 601.15 53.41 602.19 47.13 606.40 45.41 Z" />
<path fill="#efcc5e" opacity="1.00" d=" M 649.39 45.42 C 653.72 43.24 659.37 47.11 658.78 51.96 C 658.68 56.84 652.71 59.69 648.68 57.22 C 644.11 54.86 644.54 47.21 649.39 45.42 Z" />
<path fill="#efcc5e" opacity="1.00" d=" M 692.39 45.38 C 697.01 43.06 702.83 47.71 701.60 52.71 C 700.94 57.45 694.83 59.68 691.10 56.87 C 687.02 54.19 687.77 47.07 692.39 45.38 Z" />
<path fill="#efcc5e" opacity="1.00" d=" M 736.21 45.06 C 740.44 43.68 745.30 47.63 744.53 52.09 C 744.59 57.74 736.47 60.19 733.05 55.94 C 729.68 52.58 731.54 46.09 736.21 45.06 Z" />
<path fill="#efcc5e" opacity="1.00" d=" M 779.17 45.07 C 783.80 43.57 788.70 48.28 787.44 52.99 C 786.56 58.37 778.50 59.96 775.57 55.45 C 772.71 51.97 774.73 45.99 779.17 45.07 Z" />
<path fill="#efcc5e" opacity="1.00" d=" M 5.36 89.36 C 9.73 87.05 15.51 91.14 14.75 96.03 C 14.52 100.94 8.20 103.87 4.31 100.86 C 0.12 98.21 0.75 91.18 5.36 89.36 Z" />
<path fill="#efcc5e" opacity="1.00" d=" M 49.18 89.00 C 53.79 87.42 58.87 92.04 57.59 96.78 C 56.82 101.67 50.17 103.78 46.61 100.42 C 42.74 97.25 44.32 90.21 49.18 89.00 Z" />
<path fill="#efcc5e" opacity="1.00" d=" M 92.19 89.01 C 96.43 87.59 101.31 91.47 100.56 95.99 C 100.54 101.06 93.98 103.82 90.10 100.86 C 85.66 97.97 86.89 90.11 92.19 89.01 Z" />
<path fill="#efcc5e" opacity="1.00" d=" M 134.29 89.27 C 139.02 86.96 144.82 91.83 143.40 96.88 C 142.66 101.72 136.02 103.74 132.55 100.44 C 128.88 97.50 129.82 90.89 134.29 89.27 Z" />
<path fill="#efcc5e" opacity="1.00" d=" M 177.19 89.29 C 181.53 87.18 187.06 91.08 186.51 95.87 C 186.44 101.12 179.33 104.10 175.55 100.46 C 171.80 97.57 172.77 90.96 177.19 89.29 Z" />
<path fill="#efcc5e" opacity="1.00" d=" M 220.20 89.23 C 224.95 86.97 230.78 91.90 229.26 96.96 C 228.42 102.01 221.31 103.77 217.96 100.07 C 214.79 96.90 216.04 90.90 220.20 89.23 Z" />
<path fill="#efcc5e" opacity="1.00" d=" M 263.31 89.20 C 267.63 87.26 273.14 91.26 272.28 96.03 C 272.28 101.28 265.24 103.93 261.48 100.57 C 257.59 97.65 258.66 90.72 263.31 89.20 Z" />
<path fill="#efcc5e" opacity="1.00" d=" M 306.28 89.17 C 311.04 87.05 316.59 92.05 315.13 97.01 C 314.26 101.65 308.02 103.63 304.49 100.63 C 300.47 97.75 301.55 90.66 306.28 89.17 Z" />
<path fill="#efcc5e" opacity="1.00" d=" M 349.32 89.14 C 353.28 87.51 358.16 90.66 358.24 94.96 C 358.85 99.85 353.06 103.70 348.75 101.44 C 343.46 99.35 343.86 90.74 349.32 89.14 Z" />
<path fill="#efcc5e" opacity="1.00" d=" M 392.27 89.13 C 396.87 87.23 402.24 91.83 401.07 96.67 C 400.40 101.49 393.99 103.73 390.34 100.65 C 386.41 97.68 387.43 90.58 392.27 89.13 Z" />
<path fill="#efcc5e" opacity="1.00" d=" M 434.52 89.36 C 438.90 87.06 444.81 91.02 444.03 95.99 C 444.06 101.15 437.18 103.90 433.36 100.72 C 429.47 97.96 430.21 91.30 434.52 89.36 Z" />
<path fill="#efcc5e" opacity="1.00" d=" M 477.43 89.41 C 481.48 87.24 487.00 90.39 487.03 95.02 C 487.60 100.13 481.24 103.98 476.97 101.12 C 472.47 98.72 472.79 91.45 477.43 89.41 Z" />
<path fill="#efcc5e" opacity="1.00" d=" M 520.39 89.41 C 524.72 87.03 530.62 90.92 529.98 95.88 C 529.85 100.68 523.93 103.72 519.91 101.15 C 515.39 98.79 515.79 91.46 520.39 89.41 Z" />
<path fill="#efcc5e" opacity="1.00" d=" M 563.32 89.44 C 567.21 87.27 572.64 90.22 572.86 94.70 C 573.59 99.28 568.71 103.27 564.34 101.79 C 558.72 100.54 557.98 91.57 563.32 89.44 Z" />
<path fill="#efcc5e" opacity="1.00" d=" M 606.38 89.35 C 610.78 87.03 616.52 91.14 615.78 96.04 C 615.71 101.34 608.38 104.05 604.71 100.36 C 601.16 97.44 602.13 91.07 606.38 89.35 Z" />
<path fill="#efcc5e" opacity="1.00" d=" M 649.37 89.35 C 653.71 87.10 659.47 91.10 658.75 95.97 C 658.57 100.89 652.21 103.88 648.31 100.86 C 644.13 98.22 644.71 91.14 649.37 89.35 Z" />
<path fill="#efcc5e" opacity="1.00" d=" M 693.13 89.02 C 697.77 87.37 702.77 92.02 701.59 96.75 C 700.84 101.65 694.18 103.79 690.62 100.42 C 686.72 97.29 688.31 90.26 693.13 89.02 Z" />
<path fill="#efcc5e" opacity="1.00" d=" M 736.22 89.00 C 740.46 87.60 745.30 91.51 744.53 96.00 C 744.56 101.35 737.31 103.98 733.58 100.45 C 729.64 97.28 731.17 90.04 736.22 89.00 Z" />
<path fill="#efcc5e" opacity="1.00" d=" M 778.25 89.29 C 782.56 87.15 788.11 91.06 787.54 95.83 C 787.59 100.92 781.01 103.89 777.09 100.86 C 772.87 98.23 773.55 91.01 778.25 89.29 Z" />
<path fill="#efcc5e" opacity="1.00" d=" M 5.32 133.26 C 9.77 131.04 15.46 135.08 14.75 140.01 C 14.55 145.25 7.45 147.95 3.72 144.35 C 0.06 141.41 1.11 135.12 5.32 133.26 Z" />
<path fill="#efcc5e" opacity="1.00" d=" M 48.26 133.28 C 53.00 130.84 58.96 135.63 57.59 140.76 C 56.81 145.60 50.18 147.76 46.69 144.35 C 43.13 141.52 43.91 134.91 48.26 133.28 Z" />
<path fill="#efcc5e" opacity="1.00" d=" M 91.33 133.20 C 95.37 131.36 100.67 134.37 100.59 138.97 C 101.26 143.97 95.14 147.77 90.88 145.23 C 85.99 143.05 86.33 135.05 91.33 133.20 Z" />
<path fill="#efcc5e" opacity="1.00" d=" M 134.26 133.21 C 138.30 131.35 143.68 134.43 143.53 139.04 C 144.12 144.34 137.33 148.01 133.12 144.86 C 128.86 142.20 129.56 135.00 134.26 133.21 Z" />
<path fill="#efcc5e" opacity="1.00" d=" M 177.31 133.17 C 182.05 130.98 187.86 135.87 186.34 140.91 C 185.44 145.59 179.11 147.62 175.59 144.47 C 171.76 141.59 172.78 134.77 177.31 133.17 Z" />
<path fill="#efcc5e" opacity="1.00" d=" M 220.19 133.15 C 224.97 130.98 230.78 135.76 229.28 140.86 C 228.44 145.57 221.95 147.73 218.50 144.40 C 214.80 141.51 215.68 134.76 220.19 133.15 Z" />
<path fill="#efcc5e" opacity="1.00" d=" M 263.35 133.08 C 267.31 131.50 272.41 134.49 272.28 138.93 C 273.06 143.89 266.92 147.77 262.69 145.26 C 257.63 143.04 258.04 134.74 263.35 133.08 Z" />
<path fill="#efcc5e" opacity="1.00" d=" M 306.29 133.11 C 310.31 131.44 315.39 134.60 315.29 139.07 C 315.83 144.25 309.36 147.88 305.11 145.02 C 300.50 142.42 301.21 134.74 306.29 133.11 Z" />
<path fill="#efcc5e" opacity="1.00" d=" M 348.46 133.40 C 352.86 130.93 359.02 134.90 358.22 139.97 C 358.04 144.50 352.66 147.41 348.70 145.35 C 343.84 143.34 343.74 135.64 348.46 133.40 Z" />
<path fill="#efcc5e" opacity="1.00" d=" M 391.42 133.40 C 395.21 131.33 400.52 133.82 401.10 138.17 C 402.25 143.21 396.33 147.81 391.75 145.39 C 386.77 143.49 386.66 135.61 391.42 133.40 Z" />
<path fill="#efcc5e" opacity="1.00" d=" M 434.41 133.39 C 438.42 131.16 444.20 134.23 444.04 138.96 C 444.71 144.05 438.32 147.94 434.09 145.07 C 429.58 142.78 429.80 135.45 434.41 133.39 Z" />
<path fill="#efcc5e" opacity="1.00" d=" M 477.39 133.40 C 481.77 130.89 487.78 134.99 487.00 139.99 C 486.83 145.05 480.14 147.84 476.31 144.64 C 472.45 141.91 473.08 135.35 477.39 133.40 Z" />
<path fill="#efcc5e" opacity="1.00" d=" M 520.34 133.36 C 524.73 130.99 530.63 134.87 529.98 139.88 C 529.85 144.46 524.35 147.49 520.37 145.32 C 515.57 143.24 515.48 135.42 520.34 133.36 Z" />
<path fill="#efcc5e" opacity="1.00" d=" M 563.34 133.31 C 567.85 130.97 573.65 135.02 572.90 140.06 C 572.55 144.71 566.74 147.69 562.83 145.05 C 558.36 142.71 558.74 135.28 563.34 133.31 Z" />
<path fill="#efcc5e" opacity="1.00" d=" M 605.60 133.70 C 609.58 130.97 615.93 133.96 615.78 138.96 C 616.36 143.75 610.71 147.64 606.43 145.42 C 601.71 143.56 601.19 136.23 605.60 133.70 Z" />
<path fill="#efcc5e" opacity="1.00" d=" M 649.32 133.26 C 653.76 131.04 659.43 135.05 658.75 139.97 C 658.54 144.93 652.10 147.82 648.22 144.75 C 644.06 142.06 644.86 135.20 649.32 133.26 Z" />
<path fill="#efcc5e" opacity="1.00" d=" M 692.35 133.19 C 697.11 130.93 703.01 135.70 701.54 140.81 C 700.75 145.61 694.19 147.74 690.72 144.38 C 687.07 141.49 687.92 134.85 692.35 133.19 Z" />
<path fill="#efcc5e" opacity="1.00" d=" M 735.31 133.20 C 739.30 131.36 744.72 134.39 744.53 138.98 C 745.29 144.01 739.06 147.78 734.84 145.21 C 729.98 142.97 730.31 135.07 735.31 133.20 Z" />
<path fill="#efcc5e" opacity="1.00" d=" M 778.23 133.22 C 782.26 131.33 787.62 134.40 787.53 139.00 C 788.15 144.30 781.38 148.01 777.16 144.88 C 772.87 142.25 773.53 135.04 778.23 133.22 Z" />
<path fill="#efcc5e" opacity="1.00" d=" M 5.31 177.20 C 9.45 175.27 14.96 178.33 14.78 183.09 C 15.21 188.07 9.13 191.62 4.91 189.10 C 0.16 186.90 0.44 179.09 5.31 177.20 Z" />
<path fill="#efcc5e" opacity="1.00" d=" M 48.22 177.22 C 52.43 175.20 57.83 178.41 57.75 183.15 C 58.03 188.08 52.03 191.68 47.82 189.08 C 43.14 186.84 43.42 179.15 48.22 177.22 Z" />
<path fill="#efcc5e" opacity="1.00" d=" M 91.27 177.12 C 95.33 175.38 100.74 178.30 100.59 182.95 C 101.27 188.22 94.45 191.93 90.29 188.79 C 85.93 186.16 86.62 179.03 91.27 177.12 Z" />
<path fill="#efcc5e" opacity="1.00" d=" M 134.34 177.08 C 138.40 175.44 143.70 178.35 143.54 182.98 C 144.14 188.23 137.51 191.84 133.29 188.86 C 128.83 186.27 129.51 178.85 134.34 177.08 Z" />
<path fill="#efcc5e" opacity="1.00" d=" M 177.36 177.08 C 181.56 175.37 186.70 178.55 186.54 183.22 C 186.81 188.10 180.92 191.59 176.74 189.13 C 171.81 186.93 172.19 178.74 177.36 177.08 Z" />
<path fill="#efcc5e" opacity="1.00" d=" M 220.34 177.09 C 224.81 175.14 230.21 179.21 229.43 184.05 C 229.02 188.51 223.70 191.36 219.75 189.21 C 214.81 187.01 215.09 178.73 220.34 177.09 Z" />
<path fill="#efcc5e" opacity="1.00" d=" M 262.45 177.45 C 266.49 175.06 272.49 178.08 272.29 182.98 C 272.96 188.23 266.31 191.87 262.11 188.87 C 257.97 186.40 258.10 179.63 262.45 177.45 Z" />
<path fill="#efcc5e" opacity="1.00" d=" M 305.39 177.42 C 309.43 175.15 315.37 178.03 315.27 182.90 C 315.91 187.90 309.88 191.58 305.61 189.20 C 300.95 187.11 300.84 179.70 305.39 177.42 Z" />
<path fill="#efcc5e" opacity="1.00" d=" M 348.37 177.42 C 351.81 175.58 356.81 177.14 357.89 181.10 C 359.95 186.07 354.34 191.61 349.39 189.51 C 344.04 188.11 343.40 179.74 348.37 177.42 Z" />
<path fill="#efcc5e" opacity="1.00" d=" M 391.41 177.34 C 395.22 175.32 400.58 177.74 401.10 182.15 C 402.17 187.00 396.76 191.42 392.19 189.53 C 386.95 187.88 386.46 179.68 391.41 177.34 Z" />
<path fill="#efcc5e" opacity="1.00" d=" M 434.37 177.29 C 438.43 175.21 444.19 178.14 444.04 182.94 C 444.74 188.42 437.55 192.04 433.42 188.57 C 429.53 185.82 430.14 179.39 434.37 177.29 Z" />
<path fill="#efcc5e" opacity="1.00" d=" M 477.32 177.32 C 481.43 175.21 487.13 178.17 487.03 182.99 C 487.52 187.85 481.78 191.48 477.52 189.28 C 472.63 187.30 472.51 179.46 477.32 177.32 Z" />
<path fill="#efcc5e" opacity="1.00" d=" M 519.56 177.71 C 523.08 175.41 528.50 176.99 529.67 181.19 C 531.75 186.42 525.49 191.90 520.55 189.32 C 515.88 187.51 515.36 180.32 519.56 177.71 Z" />
<path fill="#efcc5e" opacity="1.00" d=" M 563.35 177.24 C 567.54 175.16 573.20 178.46 572.92 183.29 C 573.18 188.49 566.45 191.90 562.39 188.70 C 558.35 186.04 558.91 179.18 563.35 177.24 Z" />
<path fill="#efcc5e" opacity="1.00" d=" M 606.25 177.22 C 610.28 175.34 615.90 178.14 615.78 182.87 C 616.53 188.28 609.54 191.96 605.32 188.72 C 601.22 186.02 601.82 179.26 606.25 177.22 Z" />
<path fill="#efcc5e" opacity="1.00" d=" M 649.30 177.21 C 653.42 175.28 658.92 178.30 658.78 183.04 C 659.25 188.05 653.14 191.63 648.91 189.10 C 644.17 186.90 644.41 179.07 649.30 177.21 Z" />
<path fill="#efcc5e" opacity="1.00" d=" M 692.25 177.21 C 696.74 175.01 702.40 178.98 701.69 183.95 C 701.39 188.54 695.79 191.48 691.85 189.09 C 687.15 186.88 687.37 179.08 692.25 177.21 Z" />
<path fill="#efcc5e" opacity="1.00" d=" M 735.29 177.11 C 739.71 175.18 745.41 178.91 744.53 183.91 C 744.50 189.09 737.44 191.85 733.75 188.37 C 729.87 185.53 730.90 178.90 735.29 177.11 Z" />
<path fill="#efcc5e" opacity="1.00" d=" M 778.36 177.07 C 782.40 175.45 787.67 178.34 787.54 182.95 C 788.18 188.21 781.45 191.88 777.25 188.84 C 772.79 186.22 773.54 178.82 778.36 177.07 Z" />
<path fill="#efcc5e" opacity="1.00" d=" M 5.21 221.17 C 9.67 218.73 15.59 222.94 14.76 227.95 C 14.44 233.04 7.54 235.74 3.85 232.25 C 0.16 229.44 0.95 222.99 5.21 221.17 Z" />
<path fill="#efcc5e" opacity="1.00" d=" M 48.25 221.13 C 52.74 218.76 58.56 223.06 57.68 228.04 C 57.26 232.84 51.18 235.45 47.30 232.74 C 43.10 230.15 43.68 222.99 48.25 221.13 Z" />
<path fill="#efcc5e" opacity="1.00" d=" M 91.23 221.13 C 95.29 218.97 100.89 222.39 100.57 227.05 C 101.07 232.00 95.10 235.48 90.90 233.10 C 86.14 230.92 86.24 222.97 91.23 221.13 Z" />
<path fill="#efcc5e" opacity="1.00" d=" M 134.29 221.06 C 138.73 218.84 144.43 223.10 143.50 228.01 C 143.30 233.15 136.39 235.63 132.69 232.33 C 128.85 229.48 129.77 222.71 134.29 221.06 Z" />
<path fill="#efcc5e" opacity="1.00" d=" M 176.42 221.46 C 180.53 218.71 186.68 222.07 186.53 227.03 C 186.83 231.90 181.07 235.46 176.82 233.11 C 172.24 231.08 171.99 223.79 176.42 221.46 Z" />
<path fill="#efcc5e" opacity="1.00" d=" M 219.41 221.42 C 223.87 218.51 230.29 222.71 229.45 227.95 C 229.08 232.74 223.06 235.47 219.14 232.80 C 215.08 230.37 215.26 223.67 219.41 221.42 Z" />
<path fill="#efcc5e" opacity="1.00" d=" M 262.45 221.38 C 266.81 218.51 273.27 222.76 272.28 227.91 C 272.16 232.75 266.02 235.43 262.14 232.82 C 257.93 230.46 258.11 223.49 262.45 221.38 Z" />
<path fill="#efcc5e" opacity="1.00" d=" M 305.46 221.27 C 309.93 218.65 316.21 222.82 315.25 228.00 C 315.02 233.04 308.30 235.58 304.56 232.42 C 300.76 229.74 301.35 223.34 305.46 221.27 Z" />
<path fill="#efcc5e" opacity="1.00" d=" M 348.41 221.29 C 352.18 219.11 357.53 221.58 358.14 225.94 C 359.43 231.06 353.38 235.61 348.76 233.21 C 343.86 231.27 343.70 223.56 348.41 221.29 Z" />
<path fill="#efcc5e" opacity="1.00" d=" M 391.43 221.26 C 395.24 219.08 400.70 221.75 401.10 226.18 C 402.21 231.22 396.30 235.51 391.77 233.27 C 386.85 231.31 386.59 223.49 391.43 221.26 Z" />
<path fill="#efcc5e" opacity="1.00" d=" M 434.36 221.30 C 438.38 218.84 444.26 222.24 444.04 226.97 C 444.66 232.11 438.21 235.63 434.02 232.90 C 429.63 230.57 429.78 223.33 434.36 221.30 Z" />
<path fill="#efcc5e" opacity="1.00" d=" M 477.31 221.22 C 481.46 218.91 487.25 222.27 487.03 227.09 C 487.46 232.41 480.51 235.85 476.44 232.53 C 472.47 229.88 473.04 223.26 477.31 221.22 Z" />
<path fill="#efcc5e" opacity="1.00" d=" M 520.29 221.21 C 524.75 218.72 530.81 222.82 529.96 227.90 C 529.64 232.81 523.36 235.52 519.48 232.66 C 515.38 230.11 515.97 223.22 520.29 221.21 Z" />
<path fill="#efcc5e" opacity="1.00" d=" M 563.26 221.22 C 567.99 218.49 574.26 223.47 572.74 228.68 C 571.97 233.28 565.94 235.34 562.34 232.60 C 558.44 229.97 558.86 223.12 563.26 221.22 Z" />
<path fill="#efcc5e" opacity="1.00" d=" M 606.28 221.20 C 610.70 218.70 616.60 222.94 615.78 227.92 C 615.63 233.14 608.57 235.68 604.86 232.26 C 601.22 229.41 602.00 222.98 606.28 221.20 Z" />
<path fill="#efcc5e" opacity="1.00" d=" M 649.20 221.17 C 653.61 218.74 659.59 222.90 658.73 227.91 C 658.44 232.73 652.21 235.55 648.36 232.67 C 644.21 230.09 644.67 223.10 649.20 221.17 Z" />
<path fill="#efcc5e" opacity="1.00" d=" M 692.20 221.15 C 696.99 218.54 703.12 223.65 701.52 228.82 C 700.57 233.49 694.26 235.38 690.73 232.33 C 687.10 229.46 687.91 222.96 692.20 221.15 Z" />
<path fill="#efcc5e" opacity="1.00" d=" M 735.27 221.09 C 739.65 218.80 745.47 222.96 744.53 227.89 C 744.45 233.12 737.45 235.65 733.71 232.34 C 730.00 229.45 730.80 222.77 735.27 221.09 Z" />
<path fill="#efcc5e" opacity="1.00" d=" M 777.42 221.46 C 781.51 218.72 787.78 222.04 787.53 227.03 C 788.00 232.01 782.08 235.47 777.85 233.09 C 773.32 231.01 773.04 223.85 777.42 221.46 Z" />
<path fill="#efcc5e" opacity="1.00" d=" M 5.22 265.09 C 9.70 262.68 15.62 266.93 14.73 271.94 C 14.42 277.03 7.55 279.68 3.85 276.22 C 0.12 273.41 0.98 266.94 5.22 265.09 Z" />
<path fill="#efcc5e" opacity="1.00" d=" M 48.25 265.06 C 52.76 262.71 58.56 266.97 57.70 271.95 C 57.35 277.00 50.55 279.63 46.85 276.25 C 43.13 273.47 43.84 266.76 48.25 265.06 Z" />
<path fill="#efcc5e" opacity="1.00" d=" M 90.45 265.43 C 94.59 262.63 100.89 265.97 100.60 271.04 C 101.07 276.18 94.48 279.65 90.37 276.71 C 86.32 274.36 86.43 267.75 90.45 265.43 Z" />
<path fill="#efcc5e" opacity="1.00" d=" M 133.39 265.42 C 137.51 262.67 143.93 265.95 143.53 271.07 C 143.89 275.87 138.07 279.41 133.92 277.07 C 129.31 275.05 129.07 267.89 133.39 265.42 Z" />
<path fill="#efcc5e" opacity="1.00" d=" M 176.46 265.39 C 180.54 262.66 186.68 266.04 186.53 270.96 C 186.91 276.11 180.40 279.69 176.23 276.73 C 172.16 274.29 172.26 267.65 176.46 265.39 Z" />
<path fill="#efcc5e" opacity="1.00" d=" M 219.54 265.23 C 223.41 263.04 228.99 265.61 229.41 270.16 C 230.36 275.23 224.45 279.56 219.91 277.12 C 215.11 275.14 214.91 267.50 219.54 265.23 Z" />
<path fill="#efcc5e" opacity="1.00" d=" M 262.39 265.30 C 266.48 262.78 272.67 265.98 272.29 270.97 C 272.95 276.39 265.68 279.82 261.67 276.41 C 257.96 273.74 258.32 267.44 262.39 265.30 Z" />
<path fill="#efcc5e" opacity="1.00" d=" M 305.38 265.29 C 309.52 262.75 315.57 266.11 315.28 271.04 C 315.63 275.77 309.96 279.36 305.80 277.13 C 301.00 275.16 300.73 267.60 305.38 265.29 Z" />
<path fill="#efcc5e" opacity="1.00" d=" M 348.31 265.28 C 352.80 262.46 359.18 266.76 358.19 271.97 C 357.82 276.89 351.37 279.55 347.59 276.45 C 343.81 273.79 344.19 267.42 348.31 265.28 Z" />
<path fill="#efcc5e" opacity="1.00" d=" M 391.31 265.22 C 395.87 262.56 402.11 266.80 401.14 272.04 C 400.67 276.37 395.60 279.12 391.72 277.14 C 386.83 275.26 386.65 267.47 391.31 265.22 Z" />
<path fill="#efcc5e" opacity="1.00" d=" M 434.30 265.22 C 438.37 262.82 444.41 266.11 444.04 270.98 C 444.55 275.69 438.90 279.24 434.75 277.21 C 429.76 275.34 429.47 267.47 434.30 265.22 Z" />
<path fill="#efcc5e" opacity="1.00" d=" M 477.36 265.15 C 481.82 262.60 487.96 266.92 486.97 271.99 C 486.61 276.53 480.98 279.32 477.13 276.92 C 472.55 274.63 472.69 267.27 477.36 265.15 Z" />
<path fill="#efcc5e" opacity="1.00" d=" M 520.32 265.14 C 524.79 262.65 530.77 266.82 529.96 271.87 C 529.65 276.78 523.26 279.54 519.44 276.52 C 515.45 273.92 515.91 267.05 520.32 265.14 Z" />
<path fill="#efcc5e" opacity="1.00" d=" M 563.24 265.14 C 567.06 263.10 572.36 265.64 572.82 270.03 C 573.92 274.94 568.22 279.47 563.70 277.22 C 558.50 275.56 558.34 267.25 563.24 265.14 Z" />
<path fill="#efcc5e" opacity="1.00" d=" M 606.15 265.13 C 610.26 262.92 616.11 266.16 615.78 270.98 C 616.21 275.90 610.14 279.54 605.96 276.96 C 601.30 274.72 601.48 267.24 606.15 265.13 Z" />
<path fill="#efcc5e" opacity="1.00" d=" M 649.24 265.08 C 653.72 262.68 659.66 266.96 658.72 271.99 C 658.38 277.04 651.53 279.64 647.85 276.24 C 644.13 273.40 644.97 266.94 649.24 265.08 Z" />
<path fill="#efcc5e" opacity="1.00" d=" M 691.42 265.47 C 695.01 263.08 700.55 265.06 701.50 269.37 C 703.05 274.11 697.97 279.15 693.21 277.51 C 687.90 276.27 686.67 268.19 691.42 265.47 Z" />
<path fill="#efcc5e" opacity="1.00" d=" M 734.44 265.44 C 738.47 262.69 744.88 265.86 744.54 270.92 C 745.15 275.86 739.07 279.43 734.90 277.02 C 730.42 274.95 730.12 267.86 734.44 265.44 Z" />
<path fill="#efcc5e" opacity="1.00" d=" M 777.42 265.40 C 781.54 262.69 787.82 265.95 787.53 271.00 C 787.91 275.85 782.02 279.48 777.83 277.03 C 773.28 274.95 773.10 267.84 777.42 265.40 Z" />
<path fill="#efcc5e" opacity="1.00" d=" M 4.44 309.44 C 8.59 306.59 15.12 309.82 14.78 315.01 C 15.10 319.85 9.18 323.39 5.05 320.91 C 0.56 318.95 0.29 311.90 4.44 309.44 Z" />
<path fill="#efcc5e" opacity="1.00" d=" M 47.43 309.45 C 51.03 306.99 56.63 309.04 57.50 313.40 C 59.10 318.35 53.48 323.30 48.73 321.29 C 43.74 319.74 42.89 312.04 47.43 309.45 Z" />
<path fill="#efcc5e" opacity="1.00" d=" M 90.40 309.37 C 94.53 306.70 101.05 309.84 100.55 315.03 C 101.06 320.42 93.84 323.78 89.88 320.27 C 86.27 317.69 86.60 311.62 90.40 309.37 Z" />
<path fill="#efcc5e" opacity="1.00" d=" M 133.43 309.29 C 137.60 306.69 144.02 309.96 143.54 315.11 C 143.83 319.86 138.12 323.28 134.01 321.01 C 129.30 319.04 129.06 311.80 133.43 309.29 Z" />
<path fill="#efcc5e" opacity="1.00" d=" M 176.42 309.28 C 180.29 306.96 186.01 309.38 186.45 314.05 C 187.55 319.17 181.37 323.53 176.89 320.98 C 172.20 319.04 172.00 311.64 176.42 309.28 Z" />
<path fill="#efcc5e" opacity="1.00" d=" M 219.34 309.31 C 223.20 306.92 228.88 309.43 229.41 314.02 C 230.37 318.83 224.97 323.19 220.45 321.28 C 215.39 319.69 214.64 311.77 219.34 309.31 Z" />
<path fill="#efcc5e" opacity="1.00" d=" M 262.33 309.26 C 266.48 306.77 272.69 309.91 272.29 314.97 C 272.84 320.32 265.69 323.76 261.70 320.33 C 257.94 317.71 258.33 311.46 262.33 309.26 Z" />
<path fill="#efcc5e" opacity="1.00" d=" M 305.42 309.15 C 309.58 306.81 315.67 309.99 315.28 315.01 C 315.62 319.74 309.98 323.27 305.83 321.06 C 300.97 319.08 300.75 311.51 305.42 309.15 Z" />
<path fill="#efcc5e" opacity="1.00" d=" M 348.34 309.18 C 352.22 307.01 357.77 309.48 358.20 314.07 C 359.17 319.10 353.27 323.44 348.75 321.06 C 343.94 319.13 343.65 311.43 348.34 309.18 Z" />
<path fill="#efcc5e" opacity="1.00" d=" M 391.29 309.19 C 395.82 306.49 402.10 310.70 401.14 315.92 C 400.68 320.73 394.40 323.46 390.62 320.42 C 386.77 317.86 387.12 311.25 391.29 309.19 Z" />
<path fill="#efcc5e" opacity="1.00" d=" M 434.24 309.17 C 438.37 306.78 444.45 310.04 444.04 315.00 C 444.42 319.97 438.26 323.49 434.11 320.80 C 429.66 318.48 429.76 311.41 434.24 309.17 Z" />
<path fill="#efcc5e" opacity="1.00" d=" M 477.28 309.11 C 481.45 306.84 487.35 310.05 487.03 314.98 C 487.41 319.93 481.25 323.48 477.11 320.83 C 472.55 318.64 472.72 311.21 477.28 309.11 Z" />
<path fill="#efcc5e" opacity="1.00" d=" M 520.26 309.10 C 524.14 307.03 529.39 309.60 529.91 314.01 C 531.02 319.24 524.67 323.61 520.13 320.92 C 515.54 318.68 515.56 311.19 520.26 309.10 Z" />
<path fill="#efcc5e" opacity="1.00" d=" M 563.20 309.10 C 567.36 306.88 573.19 310.15 572.91 315.01 C 573.15 319.60 567.84 323.12 563.69 321.20 C 558.61 319.38 558.25 311.29 563.20 309.10 Z" />
<path fill="#efcc5e" opacity="1.00" d=" M 606.22 309.02 C 610.37 306.92 616.19 310.19 615.79 315.04 C 616.15 319.90 610.20 323.39 606.06 320.91 C 601.29 318.72 601.48 311.16 606.22 309.02 Z" />
<path fill="#efcc5e" opacity="1.00" d=" M 648.40 309.46 C 652.55 306.56 659.06 309.84 658.78 315.00 C 659.09 319.86 653.19 323.36 649.04 320.94 C 644.59 318.96 644.27 311.95 648.40 309.46 Z" />
<path fill="#efcc5e" opacity="1.00" d=" M 691.45 309.38 C 695.09 307.05 700.60 309.04 701.50 313.38 C 703.11 318.34 697.44 323.34 692.69 321.27 C 687.69 319.67 686.94 312.00 691.45 309.38 Z" />
<path fill="#efcc5e" opacity="1.00" d=" M 734.43 309.35 C 738.54 306.73 744.91 309.81 744.54 314.93 C 745.17 320.38 737.80 323.83 733.84 320.24 C 730.24 317.62 730.61 311.58 734.43 309.35 Z" />
<path fill="#efcc5e" opacity="1.00" d=" M 777.48 309.25 C 781.65 306.74 787.94 309.94 787.53 315.06 C 787.89 319.84 782.09 323.28 777.98 321.00 C 773.28 319.00 773.04 311.71 777.48 309.25 Z" />
<path fill="#efcc5e" opacity="1.00" d=" M 6.41 352.51 C 11.51 350.81 16.58 356.68 14.31 361.52 C 12.59 366.41 4.87 367.01 2.45 362.45 C 0.11 358.88 2.16 353.39 6.41 352.51 Z" />
<path fill="#efcc5e" opacity="1.00" d=" M 49.36 352.51 C 54.32 350.86 59.46 356.59 57.27 361.35 C 55.77 366.02 48.81 367.04 45.88 363.20 C 42.87 359.69 44.78 353.50 49.36 352.51 Z" />
<path fill="#efcc5e" opacity="1.00" d=" M 92.43 352.49 C 96.79 351.17 101.54 355.51 100.52 360.01 C 100.08 365.29 92.76 367.43 89.26 363.68 C 85.61 360.30 87.48 353.38 92.43 352.49 Z" />
<path fill="#efcc5e" opacity="1.00" d=" M 134.47 352.77 C 138.96 350.64 144.55 355.11 143.47 359.98 C 143.10 365.25 135.74 367.44 132.26 363.70 C 128.81 360.62 130.08 354.25 134.47 352.77 Z" />
<path fill="#efcc5e" opacity="1.00" d=" M 177.43 352.73 C 181.96 350.75 187.52 355.11 186.44 360.01 C 185.92 365.25 178.62 367.47 175.13 363.68 C 171.78 360.53 173.02 354.19 177.43 352.73 Z" />
<path fill="#efcc5e" opacity="1.00" d=" M 220.49 352.68 C 224.29 351.14 229.00 353.91 229.41 358.04 C 230.45 363.33 223.89 367.56 219.40 364.71 C 214.65 362.23 215.36 354.26 220.49 352.68 Z" />
<path fill="#efcc5e" opacity="1.00" d=" M 263.43 352.66 C 267.93 350.81 273.36 355.17 272.24 359.99 C 271.88 365.20 264.66 367.40 261.13 363.80 C 257.53 360.67 258.91 354.11 263.43 352.66 Z" />
<path fill="#efcc5e" opacity="1.00" d=" M 306.46 352.66 C 310.95 350.82 316.29 355.22 315.21 360.00 C 314.79 365.15 307.74 367.40 304.17 363.85 C 300.43 360.79 301.76 353.95 306.46 352.66 Z" />
<path fill="#efcc5e" opacity="1.00" d=" M 349.48 352.61 C 353.98 350.92 359.18 355.19 358.19 359.97 C 357.63 365.02 350.69 367.46 347.08 363.90 C 343.38 360.74 344.74 353.93 349.48 352.61 Z" />
<path fill="#efcc5e" opacity="1.00" d=" M 392.41 352.63 C 396.90 350.86 402.06 355.26 401.13 359.97 C 400.61 364.74 394.38 367.26 390.63 364.36 C 386.30 361.55 387.39 354.00 392.41 352.63 Z" />
<path fill="#efcc5e" opacity="1.00" d=" M 435.45 352.58 C 439.95 350.94 444.98 355.30 444.00 359.99 C 443.58 365.37 435.93 367.52 432.56 363.46 C 429.21 360.15 430.88 353.75 435.45 352.58 Z" />
<path fill="#efcc5e" opacity="1.00" d=" M 478.47 352.57 C 482.96 350.95 487.95 355.36 486.97 360.02 C 486.45 365.06 479.57 367.40 475.98 363.92 C 472.07 360.81 473.56 353.68 478.47 352.57 Z" />
<path fill="#efcc5e" opacity="1.00" d=" M 521.43 352.55 C 526.18 350.85 531.43 356.03 529.70 360.79 C 528.57 365.89 521.02 367.27 518.03 363.09 C 515.23 359.59 517.00 353.65 521.43 352.55 Z" />
<path fill="#efcc5e" opacity="1.00" d=" M 564.42 352.55 C 569.19 350.89 574.33 356.03 572.65 360.83 C 571.52 365.65 564.60 367.21 561.38 363.54 C 558.12 360.14 559.68 353.64 564.42 352.55 Z" />
<path fill="#efcc5e" opacity="1.00" d=" M 607.41 352.53 C 611.85 351.04 616.70 355.42 615.74 360.00 C 615.32 365.28 607.90 367.46 604.44 363.62 C 600.83 360.33 602.64 353.58 607.41 352.53 Z" />
<path fill="#efcc5e" opacity="1.00" d=" M 650.41 352.51 C 655.49 350.80 660.58 356.70 658.26 361.51 C 656.61 366.43 648.86 366.99 646.46 362.46 C 644.10 358.87 646.15 353.40 650.41 352.51 Z" />
<path fill="#efcc5e" opacity="1.00" d=" M 693.39 352.50 C 698.03 351.00 703.00 355.97 701.50 360.62 C 700.52 365.47 693.67 367.23 690.31 363.69 C 686.76 360.33 688.52 353.47 693.39 352.50 Z" />
<path fill="#efcc5e" opacity="1.00" d=" M 736.38 352.50 C 740.74 351.13 745.58 355.50 744.48 360.03 C 744.09 365.31 736.72 367.42 733.26 363.67 C 729.62 360.32 731.43 353.41 736.38 352.50 Z" />
<path fill="#efcc5e" opacity="1.00" d=" M 778.55 352.74 C 783.01 350.69 788.53 355.13 787.47 359.96 C 787.13 365.22 779.78 367.45 776.29 363.72 C 772.75 360.66 774.10 354.17 778.55 352.74 Z" />
<path fill="#efcc5e" opacity="1.00" d=" M 5.48 396.74 C 10.06 394.54 15.79 398.97 14.69 403.96 C 14.16 408.84 7.61 411.30 3.94 408.08 C 0.05 405.22 0.98 398.45 5.48 396.74 Z" />
<path fill="#efcc5e" opacity="1.00" d=" M 48.53 396.71 C 53.32 394.41 59.16 399.50 57.52 404.55 C 56.63 408.80 51.15 410.90 47.55 408.55 C 43.05 406.07 43.57 398.36 48.53 396.71 Z" />
<path fill="#efcc5e" opacity="1.00" d=" M 91.46 396.69 C 95.65 394.80 101.03 398.28 100.57 402.98 C 100.94 408.07 94.50 411.35 90.42 408.53 C 85.96 405.97 86.54 398.39 91.46 396.69 Z" />
<path fill="#efcc5e" opacity="1.00" d=" M 134.49 396.63 C 138.66 394.87 143.91 398.35 143.53 402.97 C 143.84 408.28 136.72 411.61 132.77 408.09 C 128.76 405.19 129.81 398.25 134.49 396.63 Z" />
<path fill="#efcc5e" opacity="1.00" d=" M 177.53 396.61 C 182.11 394.72 187.53 399.13 186.44 404.01 C 185.87 409.13 178.74 411.42 175.25 407.67 C 171.70 404.56 173.04 398.08 177.53 396.61 Z" />
<path fill="#efcc5e" opacity="1.00" d=" M 220.49 396.61 C 225.41 394.50 231.07 399.86 229.14 404.87 C 228.03 409.23 222.21 410.94 218.77 408.19 C 214.59 405.39 215.65 398.08 220.49 396.61 Z" />
<path fill="#efcc5e" opacity="1.00" d=" M 263.51 396.59 C 267.62 394.94 272.80 398.43 272.29 402.98 C 272.72 408.27 265.69 411.49 261.70 408.24 C 257.55 405.33 258.53 398.00 263.51 396.59 Z" />
<path fill="#efcc5e" opacity="1.00" d=" M 306.42 396.58 C 310.54 394.97 315.66 398.50 315.28 402.99 C 315.50 408.16 308.72 411.55 304.72 408.25 C 300.44 405.41 301.48 398.05 306.42 396.58 Z" />
<path fill="#efcc5e" opacity="1.00" d=" M 349.39 396.59 C 354.30 394.57 359.83 399.91 357.95 404.88 C 356.69 409.71 349.73 411.18 346.62 407.28 C 343.43 404.02 345.06 397.92 349.39 396.59 Z" />
<path fill="#efcc5e" opacity="1.00" d=" M 392.56 396.50 C 396.32 395.22 400.80 397.98 401.13 402.01 C 402.11 407.13 395.89 411.44 391.42 408.77 C 386.24 406.50 387.00 397.77 392.56 396.50 Z" />
<path fill="#efcc5e" opacity="1.00" d=" M 435.45 396.50 C 439.55 395.04 444.54 398.59 444.04 403.03 C 444.44 408.55 436.81 411.63 432.99 407.86 C 429.21 404.67 430.60 397.75 435.45 396.50 Z" />
<path fill="#efcc5e" opacity="1.00" d=" M 478.41 396.51 C 482.88 394.91 487.85 399.21 486.99 403.87 C 486.47 408.88 479.66 411.42 476.02 407.91 C 472.06 404.82 473.52 397.73 478.41 396.51 Z" />
<path fill="#efcc5e" opacity="1.00" d=" M 521.43 396.51 C 526.21 394.75 531.45 399.97 529.71 404.76 C 528.59 409.51 521.76 411.21 518.58 407.49 C 515.04 404.25 516.75 397.61 521.43 396.51 Z" />
<path fill="#efcc5e" opacity="1.00" d=" M 564.42 396.45 C 568.94 394.96 573.77 399.32 572.82 403.96 C 572.32 408.63 566.32 411.18 562.57 408.41 C 557.94 405.75 559.08 397.54 564.42 396.45 Z" />
<path fill="#efcc5e" opacity="1.00" d=" M 606.55 396.72 C 610.72 394.77 616.21 398.29 615.78 402.98 C 616.07 408.05 609.54 411.40 605.48 408.44 C 601.09 405.83 601.78 398.51 606.55 396.72 Z" />
<path fill="#efcc5e" opacity="1.00" d=" M 649.53 396.72 C 654.13 394.56 659.82 399.03 658.68 404.01 C 658.12 408.85 651.62 411.28 647.96 408.10 C 644.03 405.24 644.98 398.40 649.53 396.72 Z" />
<path fill="#efcc5e" opacity="1.00" d=" M 692.50 396.68 C 697.06 394.60 702.65 398.94 701.68 403.87 C 701.17 408.46 695.40 411.08 691.56 408.55 C 687.01 406.09 687.57 398.39 692.50 396.68 Z" />
<path fill="#efcc5e" opacity="1.00" d=" M 735.49 396.67 C 739.68 394.80 745.09 398.36 744.54 403.04 C 744.90 408.12 738.42 411.32 734.38 408.52 C 729.93 405.92 730.56 398.35 735.49 396.67 Z" />
<path fill="#efcc5e" opacity="1.00" d=" M 778.51 396.61 C 782.70 394.87 787.91 398.44 787.53 403.02 C 787.79 408.29 780.76 411.57 776.82 408.13 C 772.74 405.26 773.79 398.20 778.51 396.61 Z" />
<path fill="#efcc5e" opacity="1.00" d=" M 5.49 440.62 C 9.79 438.73 15.20 442.28 14.78 447.05 C 14.90 452.05 8.55 455.28 4.51 452.40 C 0.03 449.88 0.75 442.43 5.49 440.62 Z" />
<path fill="#efcc5e" opacity="1.00" d=" M 48.47 440.63 C 53.01 438.61 58.60 442.80 57.67 447.74 C 57.18 452.65 50.71 455.30 46.96 452.06 C 43.02 449.24 43.86 442.29 48.47 440.63 Z" />
<path fill="#efcc5e" opacity="1.00" d=" M 91.54 440.59 C 95.81 438.80 101.02 442.33 100.60 447.03 C 100.83 452.21 93.90 455.50 89.98 452.11 C 85.85 449.32 86.80 442.17 91.54 440.59 Z" />
<path fill="#efcc5e" opacity="1.00" d=" M 134.51 440.60 C 138.76 438.81 144.07 442.34 143.53 447.07 C 143.70 451.93 137.62 455.17 133.59 452.57 C 128.81 450.14 129.39 442.27 134.51 440.60 Z" />
<path fill="#efcc5e" opacity="1.00" d=" M 177.52 440.53 C 181.81 438.83 186.84 442.36 186.53 447.01 C 186.65 451.96 180.51 455.18 176.42 452.54 C 171.72 450.03 172.37 442.10 177.52 440.53 Z" />
<path fill="#efcc5e" opacity="1.00" d=" M 220.47 440.55 C 225.06 438.68 230.39 443.01 229.40 447.89 C 228.83 452.68 222.51 455.19 218.80 452.12 C 214.64 449.33 215.64 442.03 220.47 440.55 Z" />
<path fill="#efcc5e" opacity="1.00" d=" M 263.50 440.54 C 267.69 438.89 272.80 442.39 272.29 446.99 C 272.62 452.18 265.71 455.46 261.75 452.16 C 257.50 449.33 258.54 441.94 263.50 440.54 Z" />
<path fill="#efcc5e" opacity="1.00" d=" M 306.45 440.49 C 310.69 438.94 315.73 442.38 315.28 447.01 C 315.50 452.18 308.73 455.41 304.75 452.19 C 300.35 449.41 301.53 441.97 306.45 440.49 Z" />
<path fill="#efcc5e" opacity="1.00" d=" M 349.40 440.47 C 354.02 438.72 359.30 443.23 358.14 448.06 C 357.49 453.00 350.68 455.24 347.15 451.79 C 343.43 448.72 344.66 441.81 349.40 440.47 Z" />
<path fill="#efcc5e" opacity="1.00" d=" M 392.42 440.47 C 396.20 439.20 400.72 441.80 401.13 445.85 C 402.16 451.04 395.89 455.37 391.36 452.70 C 386.37 450.29 386.98 441.89 392.42 440.47 Z" />
<path fill="#efcc5e" opacity="1.00" d=" M 435.34 440.47 C 439.51 438.97 444.52 442.46 444.04 446.99 C 444.30 452.11 437.72 455.32 433.68 452.32 C 429.17 449.57 430.23 441.88 435.34 440.47 Z" />
<path fill="#efcc5e" opacity="1.00" d=" M 477.54 440.72 C 481.78 438.67 487.41 442.08 487.03 446.91 C 487.23 451.61 481.63 455.03 477.52 452.80 C 472.46 450.78 472.61 442.81 477.54 440.72 Z" />
<path fill="#efcc5e" opacity="1.00" d=" M 520.58 440.69 C 525.51 438.30 531.61 443.54 529.69 448.75 C 528.56 453.21 522.35 455.03 519.00 451.87 C 515.34 449.01 516.18 442.37 520.58 440.69 Z" />
<path fill="#efcc5e" opacity="1.00" d=" M 563.52 440.71 C 567.45 438.90 572.62 441.65 572.89 446.09 C 573.77 451.42 566.94 455.60 562.60 452.38 C 558.29 449.84 558.87 442.52 563.52 440.71 Z" />
<path fill="#efcc5e" opacity="1.00" d=" M 606.51 440.67 C 610.80 438.71 616.39 442.29 615.78 447.12 C 615.91 452.03 609.59 455.26 605.62 452.43 C 601.13 449.93 601.73 442.51 606.51 440.67 Z" />
<path fill="#efcc5e" opacity="1.00" d=" M 649.48 440.62 C 653.44 438.93 658.47 441.68 658.73 446.09 C 659.58 451.03 653.67 455.19 649.29 452.81 C 644.13 450.80 644.33 442.53 649.48 440.62 Z" />
<path fill="#efcc5e" opacity="1.00" d=" M 692.49 440.62 C 697.05 438.62 702.63 442.84 701.66 447.79 C 701.14 452.41 695.29 455.12 691.47 452.43 C 687.03 449.86 687.61 442.35 692.49 440.62 Z" />
<path fill="#efcc5e" opacity="1.00" d=" M 735.52 440.60 C 739.39 439.02 744.39 441.68 744.52 446.05 C 745.46 450.95 739.63 455.19 735.25 452.87 C 729.98 450.86 730.14 442.35 735.52 440.60 Z" />
<path fill="#efcc5e" opacity="1.00" d=" M 778.47 440.61 C 782.71 438.80 788.05 442.31 787.53 447.04 C 787.72 451.96 781.53 455.21 777.50 452.51 C 772.82 450.02 773.38 442.30 778.47 440.61 Z" />
<path fill="#efcc5e" opacity="1.00" d=" M 5.45 484.62 C 9.67 482.49 15.19 486.21 14.78 490.93 C 14.90 495.98 8.67 499.08 4.55 496.38 C 0.15 493.85 0.60 486.36 5.45 484.62 Z" />
<path fill="#efcc5e" opacity="1.00" d=" M 48.40 484.59 C 52.95 482.33 58.73 486.82 57.64 491.79 C 57.08 496.67 50.63 499.02 46.92 495.96 C 43.02 493.16 43.90 486.30 48.40 484.59 Z" />
<path fill="#efcc5e" opacity="1.00" d=" M 91.44 484.56 C 95.60 482.59 101.14 486.24 100.57 490.92 C 100.89 496.23 93.89 499.24 89.95 496.02 C 85.88 493.21 86.79 486.22 91.44 484.56 Z" />
<path fill="#efcc5e" opacity="1.00" d=" M 134.40 484.58 C 138.61 482.49 144.07 486.34 143.54 491.01 C 143.81 496.53 136.09 499.47 132.40 495.58 C 128.80 492.61 129.97 486.06 134.40 484.58 Z" />
<path fill="#efcc5e" opacity="1.00" d=" M 177.38 484.55 C 182.31 482.17 188.27 487.74 186.16 492.82 C 184.88 497.94 177.13 498.94 174.39 494.57 C 171.97 491.26 173.40 485.87 177.38 484.55 Z" />
<path fill="#efcc5e" opacity="1.00" d=" M 220.28 484.53 C 224.90 482.37 230.53 486.99 229.36 491.94 C 228.71 496.60 222.64 498.90 218.93 496.16 C 214.72 493.45 215.55 486.20 220.28 484.53 Z" />
<path fill="#efcc5e" opacity="1.00" d=" M 263.34 484.50 C 267.58 482.60 272.91 486.41 272.28 491.06 C 272.51 496.50 265.15 499.31 261.35 495.74 C 257.52 492.78 258.76 485.97 263.34 484.50 Z" />
<path fill="#efcc5e" opacity="1.00" d=" M 306.44 484.41 C 310.71 482.68 315.83 486.50 315.28 491.10 C 315.43 496.54 307.94 499.39 304.22 495.68 C 300.41 492.61 301.78 485.83 306.44 484.41 Z" />
<path fill="#efcc5e" opacity="1.00" d=" M 348.52 484.74 C 353.23 482.12 359.51 486.78 358.14 492.06 C 357.40 496.70 351.48 498.85 347.77 496.21 C 343.71 493.62 344.19 486.80 348.52 484.74 Z" />
<path fill="#efcc5e" opacity="1.00" d=" M 391.48 484.75 C 395.37 482.63 400.76 485.40 401.13 489.85 C 402.13 495.03 395.90 499.14 391.41 496.61 C 386.73 494.46 386.82 486.87 391.48 484.75 Z" />
<path fill="#efcc5e" opacity="1.00" d=" M 434.47 484.75 C 438.76 482.37 444.65 486.11 444.04 491.05 C 444.24 496.39 437.06 499.30 433.22 495.85 C 429.48 493.11 430.26 486.60 434.47 484.75 Z" />
<path fill="#efcc5e" opacity="1.00" d=" M 477.52 484.70 C 481.75 482.41 487.52 486.15 487.03 490.97 C 487.16 496.07 480.76 499.09 476.68 496.31 C 472.50 493.75 472.83 486.52 477.52 484.70 Z" />
<path fill="#efcc5e" opacity="1.00" d=" M 520.42 484.66 C 524.76 482.39 530.45 486.20 530.00 491.07 C 529.93 496.04 523.71 499.09 519.66 496.31 C 515.38 493.79 515.88 486.63 520.42 484.66 Z" />
<path fill="#efcc5e" opacity="1.00" d=" M 563.49 484.62 C 568.10 482.27 574.02 486.88 572.80 491.93 C 572.20 496.78 565.71 498.97 562.07 495.92 C 558.35 493.07 559.09 486.43 563.49 484.62 Z" />
<path fill="#efcc5e" opacity="1.00" d=" M 606.43 484.66 C 610.68 482.41 616.35 486.25 615.79 491.04 C 615.99 496.32 608.93 499.28 605.07 495.92 C 601.15 493.19 601.96 486.35 606.43 484.66 Z" />
<path fill="#efcc5e" opacity="1.00" d=" M 649.48 484.61 C 653.69 482.49 659.18 486.22 658.78 490.92 C 658.89 495.95 652.65 499.10 648.54 496.38 C 644.11 493.84 644.61 486.35 649.48 484.61 Z" />
<path fill="#efcc5e" opacity="1.00" d=" M 692.41 484.59 C 696.96 482.33 702.73 486.82 701.64 491.79 C 701.08 496.66 694.65 499.01 690.94 495.98 C 687.01 493.19 687.89 486.29 692.41 484.59 Z" />
<path fill="#efcc5e" opacity="1.00" d=" M 735.46 484.56 C 739.66 482.56 745.21 486.35 744.53 491.04 C 744.81 496.62 737.11 499.39 733.40 495.55 C 729.86 492.51 731.08 486.12 735.46 484.56 Z" />
<path fill="#efcc5e" opacity="1.00" d=" M 778.38 484.55 C 782.95 482.35 788.65 486.92 787.45 491.88 C 786.99 496.97 779.84 499.17 776.40 495.58 C 772.79 492.59 773.98 486.10 778.38 484.55 Z" />
<path fill="#efcc5e" opacity="1.00" d=" M 6.32 528.21 C 11.15 526.59 16.23 531.80 14.49 536.58 C 13.28 541.45 6.22 542.93 3.12 539.02 C -0.16 535.63 1.73 529.25 6.32 528.21 Z" />
<path fill="#efcc5e" opacity="1.00" d=" M 49.29 528.22 C 54.12 526.60 59.20 531.82 57.44 536.60 C 56.23 541.52 49.14 542.91 45.99 539.04 C 42.89 535.55 44.69 529.29 49.29 528.22 Z" />
<path fill="#efcc5e" opacity="1.00" d=" M 91.33 528.50 C 95.61 526.49 101.23 530.17 100.56 535.00 C 100.74 539.94 94.57 542.94 90.57 540.38 C 86.00 537.94 86.46 530.32 91.33 528.50 Z" />
<path fill="#efcc5e" opacity="1.00" d=" M 134.36 528.48 C 138.61 526.49 144.07 530.27 143.54 534.98 C 143.65 540.20 136.85 543.21 132.90 539.99 C 128.85 537.17 129.66 530.14 134.36 528.48 Z" />
<path fill="#efcc5e" opacity="1.00" d=" M 177.45 528.39 C 181.75 526.57 187.01 530.31 186.53 535.01 C 186.51 540.08 179.86 543.23 175.94 540.01 C 171.72 537.22 172.65 530.03 177.45 528.39 Z" />
<path fill="#efcc5e" opacity="1.00" d=" M 220.40 528.42 C 225.01 526.36 230.47 530.94 229.35 535.82 C 228.80 540.54 222.59 542.91 218.88 540.07 C 214.66 537.34 215.53 529.93 220.40 528.42 Z" />
<path fill="#efcc5e" opacity="1.00" d=" M 264.34 528.10 C 268.40 527.15 272.92 530.70 272.28 535.01 C 272.52 540.45 265.12 543.29 261.32 539.71 C 257.25 536.40 259.06 528.90 264.34 528.10 Z" />
<path fill="#efcc5e" opacity="1.00" d=" M 307.27 528.12 C 311.72 526.94 316.24 531.43 315.20 535.90 C 314.48 540.72 307.93 543.06 304.33 539.73 C 300.15 536.50 301.99 528.93 307.27 528.12 Z" />
<path fill="#efcc5e" opacity="1.00" d=" M 350.20 528.11 C 355.10 526.78 359.83 532.30 357.85 536.95 C 356.43 541.45 349.88 542.83 346.79 539.22 C 343.12 535.82 345.27 528.91 350.20 528.11 Z" />
<path fill="#efcc5e" opacity="1.00" d=" M 393.25 528.10 C 398.37 526.75 403.00 532.84 400.56 537.44 C 398.81 541.93 391.99 542.62 389.22 538.74 C 386.30 535.05 388.44 528.78 393.25 528.10 Z" />
<path fill="#efcc5e" opacity="1.00" d=" M 434.43 528.66 C 438.69 526.30 444.81 530.08 444.03 535.06 C 444.16 540.06 437.66 543.12 433.73 540.18 C 429.50 537.68 430.00 530.66 434.43 528.66 Z" />
<path fill="#efcc5e" opacity="1.00" d=" M 477.43 528.64 C 481.41 526.49 486.88 529.54 487.01 534.09 C 487.78 539.37 481.05 543.32 476.75 540.23 C 472.45 537.71 472.87 530.63 477.43 528.64 Z" />
<path fill="#efcc5e" opacity="1.00" d=" M 520.45 528.63 C 524.43 526.49 529.86 529.61 529.98 534.14 C 530.59 539.08 524.73 543.03 520.38 540.60 C 515.47 538.54 515.53 530.66 520.45 528.63 Z" />
<path fill="#efcc5e" opacity="1.00" d=" M 563.48 528.58 C 567.44 526.55 572.66 529.56 572.88 534.01 C 573.60 539.03 567.74 543.02 563.31 540.63 C 558.41 538.59 558.48 530.46 563.48 528.58 Z" />
<path fill="#efcc5e" opacity="1.00" d=" M 607.28 528.24 C 611.81 526.67 616.81 531.20 615.70 535.87 C 615.16 540.97 608.04 543.10 604.57 539.46 C 600.84 536.23 602.48 529.40 607.28 528.24 Z" />
<path fill="#efcc5e" opacity="1.00" d=" M 650.22 528.24 C 655.08 526.52 660.26 531.78 658.48 536.61 C 657.31 541.18 650.87 542.87 647.59 539.50 C 643.78 536.33 645.41 529.39 650.22 528.24 Z" />
<path fill="#efcc5e" opacity="1.00" d=" M 693.26 528.23 C 697.07 526.99 701.51 529.96 701.68 534.00 C 702.53 539.24 695.95 543.29 691.59 540.34 C 686.68 537.75 687.82 529.39 693.26 528.23 Z" />
<path fill="#efcc5e" opacity="1.00" d=" M 735.36 528.49 C 739.62 526.51 745.25 530.17 744.53 534.99 C 744.77 539.93 738.58 542.93 734.59 540.39 C 729.97 537.98 730.43 530.25 735.36 528.49 Z" />
<path fill="#efcc5e" opacity="1.00" d=" M 778.38 528.47 C 782.62 526.50 788.06 530.27 787.54 534.97 C 787.62 540.12 780.83 543.22 776.90 539.98 C 772.84 537.16 773.67 530.12 778.38 528.47 Z" />
<path fill="#efcc5e" opacity="1.00" d=" M 5.37 572.49 C 9.73 570.38 15.27 574.07 14.79 578.93 C 14.75 583.77 8.72 586.99 4.68 584.30 C 0.15 581.85 0.59 574.37 5.37 572.49 Z" />
<path fill="#efcc5e" opacity="1.00" d=" M 48.38 572.42 C 53.02 570.27 58.77 574.70 57.65 579.75 C 56.95 584.69 50.21 587.07 46.64 583.55 C 43.06 580.59 43.99 574.09 48.38 572.42 Z" />
<path fill="#efcc5e" opacity="1.00" d=" M 91.34 572.43 C 95.68 570.42 101.22 574.13 100.59 579.00 C 100.63 584.03 94.06 587.06 90.15 584.04 C 85.95 581.33 86.65 574.19 91.34 572.43 Z" />
<path fill="#efcc5e" opacity="1.00" d=" M 134.40 572.41 C 138.37 570.63 143.55 573.60 143.53 578.08 C 144.24 583.11 138.01 587.11 133.73 584.40 C 128.84 582.12 129.32 574.16 134.40 572.41 Z" />
<path fill="#efcc5e" opacity="1.00" d=" M 178.18 572.11 C 182.80 570.75 187.66 575.41 186.36 580.08 C 185.49 584.91 178.91 586.94 175.40 583.56 C 171.48 580.36 173.13 573.07 178.18 572.11 Z" />
<path fill="#efcc5e" opacity="1.00" d=" M 221.26 572.06 C 225.76 570.90 230.38 575.21 229.36 579.78 C 228.72 584.72 221.98 587.02 218.42 583.59 C 214.39 580.36 216.09 572.96 221.26 572.06 Z" />
<path fill="#efcc5e" opacity="1.00" d=" M 264.26 572.06 C 268.43 571.00 272.90 574.66 272.28 579.03 C 272.38 583.99 265.85 587.04 261.95 584.08 C 257.21 581.19 258.67 572.95 264.26 572.06 Z" />
<path fill="#efcc5e" opacity="1.00" d=" M 307.32 572.05 C 312.23 570.82 316.82 576.11 314.95 580.81 C 313.51 585.42 306.96 586.73 303.76 583.16 C 300.22 579.64 302.32 572.79 307.32 572.05 Z" />
<path fill="#efcc5e" opacity="1.00" d=" M 348.45 572.64 C 352.83 570.18 358.89 574.02 358.24 579.08 C 358.17 583.99 351.88 586.94 347.94 584.17 C 343.74 581.68 344.07 574.75 348.45 572.64 Z" />
<path fill="#efcc5e" opacity="1.00" d=" M 392.25 572.26 C 396.83 570.48 402.27 574.85 401.06 579.73 C 400.51 584.61 393.95 586.98 390.33 583.73 C 386.33 580.81 387.53 573.74 392.25 572.26 Z" />
<path fill="#efcc5e" opacity="1.00" d=" M 435.24 572.28 C 439.52 570.59 444.70 574.35 444.03 579.01 C 444.08 583.92 437.80 586.97 433.85 584.18 C 429.21 581.56 430.09 573.76 435.24 572.28 Z" />
<path fill="#efcc5e" opacity="1.00" d=" M 478.30 572.23 C 483.34 570.32 488.67 575.80 486.68 580.77 C 485.28 585.57 478.20 586.83 475.23 582.82 C 472.21 579.44 473.99 573.51 478.30 572.23 Z" />
<path fill="#efcc5e" opacity="1.00" d=" M 521.23 572.20 C 525.20 570.91 529.86 573.86 529.98 578.13 C 530.56 583.29 524.08 587.23 519.80 584.22 C 515.10 581.59 515.96 573.59 521.23 572.20 Z" />
<path fill="#efcc5e" opacity="1.00" d=" M 564.25 572.19 C 568.85 570.59 573.97 575.04 572.79 579.81 C 572.15 584.56 565.81 586.94 562.17 583.83 C 558.01 580.93 559.27 573.42 564.25 572.19 Z" />
<path fill="#efcc5e" opacity="1.00" d=" M 607.26 572.19 C 611.50 570.74 616.40 574.46 615.78 578.98 C 615.79 583.85 609.63 587.01 605.65 584.20 C 600.85 581.57 601.89 573.45 607.26 572.19 Z" />
<path fill="#efcc5e" opacity="1.00" d=" M 649.35 572.48 C 653.35 570.60 658.52 573.52 658.75 577.98 C 659.53 583.19 653.02 587.25 648.67 584.29 C 644.11 581.84 644.59 574.38 649.35 572.48 Z" />
<path fill="#efcc5e" opacity="1.00" d=" M 692.36 572.42 C 696.40 570.61 701.63 573.64 701.73 578.15 C 702.20 582.91 696.72 586.80 692.41 584.68 C 687.21 582.74 687.13 574.38 692.36 572.42 Z" />
<path fill="#efcc5e" opacity="1.00" d=" M 735.38 572.41 C 739.68 570.44 745.26 574.15 744.53 579.00 C 744.68 584.05 737.93 587.09 734.07 583.98 C 729.93 581.22 730.67 574.14 735.38 572.41 Z" />
<path fill="#efcc5e" opacity="1.00" d=" M 778.40 572.39 C 782.39 570.65 787.57 573.60 787.53 578.11 C 788.21 583.11 782.03 587.09 777.76 584.42 C 772.81 582.16 773.28 574.14 778.40 572.39 Z" />
</g>
</svg>
