<?xml version="1.0" encoding="UTF-8" ?>
<!DOCTYPE svg PUBLIC "-//W3C//DTD SVG 1.1//EN" "http://www.w3.org/Graphics/SVG/1.1/DTD/svg11.dtd">
<svg width="512pt" height="512pt" viewBox="0 0 512 512" version="1.1" xmlns="http://www.w3.org/2000/svg">
<g id="#000000ff">
<path fill="#000000" opacity="1.00" d=" M 249.85 0.00 L 260.28 0.00 C 291.12 0.96 321.70 10.45 347.37 27.64 C 373.54 44.99 394.62 69.94 407.17 98.73 C 421.79 131.91 424.82 169.95 416.09 205.10 C 409.72 230.99 396.73 255.17 378.86 274.94 C 371.80 282.87 363.52 289.65 356.92 298.00 C 340.78 317.56 331.23 342.59 330.98 368.01 C 331.01 385.95 331.00 403.88 331.00 421.82 C 336.96 421.77 343.14 424.61 345.81 430.16 C 349.42 436.72 346.93 445.67 340.58 449.57 C 337.34 451.83 333.28 451.99 329.47 452.12 C 325.65 470.31 314.94 486.94 299.82 497.78 C 288.09 506.39 273.79 511.11 259.32 512.00 L 252.81 512.00 C 238.30 511.17 224.02 506.35 212.25 497.80 C 197.14 487.00 186.36 470.42 182.56 452.25 C 178.82 451.60 174.91 450.62 172.18 447.81 C 166.66 442.79 165.97 433.57 170.70 427.79 C 173.12 424.44 177.07 422.80 180.98 421.90 C 181.02 406.93 181.01 391.95 180.99 376.98 C 180.88 342.50 166.69 308.16 141.95 284.06 C 128.36 270.94 116.88 255.59 108.43 238.68 C 92.91 208.17 87.71 172.71 93.01 138.95 C 97.63 108.29 111.37 79.14 131.85 55.89 C 154.31 30.17 184.97 11.60 218.35 4.20 C 228.71 1.87 239.27 0.68 249.85 0.00 M 212.79 36.79 C 181.43 47.04 154.44 69.55 138.30 98.28 C 124.13 123.12 118.70 152.57 121.92 180.91 C 124.88 207.23 136.04 232.51 153.39 252.51 C 158.87 259.00 165.32 264.58 170.89 270.99 C 193.09 296.22 206.89 328.59 210.25 361.99 C 220.50 362.01 230.75 362.00 241.00 362.00 C 240.99 328.30 241.01 294.60 240.99 260.90 C 241.06 258.80 239.36 257.26 238.38 255.56 C 220.08 228.18 201.84 200.77 183.57 173.37 C 180.21 168.43 180.18 161.49 183.62 156.58 C 187.80 149.99 197.44 148.03 203.93 152.31 C 209.55 156.16 212.07 162.89 216.14 168.14 C 227.26 162.67 238.30 157.01 249.43 151.53 C 253.73 149.35 259.00 149.56 263.22 151.83 C 274.10 157.27 284.99 162.68 295.86 168.14 C 298.76 163.96 301.39 159.59 304.43 155.50 C 309.49 148.97 320.11 148.18 326.08 153.90 C 331.49 158.69 332.53 167.43 328.42 173.37 C 309.64 201.58 290.85 229.78 272.03 257.96 C 271.11 259.10 270.87 260.53 270.98 261.97 C 271.03 295.31 270.98 328.66 271.00 362.00 C 281.04 362.00 291.08 362.00 301.12 361.99 C 302.82 325.69 319.99 291.05 345.79 265.80 C 352.09 259.76 358.23 253.52 363.48 246.54 C 379.07 226.30 388.57 201.48 390.52 176.01 C 392.92 147.06 385.81 117.36 370.16 92.85 C 353.77 66.86 328.20 46.83 299.05 37.12 C 271.33 27.73 240.60 27.80 212.79 36.79 M 232.92 193.30 C 240.59 204.86 248.31 216.39 256.00 227.94 C 263.70 216.41 271.39 204.86 279.09 193.32 C 271.41 189.43 263.72 185.56 255.99 181.78 C 248.30 185.62 240.62 189.47 232.92 193.30 M 211.00 392.00 C 211.00 402.00 211.00 412.00 211.00 422.00 C 241.00 422.00 271.00 422.00 301.00 422.00 C 301.00 412.00 301.00 402.00 301.00 392.00 C 271.00 392.00 241.00 392.00 211.00 392.00 M 213.56 452.02 C 217.34 462.35 224.87 471.30 234.59 476.52 C 246.54 483.14 261.56 483.74 274.03 478.18 C 285.32 473.30 294.24 463.54 298.44 452.02 C 270.14 451.99 241.85 451.99 213.56 452.02 Z" />
<path fill="#000000" opacity="1.00" d=" M 44.37 30.51 C 48.78 29.27 53.46 30.47 57.25 32.86 C 65.58 37.83 74.11 42.49 82.42 47.51 C 89.02 51.70 91.09 61.27 86.90 67.85 C 82.99 74.52 73.62 76.95 66.93 73.11 C 58.24 68.19 49.63 63.11 40.96 58.15 C 35.66 55.22 32.40 48.97 33.33 42.93 C 34.00 37.03 38.66 31.96 44.37 30.51 Z" />
<path fill="#000000" opacity="1.00" d=" M 461.22 30.25 C 468.47 28.83 476.32 33.60 478.21 40.77 C 480.24 47.34 477.05 54.90 471.03 58.16 C 462.39 63.17 453.76 68.18 445.09 73.12 C 438.78 76.68 430.16 74.83 425.88 68.99 C 420.74 62.49 422.52 51.97 429.54 47.55 C 437.69 42.68 445.98 38.05 454.17 33.25 C 456.37 31.95 458.66 30.66 461.22 30.25 Z" />
<path fill="#000000" opacity="1.00" d=" M 0.00 163.23 C 1.00 156.36 6.85 150.40 13.91 150.08 C 22.94 149.84 31.99 150.11 41.03 149.98 C 44.88 150.00 48.97 149.69 52.51 151.52 C 58.98 154.49 62.57 162.51 60.33 169.30 C 58.56 175.47 52.50 179.98 46.09 179.96 C 35.70 180.03 25.29 180.03 14.90 179.96 C 7.43 180.05 0.92 173.91 0.00 166.59 L 0.00 163.23 Z" />
<path fill="#000000" opacity="1.00" d=" M 451.26 162.24 C 452.47 155.37 458.93 149.93 465.92 150.02 C 474.94 149.92 483.97 150.07 493.00 149.97 C 496.78 149.94 500.80 149.87 504.17 151.86 C 508.55 154.12 511.24 158.70 512.00 163.47 L 512.00 166.37 C 511.24 172.77 506.34 178.54 499.89 179.66 C 493.96 180.40 487.96 179.83 482.01 180.00 C 475.47 179.76 468.85 180.55 462.37 179.50 C 454.92 177.79 449.68 169.76 451.26 162.24 Z" />
<path fill="#000000" opacity="1.00" d=" M 72.11 255.15 C 79.33 254.04 86.90 258.98 88.59 266.11 C 90.35 272.39 87.46 279.53 81.84 282.83 C 73.01 288.01 64.14 293.12 55.24 298.18 C 48.46 301.98 39.14 299.38 35.27 292.66 C 31.11 285.96 33.44 276.27 40.26 272.27 C 48.46 267.45 56.74 262.77 64.95 257.97 C 67.16 256.65 69.52 255.46 72.11 255.15 Z" />
<path fill="#000000" opacity="1.00" d=" M 433.46 255.68 C 437.80 254.29 442.60 255.19 446.42 257.57 C 454.85 262.53 463.40 267.31 471.82 272.31 C 478.57 276.37 480.86 286.02 476.69 292.70 C 472.88 299.39 463.56 301.95 456.84 298.22 C 447.91 293.18 439.08 287.97 430.20 282.85 C 424.33 279.44 421.43 271.86 423.59 265.41 C 424.99 260.79 428.90 257.13 433.46 255.68 Z" />
</g>
</svg>
