<?xml version="1.0" encoding="UTF-8" ?>
<!DOCTYPE svg PUBLIC "-//W3C//DTD SVG 1.1//EN" "http://www.w3.org/Graphics/SVG/1.1/DTD/svg11.dtd">
<svg width="512pt" height="512pt" viewBox="0 0 512 512" version="1.1" xmlns="http://www.w3.org/2000/svg">
<g id="#000000ff">
<path fill="#000000" opacity="1.00" d=" M 126.28 0.00 L 132.80 0.00 C 144.30 0.99 155.44 6.23 163.12 14.92 C 167.83 20.06 171.09 26.36 173.13 33.00 C 187.12 33.03 201.10 32.95 215.08 33.02 C 219.27 32.97 223.40 34.65 226.33 37.64 C 238.36 49.64 250.34 61.69 262.38 73.67 C 265.94 70.69 270.02 67.67 274.92 67.83 C 280.06 67.60 284.42 70.72 287.88 74.19 C 352.29 133.39 416.79 192.50 481.21 251.69 C 488.12 257.47 487.81 269.27 480.61 274.67 C 448.81 299.88 416.94 325.00 385.12 350.16 C 382.00 352.71 377.91 353.66 373.96 353.74 C 368.87 353.80 364.28 350.40 361.90 346.06 C 318.75 268.84 275.61 191.61 232.48 114.38 C 229.99 110.19 229.44 104.85 231.49 100.37 C 232.86 96.95 235.88 94.65 238.65 92.39 C 228.82 82.59 219.05 72.74 209.19 62.98 C 196.45 63.04 183.72 62.97 170.98 63.01 C 165.93 74.27 156.30 83.24 144.72 87.50 C 144.71 91.02 144.72 94.53 144.73 98.05 C 169.60 101.69 192.97 114.65 209.11 133.93 C 222.26 149.40 230.73 168.80 233.00 188.98 C 233.87 195.94 233.71 202.96 233.72 209.96 C 233.71 295.31 233.73 380.66 233.71 466.01 C 233.76 472.98 232.37 479.99 229.33 486.29 C 222.31 501.44 206.30 511.79 189.59 512.00 L 68.76 512.00 C 59.17 511.39 49.69 507.96 42.27 501.78 C 31.92 493.44 25.68 480.32 25.74 467.02 C 25.70 378.34 25.72 289.66 25.73 200.98 C 25.65 178.16 33.43 155.42 47.47 137.43 C 63.72 116.30 88.32 101.86 114.71 98.06 C 114.73 94.51 114.73 90.97 114.70 87.43 C 103.15 83.23 93.47 74.29 88.50 63.04 C 75.64 62.93 62.78 63.06 49.92 62.98 C 44.30 63.06 38.77 59.75 36.33 54.66 C 34.20 50.55 34.21 45.45 36.33 41.33 C 38.77 36.25 44.28 32.93 49.90 33.01 C 62.05 32.94 74.19 33.07 86.34 32.96 C 91.17 15.05 107.82 1.47 126.28 0.00 M 125.47 30.65 C 117.70 32.76 112.75 41.82 115.44 49.47 C 117.67 57.11 126.63 61.94 134.21 59.27 C 141.67 57.07 146.47 48.45 144.13 40.97 C 142.13 33.18 133.16 28.08 125.47 30.65 M 264.53 110.29 C 302.93 178.91 341.23 247.58 379.58 316.22 C 402.52 298.28 425.30 280.14 448.15 262.09 C 390.24 208.86 332.27 155.69 274.31 102.50 C 271.05 105.09 267.74 107.63 264.53 110.29 M 83.43 143.32 C 69.61 154.35 59.96 170.47 56.89 187.88 C 55.36 195.82 55.77 203.94 55.72 211.97 C 55.73 296.98 55.70 381.99 55.73 467.01 C 55.58 475.08 62.87 482.25 70.94 481.99 C 110.32 481.99 149.69 482.04 189.07 481.97 C 196.92 481.95 203.82 474.88 203.70 467.03 C 203.75 454.87 203.70 442.71 203.72 430.54 C 185.79 430.47 167.85 430.64 149.92 430.46 C 142.04 430.17 135.35 422.90 135.72 415.01 C 135.72 348.03 135.72 281.04 135.72 214.05 C 135.27 205.75 142.70 198.17 151.02 198.52 C 168.56 198.54 186.11 198.53 203.66 198.53 C 203.03 176.20 191.57 154.58 173.54 141.42 C 160.51 131.74 144.20 126.59 127.96 127.03 C 111.85 127.34 95.94 133.19 83.43 143.32 M 165.72 228.54 C 165.71 285.87 165.72 343.19 165.72 400.52 C 178.38 400.55 191.05 400.52 203.71 400.53 C 203.72 343.20 203.74 285.86 203.70 228.52 C 191.04 228.55 178.38 228.52 165.72 228.54 Z" />
</g>
</svg>
