<?xml version="1.0" encoding="UTF-8" ?>
<!DOCTYPE svg PUBLIC "-//W3C//DTD SVG 1.1//EN" "http://www.w3.org/Graphics/SVG/1.1/DTD/svg11.dtd">
<svg width="512pt" height="512pt" viewBox="0 0 512 512" version="1.1" xmlns="http://www.w3.org/2000/svg">
<g id="#000000ff">
<path fill="#000000" opacity="1.00" d=" M 253.41 0.00 L 258.37 0.00 C 263.86 0.61 269.23 2.24 274.09 4.89 C 286.66 11.45 296.24 22.22 307.84 30.19 C 312.28 33.28 317.46 35.38 322.89 35.81 C 339.49 37.25 356.30 32.51 372.76 36.34 C 382.59 38.53 391.07 45.36 395.66 54.28 C 403.03 67.95 404.19 83.82 409.79 98.15 C 411.77 103.35 415.19 107.93 419.56 111.35 C 429.18 118.98 440.38 124.33 450.01 131.95 C 458.14 138.23 465.13 146.97 466.37 157.48 C 467.97 170.77 462.15 183.31 457.47 195.39 C 453.74 205.09 449.15 215.42 451.48 226.04 C 454.90 241.94 464.21 256.06 466.36 272.30 C 467.62 281.01 465.47 290.15 460.23 297.24 C 453.40 306.56 443.26 312.56 433.65 318.61 C 426.24 323.35 418.31 327.85 412.98 335.05 C 428.46 374.82 443.99 414.58 459.43 454.36 C 461.81 459.20 458.18 465.46 452.78 465.68 C 434.52 467.20 416.23 468.46 397.96 469.83 C 395.43 470.19 392.45 469.56 390.34 471.33 C 375.27 483.28 360.15 495.16 345.08 507.11 C 343.08 508.70 340.73 510.22 338.05 509.93 C 334.69 509.74 331.93 507.18 330.89 504.07 C 319.64 475.27 308.45 446.45 297.19 417.65 C 292.88 421.19 288.68 424.87 284.19 428.20 C 274.78 435.33 263.11 441.18 250.97 439.15 C 236.62 436.84 225.55 426.55 214.73 417.65 C 203.36 446.67 192.14 475.75 180.72 504.76 C 179.00 509.82 172.02 511.63 168.06 508.01 C 153.53 496.54 138.98 485.09 124.49 473.58 C 122.55 472.14 120.74 470.05 118.13 470.10 C 98.51 468.59 78.88 467.19 59.26 465.69 C 53.86 465.54 50.09 459.32 52.46 454.45 C 67.92 414.63 83.46 374.84 98.98 335.04 C 93.98 328.21 86.58 323.83 79.58 319.35 C 69.95 313.30 59.80 307.42 52.61 298.38 C 47.16 291.56 44.50 282.63 45.44 273.94 C 47.11 256.98 57.00 242.35 60.50 225.86 C 62.37 217.43 59.67 208.97 56.73 201.14 C 52.33 189.03 46.13 177.23 45.31 164.14 C 44.61 154.56 48.53 145.00 55.16 138.15 C 65.94 126.73 80.87 120.73 92.92 110.92 C 97.51 107.26 100.81 102.22 102.76 96.71 C 106.59 86.03 108.39 74.76 112.07 64.03 C 114.51 57.11 117.77 50.25 123.12 45.08 C 128.46 39.79 135.65 36.62 143.05 35.59 C 158.30 33.24 173.65 37.10 188.95 35.83 C 194.20 35.39 199.26 33.49 203.60 30.53 C 215.49 22.54 225.18 11.50 238.01 4.88 C 242.75 2.23 248.03 0.66 253.41 0.00 M 251.45 16.62 C 246.42 17.93 241.98 20.81 237.82 23.84 C 228.36 30.99 219.95 39.57 209.68 45.63 C 204.32 48.83 198.30 50.87 192.10 51.60 C 178.45 53.31 164.77 50.48 151.09 50.90 C 145.23 51.17 138.79 52.16 134.44 56.50 C 128.90 62.25 126.76 70.24 124.72 77.74 C 121.13 90.93 118.91 105.20 110.21 116.23 C 100.81 127.61 87.04 133.81 75.19 142.16 C 70.25 145.71 65.29 149.77 62.70 155.43 C 60.43 160.73 61.51 166.68 62.98 172.03 C 66.69 184.54 73.11 196.13 75.96 208.91 C 77.40 215.14 77.67 221.65 76.51 227.95 C 73.99 242.19 66.57 254.89 62.70 268.73 C 61.09 274.65 60.41 281.58 64.14 286.88 C 69.41 294.71 77.98 299.29 85.70 304.32 C 95.86 310.76 106.83 317.19 113.22 327.78 C 120.64 340.28 122.31 355.01 126.67 368.66 C 128.43 373.94 130.60 379.33 134.63 383.32 C 138.71 387.24 144.60 388.28 150.04 388.64 C 167.00 389.45 184.45 384.69 201.02 390.02 C 217.14 395.78 228.09 409.75 242.16 418.80 C 247.40 422.07 253.73 424.76 259.99 423.14 C 268.44 421.03 275.19 415.14 281.78 409.75 C 290.89 402.32 299.75 393.88 311.12 390.04 C 323.89 385.90 337.47 388.00 350.59 388.63 C 358.19 388.98 366.23 389.44 373.33 386.19 C 379.22 383.32 382.25 377.02 384.40 371.18 C 388.79 358.61 390.47 345.18 396.00 333.00 C 398.36 327.72 401.71 322.87 405.96 318.93 C 416.27 309.15 429.57 303.44 440.61 294.61 C 444.91 291.04 449.16 286.64 450.26 280.95 C 451.26 274.77 449.42 268.60 447.42 262.81 C 442.40 248.49 434.52 234.56 434.72 218.97 C 435.17 200.12 447.02 184.19 450.26 165.98 C 451.69 159.31 448.86 152.52 443.92 148.04 C 431.36 136.27 414.14 130.49 402.72 117.36 C 394.34 107.64 391.65 94.71 388.52 82.62 C 386.19 73.89 384.37 64.48 378.41 57.36 C 374.16 52.34 367.17 51.18 360.96 50.90 C 344.20 50.34 326.91 54.87 310.56 49.46 C 294.90 43.78 284.16 30.30 270.58 21.29 C 265.02 17.67 258.17 14.70 251.45 16.62 M 71.17 450.55 C 88.75 451.86 106.33 453.09 123.90 454.54 C 126.12 454.61 128.00 455.90 129.67 457.26 C 143.01 467.88 156.45 478.38 169.79 489.00 C 180.36 461.92 190.89 434.82 201.45 407.73 C 197.06 405.11 192.03 403.77 186.94 403.56 C 174.64 402.98 162.40 405.17 150.10 404.65 C 140.20 404.37 129.87 401.48 122.83 394.17 C 113.34 384.50 110.52 370.73 107.20 358.10 C 95.18 388.91 83.17 419.73 71.17 450.55 M 404.76 358.14 C 401.95 369.11 399.39 380.57 392.73 389.96 C 387.68 397.15 379.70 402.03 371.09 403.61 C 355.54 406.65 339.76 402.66 324.11 403.66 C 319.33 403.94 314.66 405.33 310.51 407.72 C 321.06 434.82 331.63 461.91 342.20 488.99 C 355.96 478.19 369.65 467.30 383.39 456.47 C 384.94 455.15 386.93 454.53 388.94 454.45 C 406.23 453.21 423.51 451.94 440.79 450.60 C 428.79 419.77 416.79 388.95 404.76 358.14 Z" />
<path fill="#000000" opacity="1.00" d=" M 236.51 67.74 C 263.65 64.28 291.73 68.12 316.83 79.08 C 346.85 92.06 372.45 114.92 388.77 143.26 C 404.12 169.62 411.18 200.68 408.87 231.09 C 406.74 261.09 395.42 290.34 376.85 313.99 C 357.58 338.79 330.52 357.46 300.44 366.53 C 272.47 375.05 242.05 375.26 213.94 367.20 C 184.49 358.86 157.77 341.34 138.21 317.81 C 117.84 293.49 105.32 262.68 103.12 231.02 C 101.05 203.30 106.68 175.05 119.37 150.32 C 133.68 122.15 156.95 98.67 184.92 83.99 C 200.98 75.59 218.52 70.02 236.51 67.74 M 242.15 83.19 C 213.03 86.06 185.01 98.67 163.46 118.45 C 143.80 136.37 129.46 160.08 122.94 185.88 C 115.75 214.00 117.74 244.41 128.72 271.30 C 140.25 299.89 161.78 324.27 188.64 339.38 C 212.28 352.81 239.98 358.90 267.08 356.64 C 296.40 354.40 324.80 342.23 346.78 322.71 C 369.60 302.65 385.51 274.84 390.98 244.93 C 396.49 215.49 392.08 184.28 378.39 157.63 C 364.36 129.96 340.67 107.34 312.39 94.60 C 290.52 84.69 266.03 80.78 242.15 83.19 Z" />
<path fill="#000000" opacity="1.00" d=" M 249.39 125.62 C 258.45 122.40 269.44 126.51 273.94 135.06 C 279.71 146.33 285.13 157.79 290.85 169.10 C 291.55 170.72 293.14 171.78 294.90 171.89 C 307.25 173.71 319.61 175.40 331.94 177.36 C 339.26 178.59 345.61 184.17 347.75 191.28 C 350.14 198.40 348.20 206.69 342.88 212.00 C 334.06 220.79 325.03 229.38 316.18 238.14 C 314.85 239.31 314.32 241.12 314.74 242.84 C 316.72 254.89 318.90 266.90 320.88 278.95 C 321.80 284.32 320.59 290.06 317.37 294.48 C 313.08 300.57 305.31 304.00 297.92 302.95 C 294.05 302.51 290.60 300.56 287.23 298.76 C 277.60 293.69 267.98 288.61 258.32 283.61 C 256.64 282.55 254.60 282.96 252.98 283.92 C 242.23 289.56 231.53 295.30 220.73 300.85 C 214.54 304.08 206.72 303.84 200.76 300.17 C 193.56 295.97 189.50 287.15 191.07 278.95 C 193.06 266.94 195.22 254.96 197.21 242.95 C 197.75 240.97 196.87 239.00 195.37 237.71 C 186.76 229.28 178.11 220.90 169.51 212.47 C 165.90 208.95 163.52 204.15 163.21 199.10 C 162.18 188.23 171.04 177.82 181.92 177.03 C 193.65 175.33 205.39 173.71 217.10 171.92 C 218.84 171.76 220.43 170.74 221.14 169.11 C 226.75 158.01 232.12 146.78 237.72 135.67 C 240.12 130.98 244.38 127.27 249.39 125.62 M 253.41 141.32 C 252.32 141.99 251.86 143.24 251.26 144.29 C 246.57 153.91 241.79 163.48 237.08 173.09 C 234.38 179.85 228.94 185.89 221.55 187.34 C 208.74 189.52 195.81 191.07 182.98 193.12 C 179.59 193.46 177.89 198.16 180.30 200.57 C 189.28 209.62 198.60 218.32 207.59 227.36 C 212.07 231.94 214.16 238.68 213.07 245.00 C 211.07 257.36 208.76 269.69 206.81 282.06 C 206.16 285.62 210.61 288.55 213.64 286.52 C 224.57 280.87 235.46 275.12 246.36 269.41 C 252.28 266.24 259.70 266.25 265.63 269.39 C 276.60 275.01 287.42 280.90 298.38 286.53 C 301.40 288.54 305.86 285.60 305.19 282.05 C 303.23 269.66 300.93 257.34 298.92 244.96 C 297.77 238.43 300.07 231.45 304.86 226.88 C 313.63 218.28 322.46 209.75 331.21 201.13 C 334.17 198.84 332.75 193.51 329.01 193.09 C 316.64 191.14 304.21 189.50 291.83 187.61 C 285.33 186.61 279.47 182.32 276.59 176.41 C 271.00 165.29 265.64 154.06 260.02 142.96 C 258.90 140.56 255.52 139.76 253.41 141.32 Z" />
</g>
</svg>
