<?xml version="1.0" encoding="utf-8"?>
<!-- Generator: Adobe Illustrator 24.3.0, SVG Export Plug-In . SVG Version: 6.00 Build 0)  -->
<svg version="1.1" id="Layer_1" xmlns="http://www.w3.org/2000/svg" xmlns:xlink="http://www.w3.org/1999/xlink" x="0px" y="0px"
	 viewBox="0 0 752 816" style="enable-background:new 0 0 752 816;" xml:space="preserve">
<style type="text/css">
	.st0{fill:none;stroke:#FFFFFF;stroke-width:3;stroke-miterlimit:10;}
</style>
<g id="_x23_000000ff">
</g>
<g id="_x23_ffffffff">
	<path class="st0" d="M282.8,40.8c69.1-20.5,144.8-18.2,212.4,7c73,26.8,135.9,79.9,175,147.1c22.3,38,37.8,80.3,43.5,124.1
		c6.2,46.8,1.5,94.5-9.6,140.2c-10.5,42.1-30.3,81.5-56.8,115.8c-8-12.5-15.8-25.1-23.5-37.7c24.3-34.7,40.4-75,47.5-116.7
		c13.6-78.5-5.2-162.3-51.8-227c-22.8-31.9-52-59.1-85.3-79.7c-50-31.1-109.4-46.9-168.3-44.5c-40.2,1.4-80.2,10.9-116.6,27.9
		c-32.2,15.1-61.7,36.1-86.4,61.7c-53.5,55-84,131.3-84.9,208c-0.7,60.6,17.6,121.5,52.8,171c-7.9,12.8-15.7,25.7-23.8,38.3
		c-13.2-17-24.8-35.4-34.4-54.7c-10.2-20.9-19.5-42.6-24.1-65.5c-2.9-14.7-6.4-29.4-8.7-44.2c-7.6-48.1-3.3-97.9,12-144.1
		c11.7-36.4,28.2-71.3,50.5-102.5c18.2-25.7,40.2-48.6,65.3-67.6C201.8,71.5,241.4,52.8,282.8,40.8z"/>
	<path class="st0" d="M343.9,155.2c29.9-4.5,60.7-2.6,90,4.8c38.6,10,73.5,32.4,100.4,61.6c27.1,29.3,46.7,65.9,54.2,105.3
		c7.8,43,2.5,88.6-16.1,128.3c-9-14.8-18.3-29.4-27.4-44.2c10.8-39.1,6.5-82.1-11.8-118.2c-9.9-20.2-23.8-38.4-40.1-53.8
		c-33-31-79-47-124.1-44.7c-37.1,1.6-73.8,15.4-102.3,39.4c-22.8,19.3-40.9,44.1-52,71.9c-13.5,33.6-15.6,71.6-6.1,106.6
		c-9,15-18.4,29.8-27.6,44.7c-13.6-28.9-20.7-60.9-20-92.8c1.9-64.8,33.7-128.4,85.4-167.7C274.7,174.6,308.6,160.4,343.9,155.2z"/>
	<path class="st0" d="M294.2,386.2c27.1-44.4,54.2-88.8,81.2-133.2c66.7,107,133.4,214,200.1,321.1c-10,9.6-20.6,18.5-32,26.5
		c-19.8-32.2-39.6-64.5-59.3-96.7c-21.4-35-41.7-70.7-63.7-105.3c-12.6-20-25.4-39.9-37.8-60c-1.3-2.3-3-4.4-5.6-5.2
		c-2.2,1.4-3.8,3.5-5.1,5.7C318.9,425.8,265.6,512.3,212.5,599c-11.3-8.3-22.2-17.2-32.2-27.1c20-32.2,39.7-64.5,59.7-96.7
		c11.5-18,22.4-36.4,33.7-54.5C280.4,409.1,287.9,398,294.2,386.2z"/>
	<path class="st0" d="M279.6,634.7c32.7-52.7,65.6-105.3,98.4-157.9c33.4,52.6,66.6,105.4,100,158c-14.8,5.7-30.2,9.9-45.8,12.6
		c-17.9-28.5-36-56.9-53.9-85.3c-17.9,28.4-35.4,57-53.4,85.3C309.6,644.5,294.4,640.2,279.6,634.7z"/>
	<path class="st0" d="M55.5,774.7c30-49.3,60.5-98.2,90.7-147.4c10.4,9.4,21.3,18.1,32.7,26.2c-24.9,40.3-49.5,80.8-74.5,121.1
		C88.1,775,71.8,774.6,55.5,774.7z"/>
	<path class="st0" d="M577.2,655.2c11.6-7.7,22.5-16.2,33-25.4c30.1,48.2,59.7,96.6,89.4,145c-16.3-0.2-32.7,0.2-49-0.2
		C626,734.9,601.7,695,577.2,655.2z"/>
	<path class="st0" d="M245.1,690.1c14.4,5.9,29.1,11,44.1,15c-14.6,23.2-29,46.5-43.6,69.7c-17.8,0-35.6,0-53.5,0
		C209.9,746.6,227.4,718.3,245.1,690.1z"/>
	<path class="st0" d="M468.3,704.3c15-4.3,29.8-9,44.2-14.9c18.1,28.4,36,57,54.1,85.4c-17.8-0.1-35.7-0.1-53.5,0
		C497.9,751.5,483.3,727.7,468.3,704.3z"/>
</g>
</svg>
