<?xml version="1.0" encoding="UTF-8" ?>
<!DOCTYPE svg PUBLIC "-//W3C//DTD SVG 1.1//EN" "http://www.w3.org/Graphics/SVG/1.1/DTD/svg11.dtd">
<svg width="512pt" height="512pt" viewBox="0 0 512 512" version="1.1" xmlns="http://www.w3.org/2000/svg">
<g id="#000000ff">
<path fill="#000000" opacity="1.00" d=" M 255.40 0.00 L 256.52 0.00 C 260.65 0.54 264.34 3.83 264.41 8.17 C 264.76 18.11 264.38 28.07 264.57 38.03 C 264.53 41.70 264.83 46.13 261.78 48.80 C 258.54 52.03 252.65 51.77 249.70 48.27 C 247.13 45.51 247.50 41.45 247.43 37.97 C 247.62 28.03 247.24 18.08 247.59 8.15 C 247.66 3.85 251.31 0.59 255.40 0.00 Z" />
<path fill="#000000" opacity="1.00" d=" M 156.40 26.47 C 160.21 25.72 163.94 28.02 165.68 31.35 C 170.75 39.97 175.64 48.69 180.72 57.31 C 182.20 59.93 183.94 62.84 183.25 65.98 C 182.58 70.27 178.16 73.45 173.88 72.79 C 170.62 72.53 168.23 69.95 166.72 67.27 C 161.72 58.62 156.77 49.94 151.72 41.32 C 150.50 39.10 149.16 36.68 149.46 34.05 C 149.69 30.31 152.73 27.08 156.40 26.47 Z" />
<path fill="#000000" opacity="1.00" d=" M 352.42 26.52 C 359.08 24.77 365.16 32.83 361.60 38.76 C 356.88 47.52 351.64 56.00 346.79 64.69 C 345.10 67.55 343.49 70.93 340.21 72.22 C 335.87 74.11 330.36 71.51 329.04 66.99 C 327.87 63.85 329.34 60.64 330.92 57.95 C 335.84 49.50 340.72 41.02 345.59 32.54 C 347.10 29.86 349.18 27.09 352.42 26.52 Z" />
<path fill="#000000" opacity="1.00" d=" M 159.48 108.50 C 187.77 79.72 229.43 64.67 269.58 69.15 C 299.66 72.30 328.49 85.86 350.19 106.91 C 381.56 136.78 397.67 182.18 390.88 225.09 C 386.97 252.40 374.26 278.28 355.32 298.31 C 348.25 306.54 337.22 311.98 334.00 323.02 C 331.23 333.79 334.25 345.13 331.97 355.97 C 330.08 364.31 323.52 370.87 315.74 374.04 C 315.61 380.12 316.29 386.43 314.25 392.29 C 313.16 395.52 311.16 398.32 309.18 401.06 C 312.60 405.38 315.26 410.46 315.57 416.06 C 316.29 423.04 313.55 429.87 309.17 435.20 C 314.34 441.46 317.00 449.95 315.03 457.98 C 313.18 466.65 306.35 473.65 298.06 476.50 C 296.54 482.34 294.67 488.21 291.15 493.19 C 283.23 505.19 268.93 512.24 254.64 512.00 L 253.53 512.00 C 244.13 511.06 234.86 507.58 227.81 501.18 C 225.14 498.74 221.92 495.95 222.05 491.99 C 221.93 487.29 226.31 483.23 230.97 483.59 C 234.96 483.81 237.54 487.23 240.51 489.45 C 248.08 495.64 259.35 496.57 267.92 491.91 C 273.69 489.04 277.72 483.71 280.23 477.91 C 269.46 477.77 258.68 478.02 247.92 477.81 C 243.56 477.93 239.28 474.56 239.08 470.07 C 238.43 465.03 243.05 460.56 248.02 460.84 C 262.26 460.55 276.52 461.07 290.74 460.63 C 297.52 460.51 301.13 451.36 296.39 446.59 C 290.93 440.70 281.41 446.62 275.71 441.23 C 271.86 437.71 272.56 430.76 277.05 428.09 C 282.36 425.07 289.01 428.18 294.38 425.41 C 299.12 422.85 299.99 415.62 295.97 412.04 C 290.39 406.88 281.43 412.30 275.83 407.21 C 271.91 403.73 272.50 396.79 276.94 394.03 C 282.59 390.63 290.11 394.63 295.50 390.50 C 299.90 386.83 298.42 380.48 298.66 375.47 C 292.44 375.29 286.18 375.90 279.99 375.14 C 274.32 374.40 271.26 367.09 274.47 362.44 C 276.36 359.12 280.42 358.27 283.95 358.38 C 291.97 358.23 300.00 358.74 308.00 358.21 C 311.95 358.00 315.28 354.58 315.55 350.66 C 316.11 342.79 315.33 334.88 315.92 327.01 C 316.62 316.99 321.12 307.30 328.30 300.28 C 331.14 297.48 334.18 294.90 337.14 292.24 C 362.83 268.87 377.17 233.70 375.18 199.02 C 373.88 175.54 365.45 152.48 351.27 133.71 C 334.43 111.12 309.44 94.74 281.95 88.50 C 260.33 83.36 237.27 84.92 216.37 92.33 C 186.83 102.62 161.79 125.10 148.39 153.37 C 137.99 174.98 134.43 199.79 138.21 223.47 C 142.23 249.38 155.08 273.86 174.30 291.72 C 177.25 294.44 180.32 297.03 183.23 299.80 C 190.40 306.63 195.04 316.07 195.98 325.94 C 196.76 334.14 195.86 342.40 196.45 350.61 C 196.68 354.99 200.71 358.44 205.05 358.32 C 221.99 358.61 238.96 358.20 255.90 358.48 C 260.81 358.38 265.15 363.00 264.37 367.94 C 263.99 372.58 259.41 375.73 254.95 375.44 C 241.08 375.54 227.21 375.43 213.34 375.47 C 213.37 379.14 213.04 382.89 213.84 386.51 C 214.83 390.13 218.46 392.45 222.12 392.46 C 233.40 392.75 244.70 392.28 255.98 392.63 C 260.83 392.51 265.03 397.09 264.39 401.92 C 264.08 406.14 260.22 409.49 256.04 409.50 C 244.72 409.85 233.38 409.34 222.07 409.69 C 217.86 409.59 213.90 412.85 213.51 417.09 C 212.80 421.73 216.63 426.36 221.33 426.51 C 232.85 426.97 244.39 426.36 255.92 426.76 C 260.76 426.63 265.02 431.14 264.39 435.99 C 264.13 440.29 260.15 443.63 255.94 443.64 C 244.29 444.03 232.61 443.32 220.97 443.93 C 214.79 444.19 211.22 452.20 214.95 457.07 C 217.34 460.84 222.29 460.37 225.93 461.98 C 230.62 464.33 231.80 471.39 228.11 475.14 C 224.80 478.75 219.33 478.01 215.06 476.89 C 204.13 474.10 195.97 463.29 196.35 452.01 C 196.25 445.77 199.10 439.98 202.82 435.14 C 199.55 431.03 196.94 426.23 196.50 420.92 C 195.55 413.73 198.27 406.56 202.82 401.06 C 200.84 398.32 198.83 395.52 197.75 392.28 C 195.70 386.42 196.39 380.12 196.26 374.04 C 188.49 370.86 181.91 364.31 180.04 355.96 C 177.73 345.12 180.78 333.78 178.02 323.00 C 175.74 314.58 168.25 309.45 162.27 303.73 C 135.05 278.32 119.28 241.18 119.75 203.96 C 119.63 168.55 134.33 133.41 159.48 108.50 Z" />
<path fill="#000000" opacity="1.00" d=" M 83.46 98.57 C 87.43 97.26 91.14 99.71 94.41 101.62 C 102.21 106.18 110.04 110.67 117.86 115.18 C 120.08 116.51 122.46 118.03 123.45 120.55 C 125.43 125.00 122.62 130.72 117.90 131.89 C 114.79 132.87 111.71 131.39 109.07 129.86 C 100.66 124.96 92.23 120.09 83.79 115.25 C 81.53 113.91 79.12 112.35 78.16 109.78 C 76.25 105.42 78.90 99.88 83.46 98.57 Z" />
<path fill="#000000" opacity="1.00" d=" M 423.46 98.64 C 428.75 96.60 434.93 101.41 434.44 107.01 C 434.42 110.29 432.14 113.00 429.40 114.54 C 420.16 119.92 410.88 125.23 401.63 130.58 C 398.76 132.40 394.87 132.88 391.93 130.94 C 387.62 128.41 386.64 121.81 390.11 118.18 C 393.29 115.13 397.47 113.46 401.16 111.15 C 408.64 107.07 415.74 102.24 423.46 98.64 Z" />
<path fill="#000000" opacity="1.00" d=" M 181.40 193.02 C 185.91 180.31 198.60 171.10 212.09 170.79 C 225.31 170.11 238.39 178.07 244.00 190.04 C 248.97 199.91 247.10 211.25 247.48 221.88 C 253.16 221.87 258.84 221.87 264.52 221.88 C 264.65 215.30 264.26 208.69 264.76 202.12 C 265.49 191.01 272.23 180.55 281.95 175.16 C 291.73 169.51 304.37 169.30 314.34 174.60 C 326.42 180.65 333.98 194.46 332.54 207.90 C 331.59 220.14 323.34 231.36 312.04 236.10 C 302.44 240.28 291.75 238.58 281.60 238.95 C 281.59 269.65 281.60 300.35 281.60 331.05 C 281.60 333.85 281.12 336.95 278.89 338.90 C 275.78 342.01 270.23 341.98 267.15 338.82 C 264.72 336.61 264.51 333.11 264.51 330.04 C 264.59 299.71 264.46 269.38 264.57 239.04 C 258.87 238.87 253.15 238.91 247.45 239.01 C 247.52 269.34 247.43 299.67 247.49 330.00 C 247.49 333.09 247.29 336.60 244.85 338.82 C 241.75 342.00 236.16 342.01 233.05 338.85 C 230.86 336.88 230.40 333.80 230.40 331.01 C 230.40 300.32 230.41 269.63 230.40 238.95 C 223.91 238.84 217.41 239.16 210.93 238.73 C 200.16 238.07 189.95 231.86 184.36 222.65 C 178.89 213.92 177.83 202.66 181.40 193.02 M 203.74 190.74 C 198.79 194.06 195.85 200.11 196.39 206.06 C 196.76 214.05 203.61 221.06 211.57 221.72 C 217.84 222.09 224.12 221.77 230.40 221.88 C 230.33 215.93 230.55 209.98 230.32 204.04 C 230.14 198.37 226.88 192.96 221.97 190.14 C 216.46 186.79 209.02 187.02 203.74 190.74 M 281.77 203.09 C 281.36 209.34 281.70 215.62 281.60 221.88 C 288.08 221.73 294.59 222.18 301.05 221.64 C 310.70 220.59 317.74 210.20 315.22 200.83 C 313.47 192.78 305.22 186.88 297.03 187.85 C 289.19 188.47 282.32 195.20 281.77 203.09 Z" />
<path fill="#000000" opacity="1.00" d=" M 59.28 196.37 C 70.18 196.07 81.09 196.33 92.00 196.24 C 96.06 195.96 100.60 197.90 101.84 202.06 C 103.85 207.28 99.46 213.40 93.89 213.25 C 82.95 213.47 71.98 213.30 61.03 213.33 C 56.92 213.61 52.55 211.20 51.60 206.99 C 50.06 202.02 54.11 196.51 59.28 196.37 Z" />
<path fill="#000000" opacity="1.00" d=" M 417.32 196.42 C 428.53 196.02 439.78 196.34 451.00 196.26 C 455.29 196.00 459.84 198.69 460.53 203.18 C 461.75 208.30 457.23 213.51 452.02 213.27 C 441.02 213.43 430.02 213.34 419.02 213.32 C 415.04 213.52 410.94 211.01 410.01 207.01 C 408.50 202.19 412.27 196.72 417.32 196.42 Z" />
<path fill="#000000" opacity="1.00" d=" M 111.38 278.52 C 115.74 275.85 122.01 278.14 123.57 283.00 C 125.15 286.92 123.07 291.42 119.50 293.40 C 110.67 298.66 101.69 303.65 92.85 308.88 C 89.95 310.60 86.44 312.30 83.07 310.86 C 78.80 309.42 76.37 304.23 78.07 300.04 C 79.22 296.71 82.57 295.09 85.39 293.42 C 94.10 288.53 102.63 283.33 111.38 278.52 Z" />
<path fill="#000000" opacity="1.00" d=" M 392.39 278.40 C 395.38 276.61 399.04 277.47 401.86 279.14 C 410.75 284.26 419.61 289.43 428.51 294.52 C 432.01 296.27 435.04 299.79 434.39 303.95 C 433.93 309.52 427.28 313.19 422.34 310.52 C 413.51 305.86 405.04 300.53 396.31 295.68 C 393.47 293.97 390.09 292.45 388.64 289.25 C 386.82 285.38 388.60 280.33 392.39 278.40 Z" />
</g>
</svg>
